solid pir_cases
facet normal 1.0 -2.6877270454426237e-16 0.0
  outer loop
    vertex 171.12112172466718 1.071587263368201e-13 4.173560000000003
    vertex 171.12112172466718 -1.9999999999998928 6.260340000000003
    vertex 171.12112172466718 -1.9999999999998928 4.173560000000004
  endloop
endfacet
facet normal 1.0 -2.6877270454426237e-16 0.0
  outer loop
    vertex 171.12112172466718 -1.9999999999998928 6.260340000000003
    vertex 171.12112172466718 1.071587263368201e-13 4.173560000000003
    vertex 171.12112172466718 1.071587263368201e-13 6.260340000000002
  endloop
endfacet
facet normal -4.215055499359701e-17 1.0 -1.1048443858337924e-16
  outer loop
    vertex 131.1604548446672 1.1281996883762892e-13 11.142882499999997
    vertex 131.2604548446672 1.1194684716202448e-13 7.142882499999998
    vertex 131.1604548446672 1.1192610691494084e-13 7.142882499999998
  endloop
endfacet
facet normal -4.215055499359701e-17 1.0 -1.1048443858337924e-16
  outer loop
    vertex 131.2604548446672 1.1194684716202448e-13 7.142882499999998
    vertex 131.1604548446672 1.1281996883762892e-13 11.142882499999997
    vertex 131.2604548446672 1.127986593019159e-13 11.042882499999997
  endloop
endfacet
facet normal -4.215055499359701e-17 1.0 -1.1048443858337924e-16
  outer loop
    vertex 131.2604548446672 1.127986593019159e-13 11.042882499999997
    vertex 131.1604548446672 1.1281996883762892e-13 11.142882499999997
    vertex 141.2604548446672 1.127986593019159e-13 11.042882499999997
  endloop
endfacet
facet normal -4.215055499359701e-17 1.0 -1.1048443858337924e-16
  outer loop
    vertex 141.2604548446672 1.127986593019159e-13 11.042882499999997
    vertex 141.3604548446672 1.127986593019159e-13 7.142882499999998
    vertex 141.2604548446672 1.127986593019159e-13 7.142882499999998
  endloop
endfacet
facet normal -4.215055499359701e-17 1.0 -1.1048443858337924e-16
  outer loop
    vertex 141.3604548446672 1.127986593019159e-13 7.142882499999998
    vertex 141.2604548446672 1.127986593019159e-13 11.042882499999997
    vertex 141.3604548446672 1.127986593019159e-13 11.142882499999997
  endloop
endfacet
facet normal -4.215055499359701e-17 1.0 -1.1048443858337924e-16
  outer loop
    vertex 141.3604548446672 1.127986593019159e-13 11.142882499999997
    vertex 141.2604548446672 1.127986593019159e-13 11.042882499999997
    vertex 131.1604548446672 1.1281996883762892e-13 11.142882499999997
  endloop
endfacet
facet normal 1.0 -0.0 -0.0
  outer loop
    vertex 131.2604548446672 1.1194627787339513e-13 7.042882499999998
    vertex 131.2604548446672 -1.999999999999887 11.042882499999997
    vertex 131.2604548446672 -1.9999999999998879 7.042882499999998
  endloop
endfacet
facet normal 1.0 -0.0 -0.0
  outer loop
    vertex 131.2604548446672 -1.999999999999887 11.042882499999997
    vertex 131.2604548446672 1.1194627787339513e-13 7.042882499999998
    vertex 131.2604548446672 1.1194684716202448e-13 7.142882499999998
  endloop
endfacet
facet normal 1.0 -0.0 -0.0
  outer loop
    vertex 131.2604548446672 -1.999999999999887 11.042882499999997
    vertex 131.2604548446672 1.1194684716202448e-13 7.142882499999998
    vertex 131.2604548446672 1.127986593019159e-13 11.042882499999997
  endloop
endfacet
facet normal 4.672767076566039e-16 1.0 3.79626478007072e-17
  outer loop
    vertex 119.7187612542658 1.071587263368201e-13 7.042882499999998
    vertex 119.81876125426581 1.0722334236084314e-13 7.142882499999998
    vertex 131.2604548446672 1.1194627787339513e-13 7.042882499999998
  endloop
endfacet
facet normal 4.672767076566039e-16 1.0 3.79626478007072e-17
  outer loop
    vertex 119.81876125426581 1.0722334236084314e-13 7.142882499999998
    vertex 119.7187612542658 1.071587263368201e-13 7.042882499999998
    vertex 119.7187612542658 1.127986593019159e-13 31.420681496893042
  endloop
endfacet
facet normal 4.672767076566039e-16 1.0 3.79626478007072e-17
  outer loop
    vertex 119.81876125426581 1.0722334236084314e-13 7.142882499999998
    vertex 119.7187612542658 1.127986593019159e-13 31.420681496893042
    vertex 119.81876125426581 1.1275862637149642e-13 31.388859853199502
  endloop
endfacet
facet normal 4.672767076566039e-16 1.0 3.79626478007072e-17
  outer loop
    vertex 119.81876125426581 1.1275862637149642e-13 31.388859853199502
    vertex 119.7187612542658 1.127986593019159e-13 31.420681496893042
    vertex 121.61693106580846 1.127986593019159e-13 33.92814426882808
  endloop
endfacet
facet normal 4.672767076566039e-16 1.0 3.79626478007072e-17
  outer loop
    vertex 121.61693106580846 1.127986593019159e-13 33.92814426882808
    vertex 119.7187612542658 1.127986593019159e-13 31.420681496893042
    vertex 121.5404961233336 1.127986593019159e-13 33.99324329430328
  endloop
endfacet
facet normal 4.672767076566039e-16 1.0 3.79626478007072e-17
  outer loop
    vertex 121.61693106580846 1.127986593019159e-13 33.92814426882808
    vertex 121.5404961233336 1.127986593019159e-13 33.99324329430328
    vertex 123.95338218793313 1.127986593019159e-13 36.2211493346518
  endloop
endfacet
facet normal 4.672767076566039e-16 1.0 3.79626478007072e-17
  outer loop
    vertex 123.95338218793313 1.127986593019159e-13 36.2211493346518
    vertex 121.5404961233336 1.127986593019159e-13 33.99324329430328
    vertex 123.88963262125522 1.127986593019159e-13 36.298697852730925
  endloop
endfacet
facet normal 4.672767076566039e-16 1.0 3.79626478007072e-17
  outer loop
    vertex 123.95338218793313 1.127986593019159e-13 36.2211493346518
    vertex 123.88963262125522 1.127986593019159e-13 36.298697852730925
    vertex 126.67567120805404 1.1119329331431186e-13 38.08389953861649
  endloop
endfacet
facet normal 4.672767076566039e-16 1.0 3.79626478007072e-17
  outer loop
    vertex 126.67567120805404 1.1119329331431186e-13 38.08389953861649
    vertex 123.88963262125522 1.127986593019159e-13 36.298697852730925
    vertex 126.62637598942194 1.127986593019159e-13 38.17133857146883
  endloop
endfacet
facet normal 4.672767076566039e-16 1.0 3.79626478007072e-17
  outer loop
    vertex 126.67567120805404 1.1119329331431186e-13 38.08389953861649
    vertex 126.62637598942194 1.127986593019159e-13 38.17133857146883
    vertex 128.52081416431193 1.071443055361022e-13 38.922582717151975
  endloop
endfacet
facet normal 4.672767076566039e-16 1.0 3.79626478007072e-17
  outer loop
    vertex 128.52081416431193 1.071443055361022e-13 38.922582717151975
    vertex 126.62637598942194 1.127986593019159e-13 38.17133857146883
    vertex 128.4794346126645 1.071587263368201e-13 39.01361970252308
  endloop
endfacet
facet normal 4.672767076566039e-16 1.0 3.79626478007072e-17
  outer loop
    vertex 128.52081416431193 1.071443055361022e-13 38.922582717151975
    vertex 128.4794346126645 1.071587263368201e-13 39.01361970252308
    vertex 129.69853185219034 1.1026086598012632e-13 39.457897344421056
  endloop
endfacet
facet normal 4.672767076566039e-16 1.0 3.79626478007072e-17
  outer loop
    vertex 129.69853185219034 1.1026086598012632e-13 39.457897344421056
    vertex 128.4794346126645 1.071587263368201e-13 39.01361970252308
    vertex 129.66497764035574 1.127986593019159e-13 39.55249122539479
  endloop
endfacet
facet normal 4.672767076566039e-16 1.0 3.79626478007072e-17
  outer loop
    vertex 129.69853185219034 1.1026086598012632e-13 39.457897344421056
    vertex 129.66497764035574 1.127986593019159e-13 39.55249122539479
    vertex 132.92721183828792 1.127986593019159e-13 40.299964689207314
  endloop
endfacet
facet normal 4.672767076566039e-16 1.0 3.79626478007072e-17
  outer loop
    vertex 132.92721183828792 1.127986593019159e-13 40.299964689207314
    vertex 129.66497764035574 1.127986593019159e-13 39.55249122539479
    vertex 132.91023105871193 1.127986593019159e-13 40.39888106301282
  endloop
endfacet
facet normal 4.672767076566039e-16 1.0 3.79626478007072e-17
  outer loop
    vertex 132.92721183828792 1.127986593019159e-13 40.299964689207314
    vertex 132.91023105871193 1.127986593019159e-13 40.39888106301282
    vertex 136.2604548446672 1.127986593019159e-13 40.583627249510684
  endloop
endfacet
facet normal 4.672767076566039e-16 1.0 3.79626478007072e-17
  outer loop
    vertex 136.2604548446672 1.127986593019159e-13 40.583627249510684
    vertex 132.91023105871193 1.127986593019159e-13 40.39888106301282
    vertex 136.2604548446672 1.127986593019159e-13 40.6839887058983
  endloop
endfacet
facet normal 4.672767076566039e-16 1.0 3.79626478007072e-17
  outer loop
    vertex 141.2604548446672 1.127986593019159e-13 7.142882499999998
    vertex 152.80214843506855 1.127986593019159e-13 7.042882499999998
    vertex 141.2604548446672 1.127986593019159e-13 7.042882499999998
  endloop
endfacet
facet normal 4.672767076566039e-16 1.0 3.79626478007072e-17
  outer loop
    vertex 152.80214843506855 1.127986593019159e-13 7.042882499999998
    vertex 141.2604548446672 1.127986593019159e-13 7.142882499999998
    vertex 152.70214843506855 1.1252103294364715e-13 7.142882499999998
  endloop
endfacet
facet normal 4.672767076566039e-16 1.0 3.79626478007072e-17
  outer loop
    vertex 152.80214843506855 1.127986593019159e-13 7.042882499999998
    vertex 152.70214843506855 1.1252103294364715e-13 7.142882499999998
    vertex 152.8021484350686 4.511946372076636e-14 31.420681496893057
  endloop
endfacet
facet normal 4.672767076566039e-16 1.0 3.79626478007072e-17
  outer loop
    vertex 152.70214843506855 1.1252103294364715e-13 7.142882499999998
    vertex 141.2604548446672 1.127986593019159e-13 7.142882499999998
    vertex 141.3604548446672 1.127986593019159e-13 7.142882499999998
  endloop
endfacet
facet normal 4.672767076566039e-16 1.0 3.79626478007072e-17
  outer loop
    vertex 152.8021484350686 4.511946372076636e-14 31.420681496893057
    vertex 152.70214843506855 1.1252103294364715e-13 7.142882499999998
    vertex 152.7021484350686 4.9314954684333306e-14 31.388859853199516
  endloop
endfacet
facet normal 4.672767076566039e-16 1.0 3.79626478007072e-17
  outer loop
    vertex 152.8021484350686 4.511946372076636e-14 31.420681496893057
    vertex 152.7021484350686 4.9314954684333306e-14 31.388859853199516
    vertex 150.90397862352594 1.0071418136953559e-13 33.928144268828085
  endloop
endfacet
facet normal 4.672767076566039e-16 1.0 3.79626478007072e-17
  outer loop
    vertex 152.8021484350686 4.511946372076636e-14 31.420681496893057
    vertex 150.90397862352594 1.0071418136953559e-13 33.928144268828085
    vertex 150.98041356600083 1.127986593019159e-13 33.993243294303284
  endloop
endfacet
facet normal 4.672767076566039e-16 1.0 3.79626478007072e-17
  outer loop
    vertex 150.98041356600083 1.127986593019159e-13 33.993243294303284
    vertex 150.90397862352594 1.0071418136953559e-13 33.928144268828085
    vertex 148.5675275014013 1.127986593019159e-13 36.221149334651805
  endloop
endfacet
facet normal 4.672767076566039e-16 1.0 3.79626478007072e-17
  outer loop
    vertex 150.98041356600083 1.127986593019159e-13 33.993243294303284
    vertex 148.5675275014013 1.127986593019159e-13 36.221149334651805
    vertex 148.6312770680792 1.127986593019159e-13 36.29869785273093
  endloop
endfacet
facet normal 4.672767076566039e-16 1.0 3.79626478007072e-17
  outer loop
    vertex 148.6312770680792 1.127986593019159e-13 36.29869785273093
    vertex 148.5675275014013 1.127986593019159e-13 36.221149334651805
    vertex 145.84523848128035 1.127986593019159e-13 38.08389953861649
  endloop
endfacet
facet normal 4.672767076566039e-16 1.0 3.79626478007072e-17
  outer loop
    vertex 148.6312770680792 1.127986593019159e-13 36.29869785273093
    vertex 145.84523848128035 1.127986593019159e-13 38.08389953861649
    vertex 145.89453369991247 1.127986593019159e-13 38.17133857146883
  endloop
endfacet
facet normal 4.672767076566039e-16 1.0 3.79626478007072e-17
  outer loop
    vertex 145.89453369991247 1.127986593019159e-13 38.17133857146883
    vertex 145.84523848128035 1.127986593019159e-13 38.08389953861649
    vertex 142.82237783714407 1.127986593019159e-13 39.457897344421056
  endloop
endfacet
facet normal 4.672767076566039e-16 1.0 3.79626478007072e-17
  outer loop
    vertex 145.89453369991247 1.127986593019159e-13 38.17133857146883
    vertex 142.82237783714407 1.127986593019159e-13 39.457897344421056
    vertex 142.85593204897867 1.127986593019159e-13 39.55249122539479
  endloop
endfacet
facet normal 4.672767076566039e-16 1.0 3.79626478007072e-17
  outer loop
    vertex 142.85593204897867 1.127986593019159e-13 39.55249122539479
    vertex 142.82237783714407 1.127986593019159e-13 39.457897344421056
    vertex 139.5936978510465 1.127986593019159e-13 40.299964689207314
  endloop
endfacet
facet normal 4.672767076566039e-16 1.0 3.79626478007072e-17
  outer loop
    vertex 142.85593204897867 1.127986593019159e-13 39.55249122539479
    vertex 139.5936978510465 1.127986593019159e-13 40.299964689207314
    vertex 139.6106786306225 1.127986593019159e-13 40.39888106301282
  endloop
endfacet
facet normal 4.672767076566039e-16 1.0 3.79626478007072e-17
  outer loop
    vertex 139.6106786306225 1.127986593019159e-13 40.39888106301282
    vertex 139.5936978510465 1.127986593019159e-13 40.299964689207314
    vertex 136.2604548446672 1.127986593019159e-13 40.583627249510684
  endloop
endfacet
facet normal 4.672767076566039e-16 1.0 3.79626478007072e-17
  outer loop
    vertex 139.6106786306225 1.127986593019159e-13 40.39888106301282
    vertex 136.2604548446672 1.127986593019159e-13 40.583627249510684
    vertex 136.2604548446672 1.127986593019159e-13 40.6839887058983
  endloop
endfacet
facet normal 4.672767076566039e-16 1.0 3.79626478007072e-17
  outer loop
    vertex 119.81876125426581 1.0722334236084314e-13 7.142882499999998
    vertex 131.2604548446672 1.1194684716202448e-13 7.142882499999998
    vertex 131.2604548446672 1.1194627787339513e-13 7.042882499999998
  endloop
endfacet
facet normal 4.672767076566039e-16 1.0 3.79626478007072e-17
  outer loop
    vertex 131.2604548446672 1.1194684716202448e-13 7.142882499999998
    vertex 119.81876125426581 1.0722334236084314e-13 7.142882499999998
    vertex 131.1604548446672 1.1192610691494084e-13 7.142882499999998
  endloop
endfacet
facet normal -4.4320582497019676e-16 -1.0 -4.377686236424909e-17
  outer loop
    vertex 152.8021484350686 -1.9999999999999547 31.420681496893057
    vertex 141.2604548446672 -1.999999999999887 7.042882499999998
    vertex 152.80214843506855 -1.999999999999887 7.042882499999998
  endloop
endfacet
facet normal -4.4320582497019676e-16 -1.0 -4.377686236424909e-17
  outer loop
    vertex 141.2604548446672 -1.999999999999887 7.042882499999998
    vertex 152.8021484350686 -1.9999999999999547 31.420681496893057
    vertex 141.2604548446672 -1.999999999999887 11.042882499999997
  endloop
endfacet
facet normal -4.4320582497019676e-16 -1.0 -4.377686236424909e-17
  outer loop
    vertex 141.2604548446672 -1.999999999999887 11.042882499999997
    vertex 152.8021484350686 -1.9999999999999547 31.420681496893057
    vertex 131.2604548446672 -1.999999999999887 11.042882499999997
  endloop
endfacet
facet normal -4.4320582497019676e-16 -1.0 -4.377686236424909e-17
  outer loop
    vertex 131.2604548446672 -1.999999999999887 11.042882499999997
    vertex 152.8021484350686 -1.9999999999999547 31.420681496893057
    vertex 119.7187612542658 -1.999999999999887 31.420681496893042
  endloop
endfacet
facet normal -4.4320582497019676e-16 -1.0 -4.377686236424909e-17
  outer loop
    vertex 119.7187612542658 -1.999999999999887 31.420681496893042
    vertex 152.8021484350686 -1.9999999999999547 31.420681496893057
    vertex 121.5404961233336 -1.999999999999887 33.99324329430328
  endloop
endfacet
facet normal -4.4320582497019676e-16 -1.0 -4.377686236424909e-17
  outer loop
    vertex 121.5404961233336 -1.999999999999887 33.99324329430328
    vertex 152.8021484350686 -1.9999999999999547 31.420681496893057
    vertex 150.98041356600083 -1.999999999999887 33.993243294303284
  endloop
endfacet
facet normal -4.4320582497019676e-16 -1.0 -4.377686236424909e-17
  outer loop
    vertex 121.5404961233336 -1.999999999999887 33.99324329430328
    vertex 150.98041356600083 -1.999999999999887 33.993243294303284
    vertex 123.88963262125522 -1.999999999999887 36.298697852730925
  endloop
endfacet
facet normal -4.4320582497019676e-16 -1.0 -4.377686236424909e-17
  outer loop
    vertex 123.88963262125522 -1.999999999999887 36.298697852730925
    vertex 150.98041356600083 -1.999999999999887 33.993243294303284
    vertex 148.6312770680792 -1.999999999999887 36.29869785273093
  endloop
endfacet
facet normal -4.4320582497019676e-16 -1.0 -4.377686236424909e-17
  outer loop
    vertex 123.88963262125522 -1.999999999999887 36.298697852730925
    vertex 148.6312770680792 -1.999999999999887 36.29869785273093
    vertex 126.62637598942194 -1.999999999999887 38.17133857146883
  endloop
endfacet
facet normal -4.4320582497019676e-16 -1.0 -4.377686236424909e-17
  outer loop
    vertex 126.62637598942194 -1.999999999999887 38.17133857146883
    vertex 148.6312770680792 -1.999999999999887 36.29869785273093
    vertex 145.89453369991247 -1.999999999999887 38.17133857146883
  endloop
endfacet
facet normal -4.4320582497019676e-16 -1.0 -4.377686236424909e-17
  outer loop
    vertex 126.62637598942194 -1.999999999999887 38.17133857146883
    vertex 145.89453369991247 -1.999999999999887 38.17133857146883
    vertex 142.85593204897867 -1.999999999999887 39.55249122539479
  endloop
endfacet
facet normal -4.4320582497019676e-16 -1.0 -4.377686236424909e-17
  outer loop
    vertex 126.62637598942194 -1.999999999999887 38.17133857146883
    vertex 142.85593204897867 -1.999999999999887 39.55249122539479
    vertex 128.4794346126645 -1.9999999999998928 39.01361970252308
  endloop
endfacet
facet normal -4.4320582497019676e-16 -1.0 -4.377686236424909e-17
  outer loop
    vertex 128.4794346126645 -1.9999999999998928 39.01361970252308
    vertex 142.85593204897867 -1.999999999999887 39.55249122539479
    vertex 129.66497764035574 -1.999999999999887 39.55249122539479
  endloop
endfacet
facet normal -4.4320582497019676e-16 -1.0 -4.377686236424909e-17
  outer loop
    vertex 129.66497764035574 -1.999999999999887 39.55249122539479
    vertex 142.85593204897867 -1.999999999999887 39.55249122539479
    vertex 139.6106786306225 -1.999999999999887 40.39888106301282
  endloop
endfacet
facet normal -4.4320582497019676e-16 -1.0 -4.377686236424909e-17
  outer loop
    vertex 129.66497764035574 -1.999999999999887 39.55249122539479
    vertex 139.6106786306225 -1.999999999999887 40.39888106301282
    vertex 132.91023105871193 -1.999999999999887 40.39888106301282
  endloop
endfacet
facet normal -4.4320582497019676e-16 -1.0 -4.377686236424909e-17
  outer loop
    vertex 132.91023105871193 -1.999999999999887 40.39888106301282
    vertex 139.6106786306225 -1.999999999999887 40.39888106301282
    vertex 136.2604548446672 -1.999999999999887 40.6839887058983
  endloop
endfacet
facet normal -4.4320582497019676e-16 -1.0 -4.377686236424909e-17
  outer loop
    vertex 131.2604548446672 -1.999999999999887 11.042882499999997
    vertex 119.7187612542658 -1.9999999999998928 7.042882499999998
    vertex 131.2604548446672 -1.9999999999998879 7.042882499999998
  endloop
endfacet
facet normal -4.4320582497019676e-16 -1.0 -4.377686236424909e-17
  outer loop
    vertex 119.7187612542658 -1.9999999999998928 7.042882499999998
    vertex 131.2604548446672 -1.999999999999887 11.042882499999997
    vertex 119.7187612542658 -1.999999999999887 31.420681496893042
  endloop
endfacet
facet normal -1.0 0.0 0.0
  outer loop
    vertex 141.2604548446672 1.127986593019159e-13 11.042882499999997
    vertex 141.2604548446672 -1.999999999999887 7.042882499999998
    vertex 141.2604548446672 -1.999999999999887 11.042882499999997
  endloop
endfacet
facet normal -1.0 0.0 0.0
  outer loop
    vertex 141.2604548446672 -1.999999999999887 7.042882499999998
    vertex 141.2604548446672 1.127986593019159e-13 11.042882499999997
    vertex 141.2604548446672 1.127986593019159e-13 7.042882499999998
  endloop
endfacet
facet normal -1.0 0.0 0.0
  outer loop
    vertex 141.2604548446672 1.127986593019159e-13 7.042882499999998
    vertex 141.2604548446672 1.127986593019159e-13 11.042882499999997
    vertex 141.2604548446672 1.127986593019159e-13 7.142882499999998
  endloop
endfacet
facet normal -0.0 -0.0 1.0
  outer loop
    vertex 136.2604548446672 -1.999999999999887 7.042882499999998
    vertex 131.2604548446672 1.1194627787339513e-13 7.042882499999998
    vertex 131.2604548446672 -1.9999999999998879 7.042882499999998
  endloop
endfacet
facet normal -0.0 -0.0 1.0
  outer loop
    vertex 131.2604548446672 1.1194627787339513e-13 7.042882499999998
    vertex 136.2604548446672 -1.999999999999887 7.042882499999998
    vertex 136.2604548446672 1.127986593019159e-13 7.042882499999998
  endloop
endfacet
facet normal 0.0 5.738990532836981e-17 -1.0
  outer loop
    vertex 141.2604548446672 1.127986593019159e-13 11.042882499999997
    vertex 131.2604548446672 -1.999999999999887 11.042882499999997
    vertex 131.2604548446672 1.127986593019159e-13 11.042882499999997
  endloop
endfacet
facet normal 0.0 5.738990532836981e-17 -1.0
  outer loop
    vertex 131.2604548446672 -1.999999999999887 11.042882499999997
    vertex 141.2604548446672 1.127986593019159e-13 11.042882499999997
    vertex 141.2604548446672 -1.999999999999887 11.042882499999997
  endloop
endfacet
facet normal -0.0 -0.0 1.0
  outer loop
    vertex 141.2604548446672 -1.999999999999887 7.042882499999998
    vertex 136.2604548446672 1.127986593019159e-13 7.042882499999998
    vertex 136.2604548446672 -1.999999999999887 7.042882499999998
  endloop
endfacet
facet normal -0.0 -0.0 1.0
  outer loop
    vertex 136.2604548446672 1.127986593019159e-13 7.042882499999998
    vertex 141.2604548446672 -1.999999999999887 7.042882499999998
    vertex 141.2604548446672 1.127986593019159e-13 7.042882499999998
  endloop
endfacet
facet normal -0.7004399522573101 2.8811597989150344e-16 0.71371133750402
  outer loop
    vertex 123.95338218793313 1.127986593019159e-13 36.2211493346518
    vertex 121.61693106580846 3.000000000000113 33.92814426882808
    vertex 121.61693106580846 1.127986593019159e-13 33.92814426882808
  endloop
endfacet
facet normal -0.7004399522573101 2.8811597989150344e-16 0.71371133750402
  outer loop
    vertex 121.61693106580846 3.000000000000113 33.92814426882808
    vertex 123.95338218793313 1.127986593019159e-13 36.2211493346518
    vertex 123.95338218793313 3.000000000000113 36.2211493346518
  endloop
endfacet
facet normal 0.8795164995549414 -1.0670290951394632e-16 0.47586839253161456
  outer loop
    vertex 159.9168226686558 9.023892744153272e-14 20.54553465930613
    vertex 158.68643867190627 -1.9999999999999096 22.819573118075333
    vertex 159.9168226686558 -1.9999999999999096 20.54553465930613
  endloop
endfacet
facet normal 0.8795164995549414 -1.0670290951394632e-16 0.47586839253161456
  outer loop
    vertex 158.68643867190627 -1.9999999999999096 22.819573118075333
    vertex 159.9168226686558 9.023892744153272e-14 20.54553465930613
    vertex 158.68643867190627 9.023892744153272e-14 22.819573118075333
  endloop
endfacet
facet normal 2.687727045442622e-16 1.0 -2.7252728022721507e-16
  outer loop
    vertex 101.3997879646672 1.071587263368201e-13 6.260340000000002
    vertex 171.12112172466718 1.071587263368201e-13 4.173560000000003
    vertex 101.3997879646672 1.071587263368201e-13 4.173560000000003
  endloop
endfacet
facet normal 2.687727045442622e-16 1.0 -2.7252728022721507e-16
  outer loop
    vertex 171.12112172466718 1.071587263368201e-13 4.173560000000003
    vertex 101.3997879646672 1.071587263368201e-13 6.260340000000002
    vertex 171.12112172466718 1.071587263368201e-13 6.260340000000002
  endloop
endfacet
facet normal 2.687727045442622e-16 1.0 -2.7252728022721507e-16
  outer loop
    vertex 171.12112172466718 1.071587263368201e-13 6.260340000000002
    vertex 101.3997879646672 1.071587263368201e-13 6.260340000000002
    vertex 119.7187612542658 1.071587263368201e-13 7.042882499999998
  endloop
endfacet
facet normal 2.687727045442622e-16 1.0 -2.7252728022721507e-16
  outer loop
    vertex 119.7187612542658 1.071587263368201e-13 7.042882499999998
    vertex 101.3997879646672 1.071587263368201e-13 6.260340000000002
    vertex 103.259252624645 1.127986593019159e-13 8.101044473497089
  endloop
endfacet
facet normal 2.687727045442622e-16 1.0 -2.7252728022721507e-16
  outer loop
    vertex 119.7187612542658 1.071587263368201e-13 7.042882499999998
    vertex 103.259252624645 1.127986593019159e-13 8.101044473497089
    vertex 105.0372990526331 1.127986593019159e-13 10.014122321653446
  endloop
endfacet
facet normal 2.687727045442622e-16 1.0 -2.7252728022721507e-16
  outer loop
    vertex 119.7187612542658 1.071587263368201e-13 7.042882499999998
    vertex 105.0372990526331 1.127986593019159e-13 10.014122321653446
    vertex 106.73085933738737 1.127986593019159e-13 11.996272644701257
  endloop
endfacet
facet normal 2.687727045442622e-16 1.0 -2.7252728022721507e-16
  outer loop
    vertex 119.7187612542658 1.071587263368201e-13 7.042882499999998
    vertex 106.73085933738737 1.127986593019159e-13 11.996272644701257
    vertex 108.33701134337834 1.127986593019159e-13 14.04407536250767
  endloop
endfacet
facet normal 2.687727045442622e-16 1.0 -2.7252728022721507e-16
  outer loop
    vertex 119.7187612542658 1.071587263368201e-13 7.042882499999998
    vertex 108.33701134337834 1.127986593019159e-13 14.04407536250767
    vertex 109.85298375275885 1.127986593019159e-13 16.153997115715537
  endloop
endfacet
facet normal 2.687727045442622e-16 1.0 -2.7252728022721507e-16
  outer loop
    vertex 119.7187612542658 1.071587263368201e-13 7.042882499999998
    vertex 109.85298375275885 1.127986593019159e-13 16.153997115715537
    vertex 111.27616084710476 1.127986593019159e-13 18.32239736234067
  endloop
endfacet
facet normal 2.687727045442622e-16 1.0 -2.7252728022721507e-16
  outer loop
    vertex 119.7187612542658 1.071587263368201e-13 7.042882499999998
    vertex 111.27616084710476 1.127986593019159e-13 18.32239736234067
    vertex 119.7187612542658 1.127986593019159e-13 31.420681496893042
  endloop
endfacet
facet normal 2.687727045442622e-16 1.0 -2.7252728022721507e-16
  outer loop
    vertex 119.7187612542658 1.127986593019159e-13 31.420681496893042
    vertex 111.27616084710476 1.127986593019159e-13 18.32239736234067
    vertex 112.60408702067865 1.127986593019159e-13 20.54553465930613
  endloop
endfacet
facet normal 2.687727045442622e-16 1.0 -2.7252728022721507e-16
  outer loop
    vertex 119.7187612542658 1.127986593019159e-13 31.420681496893042
    vertex 112.60408702067865 1.127986593019159e-13 20.54553465930613
    vertex 113.83447101742816 1.127986593019159e-13 22.819573118075333
  endloop
endfacet
facet normal 2.687727045442622e-16 1.0 -2.7252728022721507e-16
  outer loop
    vertex 119.7187612542658 1.127986593019159e-13 31.420681496893042
    vertex 113.83447101742816 1.127986593019159e-13 22.819573118075333
    vertex 114.96518988440968 1.127986593019159e-13 25.140589023244967
  endloop
endfacet
facet normal 2.687727045442622e-16 1.0 -2.7252728022721507e-16
  outer loop
    vertex 119.7187612542658 1.127986593019159e-13 31.420681496893042
    vertex 114.96518988440968 1.127986593019159e-13 25.140589023244967
    vertex 115.99429263481468 1.127986593019159e-13 27.504577602677898
  endloop
endfacet
facet normal 2.687727045442622e-16 1.0 -2.7252728022721507e-16
  outer loop
    vertex 119.7187612542658 1.127986593019159e-13 31.420681496893042
    vertex 115.99429263481468 1.127986593019159e-13 27.504577602677898
    vertex 116.9200036142791 1.127986593019159e-13 29.90745993749457
  endloop
endfacet
facet normal 2.687727045442622e-16 1.0 -2.7252728022721507e-16
  outer loop
    vertex 119.7187612542658 1.127986593019159e-13 31.420681496893042
    vertex 116.9200036142791 1.127986593019159e-13 29.90745993749457
    vertex 117.74072556466722 1.127986593019159e-13 32.34509
  endloop
endfacet
facet normal 2.687727045442622e-16 1.0 -2.7252728022721507e-16
  outer loop
    vertex 119.7187612542658 1.127986593019159e-13 31.420681496893042
    vertex 117.74072556466722 1.127986593019159e-13 32.34509
    vertex 121.5404961233336 1.127986593019159e-13 33.99324329430328
  endloop
endfacet
facet normal 2.687727045442622e-16 1.0 -2.7252728022721507e-16
  outer loop
    vertex 121.5404961233336 1.127986593019159e-13 33.99324329430328
    vertex 117.74072556466722 1.127986593019159e-13 32.34509
    vertex 119.84598301496031 1.127986593019159e-13 35.31802803961095
  endloop
endfacet
facet normal 2.687727045442622e-16 1.0 -2.7252728022721507e-16
  outer loop
    vertex 121.5404961233336 1.127986593019159e-13 33.99324329430328
    vertex 119.84598301496031 1.127986593019159e-13 35.31802803961095
    vertex 123.88963262125522 1.127986593019159e-13 36.298697852730925
  endloop
endfacet
facet normal 2.687727045442622e-16 1.0 -2.7252728022721507e-16
  outer loop
    vertex 123.88963262125522 1.127986593019159e-13 36.298697852730925
    vertex 119.84598301496031 1.127986593019159e-13 35.31802803961095
    vertex 122.46554436015528 1.127986593019159e-13 37.88887892448024
  endloop
endfacet
facet normal 2.687727045442622e-16 1.0 -2.7252728022721507e-16
  outer loop
    vertex 123.88963262125522 1.127986593019159e-13 36.298697852730925
    vertex 122.46554436015528 1.127986593019159e-13 37.88887892448024
    vertex 126.62637598942194 1.127986593019159e-13 38.17133857146883
  endloop
endfacet
facet normal 2.687727045442622e-16 1.0 -2.7252728022721507e-16
  outer loop
    vertex 126.62637598942194 1.127986593019159e-13 38.17133857146883
    vertex 122.46554436015528 1.127986593019159e-13 37.88887892448024
    vertex 125.51733260034945 1.127986593019159e-13 39.97709186765489
  endloop
endfacet
facet normal 2.687727045442622e-16 1.0 -2.7252728022721507e-16
  outer loop
    vertex 126.62637598942194 1.127986593019159e-13 38.17133857146883
    vertex 125.51733260034945 1.127986593019159e-13 39.97709186765489
    vertex 128.4794346126645 1.071587263368201e-13 39.01361970252308
  endloop
endfacet
facet normal 2.687727045442622e-16 1.0 -2.7252728022721507e-16
  outer loop
    vertex 128.4794346126645 1.071587263368201e-13 39.01361970252308
    vertex 125.51733260034945 1.127986593019159e-13 39.97709186765489
    vertex 129.66497764035574 1.127986593019159e-13 39.55249122539479
  endloop
endfacet
facet normal 2.687727045442622e-16 1.0 -2.7252728022721507e-16
  outer loop
    vertex 129.66497764035574 1.127986593019159e-13 39.55249122539479
    vertex 125.51733260034945 1.127986593019159e-13 39.97709186765489
    vertex 132.91023105871193 1.127986593019159e-13 40.39888106301282
  endloop
endfacet
facet normal 2.687727045442622e-16 1.0 -2.7252728022721507e-16
  outer loop
    vertex 132.91023105871193 1.127986593019159e-13 40.39888106301282
    vertex 125.51733260034945 1.127986593019159e-13 39.97709186765489
    vertex 127.5452881246672 1.127986593019159e-13 40.89886986826728
  endloop
endfacet
facet normal 2.687727045442622e-16 1.0 -2.7252728022721507e-16
  outer loop
    vertex 132.91023105871193 1.127986593019159e-13 40.39888106301282
    vertex 127.5452881246672 1.127986593019159e-13 40.89886986826728
    vertex 136.2604548446672 1.127986593019159e-13 40.6839887058983
  endloop
endfacet
facet normal 2.687727045442622e-16 1.0 -2.7252728022721507e-16
  outer loop
    vertex 171.12112172466718 1.071587263368201e-13 6.260340000000002
    vertex 152.80214843506855 1.127986593019159e-13 7.042882499999998
    vertex 169.26165706468942 9.023892744153272e-14 8.10104447349709
  endloop
endfacet
facet normal 2.687727045442622e-16 1.0 -2.7252728022721507e-16
  outer loop
    vertex 152.80214843506855 1.127986593019159e-13 7.042882499999998
    vertex 171.12112172466718 1.071587263368201e-13 6.260340000000002
    vertex 119.7187612542658 1.071587263368201e-13 7.042882499999998
  endloop
endfacet
facet normal 2.687727045442622e-16 1.0 -2.7252728022721507e-16
  outer loop
    vertex 152.80214843506855 1.127986593019159e-13 7.042882499999998
    vertex 119.7187612542658 1.071587263368201e-13 7.042882499999998
    vertex 131.2604548446672 1.1194627787339513e-13 7.042882499999998
  endloop
endfacet
facet normal 2.687727045442622e-16 1.0 -2.7252728022721507e-16
  outer loop
    vertex 152.80214843506855 1.127986593019159e-13 7.042882499999998
    vertex 131.2604548446672 1.1194627787339513e-13 7.042882499999998
    vertex 136.2604548446672 1.127986593019159e-13 7.042882499999998
  endloop
endfacet
facet normal 2.687727045442622e-16 1.0 -2.7252728022721507e-16
  outer loop
    vertex 152.80214843506855 1.127986593019159e-13 7.042882499999998
    vertex 136.2604548446672 1.127986593019159e-13 7.042882499999998
    vertex 141.2604548446672 1.127986593019159e-13 7.042882499999998
  endloop
endfacet
facet normal 2.687727045442622e-16 1.0 -2.7252728022721507e-16
  outer loop
    vertex 169.26165706468942 9.023892744153272e-14 8.10104447349709
    vertex 152.80214843506855 1.127986593019159e-13 7.042882499999998
    vertex 167.48361063670134 9.023892744153272e-14 10.014122321653447
  endloop
endfacet
facet normal 2.687727045442622e-16 1.0 -2.7252728022721507e-16
  outer loop
    vertex 167.48361063670134 9.023892744153272e-14 10.014122321653447
    vertex 152.80214843506855 1.127986593019159e-13 7.042882499999998
    vertex 165.7900503519471 9.023892744153272e-14 11.99627264470126
  endloop
endfacet
facet normal 2.687727045442622e-16 1.0 -2.7252728022721507e-16
  outer loop
    vertex 165.7900503519471 9.023892744153272e-14 11.99627264470126
    vertex 152.80214843506855 1.127986593019159e-13 7.042882499999998
    vertex 164.1838983459561 9.023892744153272e-14 14.044075362507673
  endloop
endfacet
facet normal 2.687727045442622e-16 1.0 -2.7252728022721507e-16
  outer loop
    vertex 164.1838983459561 9.023892744153272e-14 14.044075362507673
    vertex 152.80214843506855 1.127986593019159e-13 7.042882499999998
    vertex 162.66792593657559 6.767919558114953e-14 16.15399711571554
  endloop
endfacet
facet normal 2.687727045442622e-16 1.0 -2.7252728022721507e-16
  outer loop
    vertex 162.66792593657559 6.767919558114953e-14 16.15399711571554
    vertex 152.80214843506855 1.127986593019159e-13 7.042882499999998
    vertex 161.24474884222965 1.3535839116229907e-13 18.32239736234067
  endloop
endfacet
facet normal 2.687727045442622e-16 1.0 -2.7252728022721507e-16
  outer loop
    vertex 161.24474884222965 1.3535839116229907e-13 18.32239736234067
    vertex 152.80214843506855 1.127986593019159e-13 7.042882499999998
    vertex 152.8021484350686 4.511946372076636e-14 31.420681496893057
  endloop
endfacet
facet normal 2.687727045442622e-16 1.0 -2.7252728022721507e-16
  outer loop
    vertex 161.24474884222965 1.3535839116229907e-13 18.32239736234067
    vertex 152.8021484350686 4.511946372076636e-14 31.420681496893057
    vertex 159.9168226686558 9.023892744153272e-14 20.54553465930613
  endloop
endfacet
facet normal 2.687727045442622e-16 1.0 -2.7252728022721507e-16
  outer loop
    vertex 159.9168226686558 9.023892744153272e-14 20.54553465930613
    vertex 152.8021484350686 4.511946372076636e-14 31.420681496893057
    vertex 158.68643867190627 9.023892744153272e-14 22.819573118075333
  endloop
endfacet
facet normal 2.687727045442622e-16 1.0 -2.7252728022721507e-16
  outer loop
    vertex 158.68643867190627 9.023892744153272e-14 22.819573118075333
    vertex 152.8021484350686 4.511946372076636e-14 31.420681496893057
    vertex 157.55571980492473 9.023892744153272e-14 25.14058902324497
  endloop
endfacet
facet normal 2.687727045442622e-16 1.0 -2.7252728022721507e-16
  outer loop
    vertex 157.55571980492473 9.023892744153272e-14 25.14058902324497
    vertex 152.8021484350686 4.511946372076636e-14 31.420681496893057
    vertex 156.5266170545197 9.023892744153272e-14 27.504577602677905
  endloop
endfacet
facet normal 2.687727045442622e-16 1.0 -2.7252728022721507e-16
  outer loop
    vertex 156.5266170545197 9.023892744153272e-14 27.504577602677905
    vertex 152.8021484350686 4.511946372076636e-14 31.420681496893057
    vertex 155.60090607505532 9.023892744153272e-14 29.90745993749458
  endloop
endfacet
facet normal 2.687727045442622e-16 1.0 -2.7252728022721507e-16
  outer loop
    vertex 155.60090607505532 9.023892744153272e-14 29.90745993749458
    vertex 152.8021484350686 4.511946372076636e-14 31.420681496893057
    vertex 154.78018412466722 1.127986593019159e-13 32.34509
  endloop
endfacet
facet normal 2.687727045442622e-16 1.0 -2.7252728022721507e-16
  outer loop
    vertex 154.78018412466722 1.127986593019159e-13 32.34509
    vertex 152.8021484350686 4.511946372076636e-14 31.420681496893057
    vertex 150.98041356600083 1.127986593019159e-13 33.993243294303284
  endloop
endfacet
facet normal 2.687727045442622e-16 1.0 -2.7252728022721507e-16
  outer loop
    vertex 154.78018412466722 1.127986593019159e-13 32.34509
    vertex 150.98041356600083 1.127986593019159e-13 33.993243294303284
    vertex 152.6749266743741 1.127986593019159e-13 35.31802803961095
  endloop
endfacet
facet normal 2.687727045442622e-16 1.0 -2.7252728022721507e-16
  outer loop
    vertex 152.6749266743741 1.127986593019159e-13 35.31802803961095
    vertex 150.98041356600083 1.127986593019159e-13 33.993243294303284
    vertex 148.6312770680792 1.127986593019159e-13 36.29869785273093
  endloop
endfacet
facet normal 2.687727045442622e-16 1.0 -2.7252728022721507e-16
  outer loop
    vertex 152.6749266743741 1.127986593019159e-13 35.31802803961095
    vertex 148.6312770680792 1.127986593019159e-13 36.29869785273093
    vertex 150.05536532917912 1.127986593019159e-13 37.888878924480245
  endloop
endfacet
facet normal 2.687727045442622e-16 1.0 -2.7252728022721507e-16
  outer loop
    vertex 150.05536532917912 1.127986593019159e-13 37.888878924480245
    vertex 148.6312770680792 1.127986593019159e-13 36.29869785273093
    vertex 145.89453369991247 1.127986593019159e-13 38.17133857146883
  endloop
endfacet
facet normal 2.687727045442622e-16 1.0 -2.7252728022721507e-16
  outer loop
    vertex 150.05536532917912 1.127986593019159e-13 37.888878924480245
    vertex 145.89453369991247 1.127986593019159e-13 38.17133857146883
    vertex 147.00357708898494 1.127986593019159e-13 39.97709186765489
  endloop
endfacet
facet normal 2.687727045442622e-16 1.0 -2.7252728022721507e-16
  outer loop
    vertex 147.00357708898494 1.127986593019159e-13 39.97709186765489
    vertex 145.89453369991247 1.127986593019159e-13 38.17133857146883
    vertex 142.85593204897867 1.127986593019159e-13 39.55249122539479
  endloop
endfacet
facet normal 2.687727045442622e-16 1.0 -2.7252728022721507e-16
  outer loop
    vertex 147.00357708898494 1.127986593019159e-13 39.97709186765489
    vertex 142.85593204897867 1.127986593019159e-13 39.55249122539479
    vertex 139.6106786306225 1.127986593019159e-13 40.39888106301282
  endloop
endfacet
facet normal 2.687727045442622e-16 1.0 -2.7252728022721507e-16
  outer loop
    vertex 147.00357708898494 1.127986593019159e-13 39.97709186765489
    vertex 139.6106786306225 1.127986593019159e-13 40.39888106301282
    vertex 143.61518163590077 1.127986593019159e-13 41.51723826069713
  endloop
endfacet
facet normal 2.687727045442622e-16 1.0 -2.7252728022721507e-16
  outer loop
    vertex 143.61518163590077 1.127986593019159e-13 41.51723826069713
    vertex 139.6106786306225 1.127986593019159e-13 40.39888106301282
    vertex 136.2604548446672 1.127986593019159e-13 40.6839887058983
  endloop
endfacet
facet normal 2.687727045442622e-16 1.0 -2.7252728022721507e-16
  outer loop
    vertex 143.61518163590077 1.127986593019159e-13 41.51723826069713
    vertex 136.2604548446672 1.127986593019159e-13 40.6839887058983
    vertex 127.5452881246672 1.127986593019159e-13 40.89886986826728
  endloop
endfacet
facet normal 2.687727045442622e-16 1.0 -2.7252728022721507e-16
  outer loop
    vertex 143.61518163590077 1.127986593019159e-13 41.51723826069713
    vertex 127.5452881246672 1.127986593019159e-13 40.89886986826728
    vertex 128.90572805343365 1.127986593019159e-13 41.51723826069713
  endloop
endfacet
facet normal 2.687727045442622e-16 1.0 -2.7252728022721507e-16
  outer loop
    vertex 143.61518163590077 1.127986593019159e-13 41.51723826069713
    vertex 128.90572805343365 1.127986593019159e-13 41.51723826069713
    vertex 132.52456434396376 1.127986593019159e-13 42.46106170541889
  endloop
endfacet
facet normal 2.687727045442622e-16 1.0 -2.7252728022721507e-16
  outer loop
    vertex 143.61518163590077 1.127986593019159e-13 41.51723826069713
    vertex 132.52456434396376 1.127986593019159e-13 42.46106170541889
    vertex 139.99634534537066 1.127986593019159e-13 42.46106170541889
  endloop
endfacet
facet normal 2.687727045442622e-16 1.0 -2.7252728022721507e-16
  outer loop
    vertex 139.99634534537066 1.127986593019159e-13 42.46106170541889
    vertex 132.52456434396376 1.127986593019159e-13 42.46106170541889
    vertex 136.2604548446672 1.127986593019159e-13 42.77899
  endloop
endfacet
facet normal 0.836018829561467 -7.516311792893065e-17 0.5487007532514191
  outer loop
    vertex 162.66792593657559 6.767919558114953e-14 16.15399711571554
    vertex 161.24474884222965 -1.9999999999998646 18.32239736234067
    vertex 162.66792593657559 -1.9999999999999323 16.15399711571554
  endloop
endfacet
facet normal 0.836018829561467 -7.516311792893065e-17 0.5487007532514191
  outer loop
    vertex 161.24474884222965 -1.9999999999998646 18.32239736234067
    vertex 162.66792593657559 6.767919558114953e-14 16.15399711571554
    vertex 161.24474884222965 1.3535839116229907e-13 18.32239736234067
  endloop
endfacet
facet normal -0.8585060077377789 3.704959260593002e-16 0.5128035049394076
  outer loop
    vertex 112.60408702067865 1.127986593019159e-13 20.54553465930613
    vertex 111.27616084710476 -1.999999999999887 18.32239736234067
    vertex 112.60408702067865 -1.999999999999887 20.54553465930613
  endloop
endfacet
facet normal -0.8585060077377789 3.704959260593002e-16 0.5128035049394076
  outer loop
    vertex 111.27616084710476 -1.999999999999887 18.32239736234067
    vertex 112.60408702067865 1.127986593019159e-13 20.54553465930613
    vertex 111.27616084710476 1.127986593019159e-13 18.32239736234067
  endloop
endfacet
facet normal 1.4659166703172408e-34 7.016741349318862e-17 -1.0
  outer loop
    vertex 141.3604548446672 3.000000000000113 11.142882499999997
    vertex 131.1604548446672 1.1281996883762892e-13 11.142882499999997
    vertex 131.1604548446672 3.000000000000113 11.142882499999997
  endloop
endfacet
facet normal 1.4659166703172408e-34 7.016741349318862e-17 -1.0
  outer loop
    vertex 131.1604548446672 1.1281996883762892e-13 11.142882499999997
    vertex 141.3604548446672 3.000000000000113 11.142882499999997
    vertex 141.3604548446672 1.127986593019159e-13 11.142882499999997
  endloop
endfacet
facet normal 4.828326216044955e-16 1.0 7.016741349318862e-17
  outer loop
    vertex 119.81876125426581 3.000000000000113 31.388859853199502
    vertex 131.1604548446672 3.0000000000001124 7.142882499999998
    vertex 119.81876125426581 3.0000000000001075 7.142882499999998
  endloop
endfacet
facet normal 4.828326216044955e-16 1.0 7.016741349318862e-17
  outer loop
    vertex 131.1604548446672 3.0000000000001124 7.142882499999998
    vertex 119.81876125426581 3.000000000000113 31.388859853199502
    vertex 131.1604548446672 3.000000000000113 11.142882499999997
  endloop
endfacet
facet normal 4.828326216044955e-16 1.0 7.016741349318862e-17
  outer loop
    vertex 131.1604548446672 3.000000000000113 11.142882499999997
    vertex 119.81876125426581 3.000000000000113 31.388859853199502
    vertex 141.3604548446672 3.000000000000113 11.142882499999997
  endloop
endfacet
facet normal 4.828326216044955e-16 1.0 7.016741349318862e-17
  outer loop
    vertex 141.3604548446672 3.000000000000113 11.142882499999997
    vertex 152.70214843506855 3.000000000000113 7.142882499999998
    vertex 141.3604548446672 3.000000000000113 7.142882499999998
  endloop
endfacet
facet normal 4.828326216044955e-16 1.0 7.016741349318862e-17
  outer loop
    vertex 152.70214843506855 3.000000000000113 7.142882499999998
    vertex 141.3604548446672 3.000000000000113 11.142882499999997
    vertex 152.7021484350686 3.0000000000000493 31.388859853199516
  endloop
endfacet
facet normal 4.828326216044955e-16 1.0 7.016741349318862e-17
  outer loop
    vertex 152.7021484350686 3.0000000000000493 31.388859853199516
    vertex 141.3604548446672 3.000000000000113 11.142882499999997
    vertex 119.81876125426581 3.000000000000113 31.388859853199502
  endloop
endfacet
facet normal 4.828326216044955e-16 1.0 7.016741349318862e-17
  outer loop
    vertex 152.7021484350686 3.0000000000000493 31.388859853199516
    vertex 119.81876125426581 3.000000000000113 31.388859853199502
    vertex 121.61693106580846 3.000000000000113 33.92814426882808
  endloop
endfacet
facet normal 4.828326216044955e-16 1.0 7.016741349318862e-17
  outer loop
    vertex 152.7021484350686 3.0000000000000493 31.388859853199516
    vertex 121.61693106580846 3.000000000000113 33.92814426882808
    vertex 150.90397862352594 3.000000000000101 33.928144268828085
  endloop
endfacet
facet normal 4.828326216044955e-16 1.0 7.016741349318862e-17
  outer loop
    vertex 150.90397862352594 3.000000000000101 33.928144268828085
    vertex 121.61693106580846 3.000000000000113 33.92814426882808
    vertex 123.95338218793313 3.000000000000113 36.2211493346518
  endloop
endfacet
facet normal 4.828326216044955e-16 1.0 7.016741349318862e-17
  outer loop
    vertex 150.90397862352594 3.000000000000101 33.928144268828085
    vertex 123.95338218793313 3.000000000000113 36.2211493346518
    vertex 148.5675275014013 3.000000000000113 36.221149334651805
  endloop
endfacet
facet normal 4.828326216044955e-16 1.0 7.016741349318862e-17
  outer loop
    vertex 148.5675275014013 3.000000000000113 36.221149334651805
    vertex 123.95338218793313 3.000000000000113 36.2211493346518
    vertex 126.67567120805404 3.000000000000111 38.08389953861649
  endloop
endfacet
facet normal 4.828326216044955e-16 1.0 7.016741349318862e-17
  outer loop
    vertex 148.5675275014013 3.000000000000113 36.221149334651805
    vertex 126.67567120805404 3.000000000000111 38.08389953861649
    vertex 145.84523848128035 3.000000000000113 38.08389953861649
  endloop
endfacet
facet normal 4.828326216044955e-16 1.0 7.016741349318862e-17
  outer loop
    vertex 145.84523848128035 3.000000000000113 38.08389953861649
    vertex 126.67567120805404 3.000000000000111 38.08389953861649
    vertex 128.52081416431193 3.0000000000001075 38.922582717151975
  endloop
endfacet
facet normal 4.828326216044955e-16 1.0 7.016741349318862e-17
  outer loop
    vertex 145.84523848128035 3.000000000000113 38.08389953861649
    vertex 128.52081416431193 3.0000000000001075 38.922582717151975
    vertex 142.82237783714407 3.000000000000113 39.457897344421056
  endloop
endfacet
facet normal 4.828326216044955e-16 1.0 7.016741349318862e-17
  outer loop
    vertex 142.82237783714407 3.000000000000113 39.457897344421056
    vertex 128.52081416431193 3.0000000000001075 38.922582717151975
    vertex 129.69853185219034 3.0000000000001106 39.457897344421056
  endloop
endfacet
facet normal 4.828326216044955e-16 1.0 7.016741349318862e-17
  outer loop
    vertex 142.82237783714407 3.000000000000113 39.457897344421056
    vertex 129.69853185219034 3.0000000000001106 39.457897344421056
    vertex 132.92721183828792 3.000000000000113 40.299964689207314
  endloop
endfacet
facet normal 4.828326216044955e-16 1.0 7.016741349318862e-17
  outer loop
    vertex 142.82237783714407 3.000000000000113 39.457897344421056
    vertex 132.92721183828792 3.000000000000113 40.299964689207314
    vertex 139.5936978510465 3.000000000000113 40.299964689207314
  endloop
endfacet
facet normal 4.828326216044955e-16 1.0 7.016741349318862e-17
  outer loop
    vertex 139.5936978510465 3.000000000000113 40.299964689207314
    vertex 132.92721183828792 3.000000000000113 40.299964689207314
    vertex 136.2604548446672 3.000000000000113 40.583627249510684
  endloop
endfacet
facet normal 0.564711048470551 -3.3056928916511704e-16 0.8252886959938874
  outer loop
    vertex 148.5675275014013 1.127986593019159e-13 36.221149334651805
    vertex 145.84523848128035 3.000000000000113 38.08389953861649
    vertex 145.84523848128035 1.127986593019159e-13 38.08389953861649
  endloop
endfacet
facet normal 0.564711048470551 -3.3056928916511704e-16 0.8252886959938874
  outer loop
    vertex 145.84523848128035 3.000000000000113 38.08389953861649
    vertex 148.5675275014013 1.127986593019159e-13 36.221149334651805
    vertex 148.5675275014013 3.000000000000113 36.221149334651805
  endloop
endfacet
facet normal -0.8160987516986908 3.5348847625263443e-16 0.5779124738884243
  outer loop
    vertex 121.61693106580846 1.127986593019159e-13 33.92814426882808
    vertex 119.81876125426581 3.000000000000113 31.388859853199502
    vertex 119.81876125426581 1.1275862637149642e-13 31.388859853199502
  endloop
endfacet
facet normal -0.8160987516986908 3.5348847625263443e-16 0.5779124738884243
  outer loop
    vertex 119.81876125426581 3.000000000000113 31.388859853199502
    vertex 121.61693106580846 1.127986593019159e-13 33.92814426882808
    vertex 121.61693106580846 3.000000000000113 33.92814426882808
  endloop
endfacet
facet normal 1.717585060994547e-33 7.016741349318862e-17 -1.0
  outer loop
    vertex 152.70214843506855 3.000000000000113 7.142882499999998
    vertex 141.3604548446672 1.127986593019159e-13 7.142882499999998
    vertex 141.3604548446672 3.000000000000113 7.142882499999998
  endloop
endfacet
facet normal 1.717585060994547e-33 7.016741349318862e-17 -1.0
  outer loop
    vertex 141.3604548446672 1.127986593019159e-13 7.142882499999998
    vertex 152.70214843506855 3.000000000000113 7.142882499999998
    vertex 152.70214843506855 1.1252103294364715e-13 7.142882499999998
  endloop
endfacet
facet normal -1.0 4.828326216044956e-16 0.0
  outer loop
    vertex 141.3604548446672 3.000000000000113 11.142882499999997
    vertex 141.3604548446672 1.127986593019159e-13 7.142882499999998
    vertex 141.3604548446672 1.127986593019159e-13 11.142882499999997
  endloop
endfacet
facet normal -1.0 4.828326216044956e-16 0.0
  outer loop
    vertex 141.3604548446672 1.127986593019159e-13 7.142882499999998
    vertex 141.3604548446672 3.000000000000113 11.142882499999997
    vertex 141.3604548446672 3.000000000000113 7.142882499999998
  endloop
endfacet
facet normal -0.8989948207627058 3.6098111495931164e-16 0.43795925865522106
  outer loop
    vertex 114.96518988440968 1.127986593019159e-13 25.140589023244967
    vertex 113.83447101742816 -1.999999999999887 22.819573118075333
    vertex 114.96518988440968 -1.999999999999887 25.140589023244967
  endloop
endfacet
facet normal -0.8989948207627058 3.6098111495931164e-16 0.43795925865522106
  outer loop
    vertex 113.83447101742816 -1.999999999999887 22.819573118075333
    vertex 114.96518988440968 1.127986593019159e-13 25.140589023244967
    vertex 113.83447101742816 1.127986593019159e-13 22.819573118075333
  endloop
endfacet
facet normal 1.0 -4.828326216044956e-16 1.0789642387098137e-31
  outer loop
    vertex 131.1604548446672 3.0000000000001124 7.142882499999998
    vertex 131.1604548446672 1.1281996883762892e-13 11.142882499999997
    vertex 131.1604548446672 1.1192610691494084e-13 7.142882499999998
  endloop
endfacet
facet normal 1.0 -4.828326216044956e-16 1.0789642387098137e-31
  outer loop
    vertex 131.1604548446672 1.1281996883762892e-13 11.142882499999997
    vertex 131.1604548446672 3.0000000000001124 7.142882499999998
    vertex 131.1604548446672 3.000000000000113 11.142882499999997
  endloop
endfacet
facet normal -0.7004399522573092 3.8276495001634986e-16 0.713711337504021
  outer loop
    vertex 122.46554436015528 -1.999999999999887 37.88887892448024
    vertex 119.84598301496031 1.127986593019159e-13 35.31802803961095
    vertex 119.84598301496031 -1.999999999999887 35.31802803961095
  endloop
endfacet
facet normal -0.7004399522573092 3.8276495001634986e-16 0.713711337504021
  outer loop
    vertex 119.84598301496031 1.127986593019159e-13 35.31802803961095
    vertex 122.46554436015528 -1.999999999999887 37.88887892448024
    vertex 122.46554436015528 1.127986593019159e-13 37.88887892448024
  endloop
endfacet
facet normal -0.5647110484705558 3.7669259950493554e-16 0.8252886959938841
  outer loop
    vertex 125.51733260034945 -1.999999999999887 39.97709186765489
    vertex 122.46554436015528 1.127986593019159e-13 37.88887892448024
    vertex 122.46554436015528 -1.999999999999887 37.88887892448024
  endloop
endfacet
facet normal -0.5647110484705558 3.7669259950493554e-16 0.8252886959938841
  outer loop
    vertex 122.46554436015528 1.127986593019159e-13 37.88887892448024
    vertex 125.51733260034945 -1.999999999999887 39.97709186765489
    vertex 125.51733260034945 1.127986593019159e-13 39.97709186765489
  endloop
endfacet
facet normal 1.0 -4.828326216044954e-16 -1.8609051333957628e-15
  outer loop
    vertex 152.70214843506855 1.1252103294364715e-13 7.142882499999998
    vertex 152.7021484350686 3.0000000000000493 31.388859853199516
    vertex 152.7021484350686 4.9314954684333306e-14 31.388859853199516
  endloop
endfacet
facet normal 1.0 -4.828326216044954e-16 -1.8609051333957628e-15
  outer loop
    vertex 152.7021484350686 3.0000000000000493 31.388859853199516
    vertex 152.70214843506855 1.1252103294364715e-13 7.142882499999998
    vertex 152.70214843506855 3.000000000000113 7.142882499999998
  endloop
endfacet
facet normal 0.8160987516986903 -4.345897232890355e-16 0.5779124738884251
  outer loop
    vertex 152.7021484350686 3.0000000000000493 31.388859853199516
    vertex 150.90397862352594 1.0071418136953559e-13 33.928144268828085
    vertex 152.7021484350686 4.9314954684333306e-14 31.388859853199516
  endloop
endfacet
facet normal 0.8160987516986903 -4.345897232890355e-16 0.5779124738884251
  outer loop
    vertex 150.90397862352594 1.0071418136953559e-13 33.928144268828085
    vertex 152.7021484350686 3.0000000000000493 31.388859853199516
    vertex 150.90397862352594 3.000000000000101 33.928144268828085
  endloop
endfacet
facet normal -1.0 2.6877270454426237e-16 0.0
  outer loop
    vertex 101.3997879646672 1.071587263368201e-13 6.260340000000002
    vertex 101.3997879646672 -1.9999999999998928 4.173560000000004
    vertex 101.3997879646672 -1.9999999999998928 6.260340000000003
  endloop
endfacet
facet normal -1.0 2.6877270454426237e-16 0.0
  outer loop
    vertex 101.3997879646672 -1.9999999999998928 4.173560000000004
    vertex 101.3997879646672 1.071587263368201e-13 6.260340000000002
    vertex 101.3997879646672 1.071587263368201e-13 4.173560000000003
  endloop
endfacet
facet normal 0.5647110484705548 7.313476793802145e-17 0.8252886959938849
  outer loop
    vertex 150.05536532917912 -1.999999999999887 37.888878924480245
    vertex 147.00357708898494 1.127986593019159e-13 39.97709186765489
    vertex 147.00357708898494 -1.999999999999887 39.97709186765489
  endloop
endfacet
facet normal 0.5647110484705548 7.313476793802145e-17 0.8252886959938849
  outer loop
    vertex 147.00357708898494 1.127986593019159e-13 39.97709186765489
    vertex 150.05536532917912 -1.999999999999887 37.888878924480245
    vertex 150.05536532917912 1.127986593019159e-13 37.888878924480245
  endloop
endfacet
facet normal -2.687727045442621e-16 -1.0 2.7252728022721507e-16
  outer loop
    vertex 171.12112172466718 -1.9999999999998928 6.260340000000003
    vertex 101.3997879646672 -1.9999999999998928 4.173560000000004
    vertex 171.12112172466718 -1.9999999999998928 4.173560000000004
  endloop
endfacet
facet normal -2.687727045442621e-16 -1.0 2.7252728022721507e-16
  outer loop
    vertex 101.3997879646672 -1.9999999999998928 4.173560000000004
    vertex 171.12112172466718 -1.9999999999998928 6.260340000000003
    vertex 101.3997879646672 -1.9999999999998928 6.260340000000003
  endloop
endfacet
facet normal -2.687727045442621e-16 -1.0 2.7252728022721507e-16
  outer loop
    vertex 101.3997879646672 -1.9999999999998928 6.260340000000003
    vertex 171.12112172466718 -1.9999999999998928 6.260340000000003
    vertex 152.80214843506855 -1.999999999999887 7.042882499999998
  endloop
endfacet
facet normal -2.687727045442621e-16 -1.0 2.7252728022721507e-16
  outer loop
    vertex 152.80214843506855 -1.999999999999887 7.042882499999998
    vertex 171.12112172466718 -1.9999999999998928 6.260340000000003
    vertex 169.26165706468942 -1.9999999999999096 8.10104447349709
  endloop
endfacet
facet normal -2.687727045442621e-16 -1.0 2.7252728022721507e-16
  outer loop
    vertex 152.80214843506855 -1.999999999999887 7.042882499999998
    vertex 169.26165706468942 -1.9999999999999096 8.10104447349709
    vertex 167.48361063670134 -1.9999999999999096 10.014122321653447
  endloop
endfacet
facet normal -2.687727045442621e-16 -1.0 2.7252728022721507e-16
  outer loop
    vertex 152.80214843506855 -1.999999999999887 7.042882499999998
    vertex 167.48361063670134 -1.9999999999999096 10.014122321653447
    vertex 165.7900503519471 -1.9999999999999096 11.99627264470126
  endloop
endfacet
facet normal -2.687727045442621e-16 -1.0 2.7252728022721507e-16
  outer loop
    vertex 152.80214843506855 -1.999999999999887 7.042882499999998
    vertex 165.7900503519471 -1.9999999999999096 11.99627264470126
    vertex 164.1838983459561 -1.9999999999999096 14.044075362507673
  endloop
endfacet
facet normal -2.687727045442621e-16 -1.0 2.7252728022721507e-16
  outer loop
    vertex 152.80214843506855 -1.999999999999887 7.042882499999998
    vertex 164.1838983459561 -1.9999999999999096 14.044075362507673
    vertex 162.66792593657559 -1.9999999999999323 16.15399711571554
  endloop
endfacet
facet normal -2.687727045442621e-16 -1.0 2.7252728022721507e-16
  outer loop
    vertex 152.80214843506855 -1.999999999999887 7.042882499999998
    vertex 162.66792593657559 -1.9999999999999323 16.15399711571554
    vertex 161.24474884222965 -1.9999999999998646 18.32239736234067
  endloop
endfacet
facet normal -2.687727045442621e-16 -1.0 2.7252728022721507e-16
  outer loop
    vertex 152.80214843506855 -1.999999999999887 7.042882499999998
    vertex 161.24474884222965 -1.9999999999998646 18.32239736234067
    vertex 152.8021484350686 -1.9999999999999547 31.420681496893057
  endloop
endfacet
facet normal -2.687727045442621e-16 -1.0 2.7252728022721507e-16
  outer loop
    vertex 152.8021484350686 -1.9999999999999547 31.420681496893057
    vertex 161.24474884222965 -1.9999999999998646 18.32239736234067
    vertex 159.9168226686558 -1.9999999999999096 20.54553465930613
  endloop
endfacet
facet normal -2.687727045442621e-16 -1.0 2.7252728022721507e-16
  outer loop
    vertex 152.8021484350686 -1.9999999999999547 31.420681496893057
    vertex 159.9168226686558 -1.9999999999999096 20.54553465930613
    vertex 158.68643867190627 -1.9999999999999096 22.819573118075333
  endloop
endfacet
facet normal -2.687727045442621e-16 -1.0 2.7252728022721507e-16
  outer loop
    vertex 152.8021484350686 -1.9999999999999547 31.420681496893057
    vertex 158.68643867190627 -1.9999999999999096 22.819573118075333
    vertex 157.55571980492473 -1.9999999999999096 25.14058902324497
  endloop
endfacet
facet normal -2.687727045442621e-16 -1.0 2.7252728022721507e-16
  outer loop
    vertex 152.8021484350686 -1.9999999999999547 31.420681496893057
    vertex 157.55571980492473 -1.9999999999999096 25.14058902324497
    vertex 156.5266170545197 -1.9999999999999096 27.504577602677905
  endloop
endfacet
facet normal -2.687727045442621e-16 -1.0 2.7252728022721507e-16
  outer loop
    vertex 152.8021484350686 -1.9999999999999547 31.420681496893057
    vertex 156.5266170545197 -1.9999999999999096 27.504577602677905
    vertex 155.60090607505532 -1.9999999999999096 29.90745993749458
  endloop
endfacet
facet normal -2.687727045442621e-16 -1.0 2.7252728022721507e-16
  outer loop
    vertex 152.8021484350686 -1.9999999999999547 31.420681496893057
    vertex 155.60090607505532 -1.9999999999999096 29.90745993749458
    vertex 154.78018412466722 -1.999999999999887 32.34509
  endloop
endfacet
facet normal -2.687727045442621e-16 -1.0 2.7252728022721507e-16
  outer loop
    vertex 152.8021484350686 -1.9999999999999547 31.420681496893057
    vertex 154.78018412466722 -1.999999999999887 32.34509
    vertex 150.98041356600083 -1.999999999999887 33.993243294303284
  endloop
endfacet
facet normal -2.687727045442621e-16 -1.0 2.7252728022721507e-16
  outer loop
    vertex 150.98041356600083 -1.999999999999887 33.993243294303284
    vertex 154.78018412466722 -1.999999999999887 32.34509
    vertex 152.6749266743741 -1.999999999999887 35.31802803961095
  endloop
endfacet
facet normal -2.687727045442621e-16 -1.0 2.7252728022721507e-16
  outer loop
    vertex 150.98041356600083 -1.999999999999887 33.993243294303284
    vertex 152.6749266743741 -1.999999999999887 35.31802803961095
    vertex 148.6312770680792 -1.999999999999887 36.29869785273093
  endloop
endfacet
facet normal -2.687727045442621e-16 -1.0 2.7252728022721507e-16
  outer loop
    vertex 148.6312770680792 -1.999999999999887 36.29869785273093
    vertex 152.6749266743741 -1.999999999999887 35.31802803961095
    vertex 150.05536532917912 -1.999999999999887 37.888878924480245
  endloop
endfacet
facet normal -2.687727045442621e-16 -1.0 2.7252728022721507e-16
  outer loop
    vertex 148.6312770680792 -1.999999999999887 36.29869785273093
    vertex 150.05536532917912 -1.999999999999887 37.888878924480245
    vertex 145.89453369991247 -1.999999999999887 38.17133857146883
  endloop
endfacet
facet normal -2.687727045442621e-16 -1.0 2.7252728022721507e-16
  outer loop
    vertex 145.89453369991247 -1.999999999999887 38.17133857146883
    vertex 150.05536532917912 -1.999999999999887 37.888878924480245
    vertex 147.00357708898494 -1.999999999999887 39.97709186765489
  endloop
endfacet
facet normal -2.687727045442621e-16 -1.0 2.7252728022721507e-16
  outer loop
    vertex 145.89453369991247 -1.999999999999887 38.17133857146883
    vertex 147.00357708898494 -1.999999999999887 39.97709186765489
    vertex 142.85593204897867 -1.999999999999887 39.55249122539479
  endloop
endfacet
facet normal -2.687727045442621e-16 -1.0 2.7252728022721507e-16
  outer loop
    vertex 142.85593204897867 -1.999999999999887 39.55249122539479
    vertex 147.00357708898494 -1.999999999999887 39.97709186765489
    vertex 139.6106786306225 -1.999999999999887 40.39888106301282
  endloop
endfacet
facet normal -2.687727045442621e-16 -1.0 2.7252728022721507e-16
  outer loop
    vertex 139.6106786306225 -1.999999999999887 40.39888106301282
    vertex 147.00357708898494 -1.999999999999887 39.97709186765489
    vertex 143.61518163590077 -1.999999999999887 41.51723826069713
  endloop
endfacet
facet normal -2.687727045442621e-16 -1.0 2.7252728022721507e-16
  outer loop
    vertex 139.6106786306225 -1.999999999999887 40.39888106301282
    vertex 143.61518163590077 -1.999999999999887 41.51723826069713
    vertex 136.2604548446672 -1.999999999999887 40.6839887058983
  endloop
endfacet
facet normal -2.687727045442621e-16 -1.0 2.7252728022721507e-16
  outer loop
    vertex 136.2604548446672 -1.999999999999887 40.6839887058983
    vertex 143.61518163590077 -1.999999999999887 41.51723826069713
    vertex 127.5452881246672 -1.999999999999887 40.89886986826728
  endloop
endfacet
facet normal -2.687727045442621e-16 -1.0 2.7252728022721507e-16
  outer loop
    vertex 127.5452881246672 -1.999999999999887 40.89886986826728
    vertex 143.61518163590077 -1.999999999999887 41.51723826069713
    vertex 128.90572805343365 -1.999999999999887 41.51723826069713
  endloop
endfacet
facet normal -2.687727045442621e-16 -1.0 2.7252728022721507e-16
  outer loop
    vertex 128.90572805343365 -1.999999999999887 41.51723826069713
    vertex 143.61518163590077 -1.999999999999887 41.51723826069713
    vertex 139.99634534537066 -1.999999999999887 42.46106170541889
  endloop
endfacet
facet normal -2.687727045442621e-16 -1.0 2.7252728022721507e-16
  outer loop
    vertex 128.90572805343365 -1.999999999999887 41.51723826069713
    vertex 139.99634534537066 -1.999999999999887 42.46106170541889
    vertex 132.52456434396376 -1.999999999999887 42.46106170541889
  endloop
endfacet
facet normal -2.687727045442621e-16 -1.0 2.7252728022721507e-16
  outer loop
    vertex 132.52456434396376 -1.999999999999887 42.46106170541889
    vertex 139.99634534537066 -1.999999999999887 42.46106170541889
    vertex 136.2604548446672 -1.999999999999887 42.77899
  endloop
endfacet
facet normal -2.687727045442621e-16 -1.0 2.7252728022721507e-16
  outer loop
    vertex 101.3997879646672 -1.9999999999998928 6.260340000000003
    vertex 119.7187612542658 -1.9999999999998928 7.042882499999998
    vertex 103.259252624645 -1.999999999999887 8.101044473497089
  endloop
endfacet
facet normal -2.687727045442621e-16 -1.0 2.7252728022721507e-16
  outer loop
    vertex 119.7187612542658 -1.9999999999998928 7.042882499999998
    vertex 101.3997879646672 -1.9999999999998928 6.260340000000003
    vertex 152.80214843506855 -1.999999999999887 7.042882499999998
  endloop
endfacet
facet normal -2.687727045442621e-16 -1.0 2.7252728022721507e-16
  outer loop
    vertex 119.7187612542658 -1.9999999999998928 7.042882499999998
    vertex 152.80214843506855 -1.999999999999887 7.042882499999998
    vertex 141.2604548446672 -1.999999999999887 7.042882499999998
  endloop
endfacet
facet normal -2.687727045442621e-16 -1.0 2.7252728022721507e-16
  outer loop
    vertex 119.7187612542658 -1.9999999999998928 7.042882499999998
    vertex 141.2604548446672 -1.999999999999887 7.042882499999998
    vertex 136.2604548446672 -1.999999999999887 7.042882499999998
  endloop
endfacet
facet normal -2.687727045442621e-16 -1.0 2.7252728022721507e-16
  outer loop
    vertex 119.7187612542658 -1.9999999999998928 7.042882499999998
    vertex 136.2604548446672 -1.999999999999887 7.042882499999998
    vertex 131.2604548446672 -1.9999999999998879 7.042882499999998
  endloop
endfacet
facet normal -2.687727045442621e-16 -1.0 2.7252728022721507e-16
  outer loop
    vertex 103.259252624645 -1.999999999999887 8.101044473497089
    vertex 119.7187612542658 -1.9999999999998928 7.042882499999998
    vertex 105.0372990526331 -1.999999999999887 10.014122321653446
  endloop
endfacet
facet normal -2.687727045442621e-16 -1.0 2.7252728022721507e-16
  outer loop
    vertex 105.0372990526331 -1.999999999999887 10.014122321653446
    vertex 119.7187612542658 -1.9999999999998928 7.042882499999998
    vertex 106.73085933738737 -1.999999999999887 11.996272644701257
  endloop
endfacet
facet normal -2.687727045442621e-16 -1.0 2.7252728022721507e-16
  outer loop
    vertex 106.73085933738737 -1.999999999999887 11.996272644701257
    vertex 119.7187612542658 -1.9999999999998928 7.042882499999998
    vertex 108.33701134337834 -1.999999999999887 14.04407536250767
  endloop
endfacet
facet normal -2.687727045442621e-16 -1.0 2.7252728022721507e-16
  outer loop
    vertex 108.33701134337834 -1.999999999999887 14.04407536250767
    vertex 119.7187612542658 -1.9999999999998928 7.042882499999998
    vertex 109.85298375275885 -1.999999999999887 16.153997115715537
  endloop
endfacet
facet normal -2.687727045442621e-16 -1.0 2.7252728022721507e-16
  outer loop
    vertex 109.85298375275885 -1.999999999999887 16.153997115715537
    vertex 119.7187612542658 -1.9999999999998928 7.042882499999998
    vertex 111.27616084710476 -1.999999999999887 18.32239736234067
  endloop
endfacet
facet normal -2.687727045442621e-16 -1.0 2.7252728022721507e-16
  outer loop
    vertex 111.27616084710476 -1.999999999999887 18.32239736234067
    vertex 119.7187612542658 -1.9999999999998928 7.042882499999998
    vertex 119.7187612542658 -1.999999999999887 31.420681496893042
  endloop
endfacet
facet normal -2.687727045442621e-16 -1.0 2.7252728022721507e-16
  outer loop
    vertex 111.27616084710476 -1.999999999999887 18.32239736234067
    vertex 119.7187612542658 -1.999999999999887 31.420681496893042
    vertex 112.60408702067865 -1.999999999999887 20.54553465930613
  endloop
endfacet
facet normal -2.687727045442621e-16 -1.0 2.7252728022721507e-16
  outer loop
    vertex 112.60408702067865 -1.999999999999887 20.54553465930613
    vertex 119.7187612542658 -1.999999999999887 31.420681496893042
    vertex 113.83447101742816 -1.999999999999887 22.819573118075333
  endloop
endfacet
facet normal -2.687727045442621e-16 -1.0 2.7252728022721507e-16
  outer loop
    vertex 113.83447101742816 -1.999999999999887 22.819573118075333
    vertex 119.7187612542658 -1.999999999999887 31.420681496893042
    vertex 114.96518988440968 -1.999999999999887 25.140589023244967
  endloop
endfacet
facet normal -2.687727045442621e-16 -1.0 2.7252728022721507e-16
  outer loop
    vertex 114.96518988440968 -1.999999999999887 25.140589023244967
    vertex 119.7187612542658 -1.999999999999887 31.420681496893042
    vertex 115.99429263481468 -1.999999999999887 27.504577602677898
  endloop
endfacet
facet normal -2.687727045442621e-16 -1.0 2.7252728022721507e-16
  outer loop
    vertex 115.99429263481468 -1.999999999999887 27.504577602677898
    vertex 119.7187612542658 -1.999999999999887 31.420681496893042
    vertex 116.9200036142791 -1.999999999999887 29.90745993749457
  endloop
endfacet
facet normal -2.687727045442621e-16 -1.0 2.7252728022721507e-16
  outer loop
    vertex 116.9200036142791 -1.999999999999887 29.90745993749457
    vertex 119.7187612542658 -1.999999999999887 31.420681496893042
    vertex 117.74072556466722 -1.999999999999887 32.34509
  endloop
endfacet
facet normal -2.687727045442621e-16 -1.0 2.7252728022721507e-16
  outer loop
    vertex 117.74072556466722 -1.999999999999887 32.34509
    vertex 119.7187612542658 -1.999999999999887 31.420681496893042
    vertex 121.5404961233336 -1.999999999999887 33.99324329430328
  endloop
endfacet
facet normal -2.687727045442621e-16 -1.0 2.7252728022721507e-16
  outer loop
    vertex 117.74072556466722 -1.999999999999887 32.34509
    vertex 121.5404961233336 -1.999999999999887 33.99324329430328
    vertex 119.84598301496031 -1.999999999999887 35.31802803961095
  endloop
endfacet
facet normal -2.687727045442621e-16 -1.0 2.7252728022721507e-16
  outer loop
    vertex 119.84598301496031 -1.999999999999887 35.31802803961095
    vertex 121.5404961233336 -1.999999999999887 33.99324329430328
    vertex 123.88963262125522 -1.999999999999887 36.298697852730925
  endloop
endfacet
facet normal -2.687727045442621e-16 -1.0 2.7252728022721507e-16
  outer loop
    vertex 119.84598301496031 -1.999999999999887 35.31802803961095
    vertex 123.88963262125522 -1.999999999999887 36.298697852730925
    vertex 122.46554436015528 -1.999999999999887 37.88887892448024
  endloop
endfacet
facet normal -2.687727045442621e-16 -1.0 2.7252728022721507e-16
  outer loop
    vertex 122.46554436015528 -1.999999999999887 37.88887892448024
    vertex 123.88963262125522 -1.999999999999887 36.298697852730925
    vertex 126.62637598942194 -1.999999999999887 38.17133857146883
  endloop
endfacet
facet normal -2.687727045442621e-16 -1.0 2.7252728022721507e-16
  outer loop
    vertex 122.46554436015528 -1.999999999999887 37.88887892448024
    vertex 126.62637598942194 -1.999999999999887 38.17133857146883
    vertex 125.51733260034945 -1.999999999999887 39.97709186765489
  endloop
endfacet
facet normal -2.687727045442621e-16 -1.0 2.7252728022721507e-16
  outer loop
    vertex 125.51733260034945 -1.999999999999887 39.97709186765489
    vertex 126.62637598942194 -1.999999999999887 38.17133857146883
    vertex 128.4794346126645 -1.9999999999998928 39.01361970252308
  endloop
endfacet
facet normal -2.687727045442621e-16 -1.0 2.7252728022721507e-16
  outer loop
    vertex 125.51733260034945 -1.999999999999887 39.97709186765489
    vertex 128.4794346126645 -1.9999999999998928 39.01361970252308
    vertex 129.66497764035574 -1.999999999999887 39.55249122539479
  endloop
endfacet
facet normal -2.687727045442621e-16 -1.0 2.7252728022721507e-16
  outer loop
    vertex 125.51733260034945 -1.999999999999887 39.97709186765489
    vertex 129.66497764035574 -1.999999999999887 39.55249122539479
    vertex 132.91023105871193 -1.999999999999887 40.39888106301282
  endloop
endfacet
facet normal -2.687727045442621e-16 -1.0 2.7252728022721507e-16
  outer loop
    vertex 125.51733260034945 -1.999999999999887 39.97709186765489
    vertex 132.91023105871193 -1.999999999999887 40.39888106301282
    vertex 127.5452881246672 -1.999999999999887 40.89886986826728
  endloop
endfacet
facet normal -2.687727045442621e-16 -1.0 2.7252728022721507e-16
  outer loop
    vertex 127.5452881246672 -1.999999999999887 40.89886986826728
    vertex 132.91023105871193 -1.999999999999887 40.39888106301282
    vertex 136.2604548446672 -1.999999999999887 40.6839887058983
  endloop
endfacet
facet normal 0.9331469766863432 -1.5283221746524114e-16 0.35949509023231097
  outer loop
    vertex 156.5266170545197 9.023892744153272e-14 27.504577602677905
    vertex 155.60090607505532 -1.9999999999999096 29.90745993749458
    vertex 156.5266170545197 -1.9999999999999096 27.504577602677905
  endloop
endfacet
facet normal 0.9331469766863432 -1.5283221746524114e-16 0.35949509023231097
  outer loop
    vertex 155.60090607505532 -1.9999999999999096 29.90745993749458
    vertex 156.5266170545197 9.023892744153272e-14 27.504577602677905
    vertex 155.60090607505532 9.023892744153272e-14 29.90745993749458
  endloop
endfacet
facet normal -0.0 -2.7252728022721517e-16 -1.0
  outer loop
    vertex 171.12112172466718 1.071587263368201e-13 4.173560000000003
    vertex 101.3997879646672 -1.9999999999998928 4.173560000000004
    vertex 101.3997879646672 1.071587263368201e-13 4.173560000000003
  endloop
endfacet
facet normal -0.0 -2.7252728022721517e-16 -1.0
  outer loop
    vertex 101.3997879646672 -1.9999999999998928 4.173560000000004
    vertex 171.12112172466718 1.071587263368201e-13 4.173560000000003
    vertex 171.12112172466718 -1.9999999999998928 4.173560000000004
  endloop
endfacet
facet normal -0.8121127414768192 3.7729355659029967e-16 0.5835005528112248
  outer loop
    vertex 109.85298375275885 1.127986593019159e-13 16.153997115715537
    vertex 108.33701134337834 -1.999999999999887 14.04407536250767
    vertex 109.85298375275885 -1.999999999999887 16.153997115715537
  endloop
endfacet
facet normal -0.8121127414768192 3.7729355659029967e-16 0.5835005528112248
  outer loop
    vertex 108.33701134337834 -1.999999999999887 14.04407536250767
    vertex 109.85298375275885 1.127986593019159e-13 16.153997115715537
    vertex 108.33701134337834 1.127986593019159e-13 14.04407536250767
  endloop
endfacet
facet normal -0.7868474041404288 3.796726623337039e-16 0.6171476019539158
  outer loop
    vertex 108.33701134337834 1.127986593019159e-13 14.04407536250767
    vertex 106.73085933738737 -1.999999999999887 11.996272644701257
    vertex 108.33701134337834 -1.999999999999887 14.04407536250767
  endloop
endfacet
facet normal -0.7868474041404288 3.796726623337039e-16 0.6171476019539158
  outer loop
    vertex 106.73085933738737 -1.999999999999887 11.996272644701257
    vertex 108.33701134337834 1.127986593019159e-13 14.04407536250767
    vertex 106.73085933738737 1.127986593019159e-13 11.996272644701257
  endloop
endfacet
facet normal -0.7602839689056099 3.8137480913859436e-16 0.6495908609464375
  outer loop
    vertex 106.73085933738737 1.127986593019159e-13 11.996272644701257
    vertex 105.0372990526331 -1.999999999999887 10.014122321653446
    vertex 106.73085933738737 -1.999999999999887 11.996272644701257
  endloop
endfacet
facet normal -0.7602839689056099 3.8137480913859436e-16 0.6495908609464375
  outer loop
    vertex 105.0372990526331 -1.999999999999887 10.014122321653446
    vertex 106.73085933738737 1.127986593019159e-13 11.996272644701257
    vertex 105.0372990526331 1.127986593019159e-13 10.014122321653446
  endloop
endfacet
facet normal -0.7324847040016512 3.824039675142344e-16 0.6807834886390927
  outer loop
    vertex 105.0372990526331 1.127986593019159e-13 10.014122321653446
    vertex 103.259252624645 -1.999999999999887 8.101044473497089
    vertex 105.0372990526331 -1.999999999999887 10.014122321653446
  endloop
endfacet
facet normal -0.7324847040016512 3.824039675142344e-16 0.6807834886390927
  outer loop
    vertex 103.259252624645 -1.999999999999887 8.101044473497089
    vertex 105.0372990526331 1.127986593019159e-13 10.014122321653446
    vertex 103.259252624645 1.127986593019159e-13 8.101044473497089
  endloop
endfacet
facet normal 0.2523666181092304 -1.8974704882173166e-16 0.9676316913289427
  outer loop
    vertex 142.82237783714407 1.127986593019159e-13 39.457897344421056
    vertex 139.5936978510465 3.000000000000113 40.299964689207314
    vertex 139.5936978510465 1.127986593019159e-13 40.299964689207314
  endloop
endfacet
facet normal 0.2523666181092304 -1.8974704882173166e-16 0.9676316913289427
  outer loop
    vertex 139.5936978510465 3.000000000000113 40.299964689207314
    vertex 142.82237783714407 1.127986593019159e-13 39.457897344421056
    vertex 142.82237783714407 3.000000000000113 39.457897344421056
  endloop
endfacet
facet normal 0.08479457874602143 -1.1085629108950086e-16 0.9963984541413565
  outer loop
    vertex 139.5936978510465 1.127986593019159e-13 40.299964689207314
    vertex 136.2604548446672 3.000000000000113 40.583627249510684
    vertex 136.2604548446672 1.127986593019159e-13 40.583627249510684
  endloop
endfacet
facet normal 0.08479457874602143 -1.1085629108950086e-16 0.9963984541413565
  outer loop
    vertex 136.2604548446672 3.000000000000113 40.583627249510684
    vertex 139.5936978510465 1.127986593019159e-13 40.299964689207314
    vertex 139.5936978510465 3.000000000000113 40.299964689207314
  endloop
endfacet
facet normal -0.41379551647410723 1.3591567607030065e-16 0.9103698537110766
  outer loop
    vertex 128.52081416431193 1.071443055361022e-13 38.922582717151975
    vertex 126.67567120805404 3.000000000000111 38.08389953861649
    vertex 126.67567120805404 1.1119329331431186e-13 38.08389953861649
  endloop
endfacet
facet normal -0.41379551647410723 1.3591567607030065e-16 0.9103698537110766
  outer loop
    vertex 126.67567120805404 3.000000000000111 38.08389953861649
    vertex 128.52081416431193 1.071443055361022e-13 38.922582717151975
    vertex 128.52081416431193 3.0000000000001075 38.922582717151975
  endloop
endfacet
facet normal -1.0 4.828326216044955e-16 -1.1022924138120954e-31
  outer loop
    vertex 119.81876125426581 1.1275862637149642e-13 31.388859853199502
    vertex 119.81876125426581 3.0000000000001075 7.142882499999998
    vertex 119.81876125426581 1.0722334236084314e-13 7.142882499999998
  endloop
endfacet
facet normal -1.0 4.828326216044955e-16 -1.1022924138120954e-31
  outer loop
    vertex 119.81876125426581 3.0000000000001075 7.142882499999998
    vertex 119.81876125426581 1.1275862637149642e-13 31.388859853199502
    vertex 119.81876125426581 3.000000000000113 31.388859853199502
  endloop
endfacet
facet normal -2.909449302243093e-32 7.016741349318864e-17 -1.0
  outer loop
    vertex 131.1604548446672 3.0000000000001124 7.142882499999998
    vertex 119.81876125426581 1.0722334236084314e-13 7.142882499999998
    vertex 119.81876125426581 3.0000000000001075 7.142882499999998
  endloop
endfacet
facet normal -2.909449302243093e-32 7.016741349318864e-17 -1.0
  outer loop
    vertex 119.81876125426581 1.0722334236084314e-13 7.142882499999998
    vertex 131.1604548446672 3.0000000000001124 7.142882499999998
    vertex 131.1604548446672 1.1192610691494084e-13 7.142882499999998
  endloop
endfacet
facet normal -0.4137955164741101 1.3591567607030216e-16 0.9103698537110751
  outer loop
    vertex 129.69853185219034 1.1026086598012632e-13 39.457897344421056
    vertex 128.52081416431193 3.0000000000001075 38.922582717151975
    vertex 128.52081416431193 1.071443055361022e-13 38.922582717151975
  endloop
endfacet
facet normal -0.4137955164741101 1.3591567607030216e-16 0.9103698537110751
  outer loop
    vertex 128.52081416431193 3.0000000000001075 38.922582717151975
    vertex 129.69853185219034 1.1026086598012632e-13 39.457897344421056
    vertex 129.69853185219034 3.0000000000001106 39.457897344421056
  endloop
endfacet
facet normal -0.2523666181092304 5.395462283254885e-17 0.9676316913289427
  outer loop
    vertex 132.92721183828792 1.127986593019159e-13 40.299964689207314
    vertex 129.69853185219034 3.0000000000001106 39.457897344421056
    vertex 129.69853185219034 1.1026086598012632e-13 39.457897344421056
  endloop
endfacet
facet normal -0.2523666181092304 5.395462283254885e-17 0.9676316913289427
  outer loop
    vertex 129.69853185219034 3.0000000000001106 39.457897344421056
    vertex 132.92721183828792 1.127986593019159e-13 40.299964689207314
    vertex 132.92721183828792 3.000000000000113 40.299964689207314
  endloop
endfacet
facet normal -0.9477250558694114 3.416828397213812e-16 0.3190881045688185
  outer loop
    vertex 117.74072556466722 1.127986593019159e-13 32.34509
    vertex 116.9200036142791 -1.999999999999887 29.90745993749457
    vertex 117.74072556466722 -1.999999999999887 32.34509
  endloop
endfacet
facet normal -0.9477250558694114 3.416828397213812e-16 0.3190881045688185
  outer loop
    vertex 116.9200036142791 -1.999999999999887 29.90745993749457
    vertex 117.74072556466722 1.127986593019159e-13 32.34509
    vertex 116.9200036142791 1.127986593019159e-13 29.90745993749457
  endloop
endfacet
facet normal -0.5647110484705554 2.1475254279900427e-16 0.8252886959938845
  outer loop
    vertex 126.67567120805404 1.1119329331431186e-13 38.08389953861649
    vertex 123.95338218793313 3.000000000000113 36.2211493346518
    vertex 123.95338218793313 1.127986593019159e-13 36.2211493346518
  endloop
endfacet
facet normal -0.5647110484705554 2.1475254279900427e-16 0.8252886959938845
  outer loop
    vertex 123.95338218793313 3.000000000000113 36.2211493346518
    vertex 126.67567120805404 1.1119329331431186e-13 38.08389953861649
    vertex 126.67567120805404 3.000000000000111 38.08389953861649
  endloop
endfacet
facet normal -0.8160987516986908 3.768419833874473e-16 0.5779124738884244
  outer loop
    vertex 119.84598301496031 1.127986593019159e-13 35.31802803961095
    vertex 117.74072556466722 -1.999999999999887 32.34509
    vertex 119.84598301496031 -1.999999999999887 35.31802803961095
  endloop
endfacet
facet normal -0.8160987516986908 3.768419833874473e-16 0.5779124738884244
  outer loop
    vertex 117.74072556466722 -1.999999999999887 32.34509
    vertex 119.84598301496031 1.127986593019159e-13 35.31802803961095
    vertex 117.74072556466722 1.127986593019159e-13 32.34509
  endloop
endfacet
facet normal 0.4137955164741109 -2.636722719844598e-16 0.9103698537110748
  outer loop
    vertex 145.84523848128035 1.127986593019159e-13 38.08389953861649
    vertex 142.82237783714407 3.000000000000113 39.457897344421056
    vertex 142.82237783714407 1.127986593019159e-13 39.457897344421056
  endloop
endfacet
facet normal 0.4137955164741109 -2.636722719844598e-16 0.9103698537110748
  outer loop
    vertex 142.82237783714407 3.000000000000113 39.457897344421056
    vertex 145.84523848128035 1.127986593019159e-13 38.08389953861649
    vertex 145.84523848128035 3.000000000000113 38.08389953861649
  endloop
endfacet
facet normal -0.93314697668634 3.487766558573405e-16 0.3594950902323193
  outer loop
    vertex 116.9200036142791 1.127986593019159e-13 29.90745993749457
    vertex 115.99429263481468 -1.999999999999887 27.504577602677898
    vertex 116.9200036142791 -1.999999999999887 29.90745993749457
  endloop
endfacet
facet normal -0.93314697668634 3.487766558573405e-16 0.3594950902323193
  outer loop
    vertex 115.99429263481468 -1.999999999999887 27.504577602677898
    vertex 116.9200036142791 1.127986593019159e-13 29.90745993749457
    vertex 115.99429263481468 1.127986593019159e-13 27.504577602677898
  endloop
endfacet
facet normal -0.2523666181092304 3.315352915854438e-16 0.9676316913289424
  outer loop
    vertex 132.52456434396376 -1.999999999999887 42.46106170541889
    vertex 128.90572805343365 1.127986593019159e-13 41.51723826069713
    vertex 128.90572805343365 -1.999999999999887 41.51723826069713
  endloop
endfacet
facet normal -0.2523666181092304 3.315352915854438e-16 0.9676316913289424
  outer loop
    vertex 128.90572805343365 1.127986593019159e-13 41.51723826069713
    vertex 132.52456434396376 -1.999999999999887 42.46106170541889
    vertex 132.52456434396376 1.127986593019159e-13 42.46106170541889
  endloop
endfacet
facet normal 0.7868474041404244 -4.3293547415203954e-17 0.6171476019539212
  outer loop
    vertex 165.7900503519471 9.023892744153272e-14 11.99627264470126
    vertex 164.1838983459561 -1.9999999999999096 14.044075362507673
    vertex 165.7900503519471 -1.9999999999999096 11.99627264470126
  endloop
endfacet
facet normal 0.7868474041404244 -4.3293547415203954e-17 0.6171476019539212
  outer loop
    vertex 164.1838983459561 -1.9999999999999096 14.044075362507673
    vertex 165.7900503519471 9.023892744153272e-14 11.99627264470126
    vertex 164.1838983459561 9.023892744153272e-14 14.044075362507673
  endloop
endfacet
facet normal 0.7004399522573136 -3.8827453695834746e-16 0.7137113375040167
  outer loop
    vertex 150.90397862352594 1.0071418136953559e-13 33.928144268828085
    vertex 148.5675275014013 3.000000000000113 36.221149334651805
    vertex 148.5675275014013 1.127986593019159e-13 36.221149334651805
  endloop
endfacet
facet normal 0.7004399522573136 -3.8827453695834746e-16 0.7137113375040167
  outer loop
    vertex 148.5675275014013 3.000000000000113 36.221149334651805
    vertex 150.90397862352594 1.0071418136953559e-13 33.928144268828085
    vertex 150.90397862352594 3.000000000000101 33.928144268828085
  endloop
endfacet
facet normal -0.08479457874602143 -2.8973113581920137e-17 0.9963984541413565
  outer loop
    vertex 136.2604548446672 1.127986593019159e-13 40.583627249510684
    vertex 132.92721183828792 3.000000000000113 40.299964689207314
    vertex 132.92721183828792 1.127986593019159e-13 40.299964689207314
  endloop
endfacet
facet normal -0.08479457874602143 -2.8973113581920137e-17 0.9963984541413565
  outer loop
    vertex 132.92721183828792 3.000000000000113 40.299964689207314
    vertex 136.2604548446672 1.127986593019159e-13 40.583627249510684
    vertex 136.2604548446672 3.000000000000113 40.583627249510684
  endloop
endfacet
facet normal -0.7035126448185002 3.827654307812878e-16 0.7106827411584432
  outer loop
    vertex 103.259252624645 -1.999999999999887 8.101044473497089
    vertex 101.3997879646672 1.071587263368201e-13 6.260340000000002
    vertex 101.3997879646672 -1.9999999999998928 6.260340000000003
  endloop
endfacet
facet normal -0.7035126448185002 3.827654307812878e-16 0.7106827411584432
  outer loop
    vertex 101.3997879646672 1.071587263368201e-13 6.260340000000002
    vertex 103.259252624645 -1.999999999999887 8.101044473497089
    vertex 103.259252624645 1.127986593019159e-13 8.101044473497089
  endloop
endfacet
facet normal 0.7602839689056099 -2.7312347950218905e-17 0.6495908609464375
  outer loop
    vertex 167.48361063670134 9.023892744153272e-14 10.014122321653447
    vertex 165.7900503519471 -1.9999999999999096 11.99627264470126
    vertex 167.48361063670134 -1.9999999999999096 10.014122321653447
  endloop
endfacet
facet normal 0.7602839689056099 -2.7312347950218905e-17 0.6495908609464375
  outer loop
    vertex 165.7900503519471 -1.9999999999999096 11.99627264470126
    vertex 167.48361063670134 9.023892744153272e-14 10.014122321653447
    vertex 165.7900503519471 9.023892744153272e-14 11.99627264470126
  endloop
endfacet
facet normal 0.7324847040016558 -1.133982234942266e-17 0.6807834886390878
  outer loop
    vertex 169.26165706468942 9.023892744153272e-14 8.10104447349709
    vertex 167.48361063670134 -1.9999999999999096 10.014122321653447
    vertex 169.26165706468942 -1.9999999999999096 8.10104447349709
  endloop
endfacet
facet normal 0.7324847040016558 -1.133982234942266e-17 0.6807834886390878
  outer loop
    vertex 167.48361063670134 -1.9999999999999096 10.014122321653447
    vertex 169.26165706468942 9.023892744153272e-14 8.10104447349709
    vertex 167.48361063670134 9.023892744153272e-14 10.014122321653447
  endloop
endfacet
facet normal -0.8360188295614673 3.742349658133976e-16 0.5487007532514186
  outer loop
    vertex 111.27616084710476 1.127986593019159e-13 18.32239736234067
    vertex 109.85298375275885 -1.999999999999887 16.153997115715537
    vertex 111.27616084710476 -1.999999999999887 18.32239736234067
  endloop
endfacet
facet normal -0.8360188295614673 3.742349658133976e-16 0.5487007532514186
  outer loop
    vertex 109.85298375275885 -1.999999999999887 16.153997115715537
    vertex 111.27616084710476 1.127986593019159e-13 18.32239736234067
    vertex 109.85298375275885 1.127986593019159e-13 16.153997115715537
  endloop
endfacet
facet normal 0.8585060077377827 -9.099003707506293e-17 0.5128035049394012
  outer loop
    vertex 161.24474884222965 -1.9999999999998646 18.32239736234067
    vertex 159.9168226686558 9.023892744153272e-14 20.54553465930613
    vertex 159.9168226686558 -1.9999999999999096 20.54553465930613
  endloop
endfacet
facet normal 0.8585060077377827 -9.099003707506293e-17 0.5128035049394012
  outer loop
    vertex 159.9168226686558 9.023892744153272e-14 20.54553465930613
    vertex 161.24474884222965 -1.9999999999998646 18.32239736234067
    vertex 161.24474884222965 1.3535839116229907e-13 18.32239736234067
  endloop
endfacet
facet normal -0.9168881958662302 3.5521218425593373e-16 0.39914412970901875
  outer loop
    vertex 115.99429263481468 1.127986593019159e-13 27.504577602677898
    vertex 114.96518988440968 -1.999999999999887 25.140589023244967
    vertex 115.99429263481468 -1.999999999999887 27.504577602677898
  endloop
endfacet
facet normal -0.9168881958662302 3.5521218425593373e-16 0.39914412970901875
  outer loop
    vertex 114.96518988440968 -1.999999999999887 25.140589023244967
    vertex 115.99429263481468 1.127986593019159e-13 27.504577602677898
    vertex 114.96518988440968 1.127986593019159e-13 25.140589023244967
  endloop
endfacet
facet normal 0.7035126448185071 4.595438323373514e-18 0.7106827411584367
  outer loop
    vertex 171.12112172466718 -1.9999999999998928 6.260340000000003
    vertex 169.26165706468942 9.023892744153272e-14 8.10104447349709
    vertex 169.26165706468942 -1.9999999999999096 8.10104447349709
  endloop
endfacet
facet normal 0.7035126448185071 4.595438323373514e-18 0.7106827411584367
  outer loop
    vertex 169.26165706468942 9.023892744153272e-14 8.10104447349709
    vertex 171.12112172466718 -1.9999999999998928 6.260340000000003
    vertex 171.12112172466718 1.071587263368201e-13 6.260340000000002
  endloop
endfacet
facet normal 0.898994820762706 -1.2226942373604209e-16 0.4379592586552206
  outer loop
    vertex 158.68643867190627 9.023892744153272e-14 22.819573118075333
    vertex 157.55571980492473 -1.9999999999999096 25.14058902324497
    vertex 158.68643867190627 -1.9999999999999096 22.819573118075333
  endloop
endfacet
facet normal 0.898994820762706 -1.2226942373604209e-16 0.4379592586552206
  outer loop
    vertex 157.55571980492473 -1.9999999999999096 25.14058902324497
    vertex 158.68643867190627 9.023892744153272e-14 22.819573118075333
    vertex 157.55571980492473 9.023892744153272e-14 25.14058902324497
  endloop
endfacet
facet normal 0.947725055869411 -1.67762413139386e-16 0.31908810456881986
  outer loop
    vertex 155.60090607505532 9.023892744153272e-14 29.90745993749458
    vertex 154.78018412466722 -1.999999999999887 32.34509
    vertex 155.60090607505532 -1.9999999999999096 29.90745993749458
  endloop
endfacet
facet normal 0.947725055869411 -1.67762413139386e-16 0.31908810456881986
  outer loop
    vertex 154.78018412466722 -1.999999999999887 32.34509
    vertex 155.60090607505532 9.023892744153272e-14 29.90745993749458
    vertex 154.78018412466722 1.127986593019159e-13 32.34509
  endloop
endfacet
facet normal 0.08479457874602214 2.4875529246948566e-16 0.9963984541413564
  outer loop
    vertex 139.99634534537066 -1.999999999999887 42.46106170541889
    vertex 136.2604548446672 1.127986593019159e-13 42.77899
    vertex 136.2604548446672 -1.999999999999887 42.77899
  endloop
endfacet
facet normal 0.08479457874602214 2.4875529246948566e-16 0.9963984541413564
  outer loop
    vertex 136.2604548446672 1.127986593019159e-13 42.77899
    vertex 139.99634534537066 -1.999999999999887 42.46106170541889
    vertex 139.99634534537066 1.127986593019159e-13 42.46106170541889
  endloop
endfacet
facet normal 0.816098751698688 -6.18481539510578e-17 0.5779124738884285
  outer loop
    vertex 154.78018412466722 1.127986593019159e-13 32.34509
    vertex 152.6749266743741 -1.999999999999887 35.31802803961095
    vertex 154.78018412466722 -1.999999999999887 32.34509
  endloop
endfacet
facet normal 0.816098751698688 -6.18481539510578e-17 0.5779124738884285
  outer loop
    vertex 152.6749266743741 -1.999999999999887 35.31802803961095
    vertex 154.78018412466722 1.127986593019159e-13 32.34509
    vertex 152.6749266743741 1.127986593019159e-13 35.31802803961095
  endloop
endfacet
facet normal -0.08479457874602214 2.9433622899000527e-16 0.9963984541413564
  outer loop
    vertex 136.2604548446672 -1.999999999999887 42.77899
    vertex 132.52456434396376 1.127986593019159e-13 42.46106170541889
    vertex 132.52456434396376 -1.999999999999887 42.46106170541889
  endloop
endfacet
facet normal -0.08479457874602214 2.9433622899000527e-16 0.9963984541413564
  outer loop
    vertex 132.52456434396376 1.127986593019159e-13 42.46106170541889
    vertex 136.2604548446672 -1.999999999999887 42.77899
    vertex 136.2604548446672 1.127986593019159e-13 42.77899
  endloop
endfacet
facet normal 0.41379551647411 1.3688368014169075e-16 0.9103698537110755
  outer loop
    vertex 147.00357708898494 -1.999999999999887 39.97709186765489
    vertex 143.61518163590077 1.127986593019159e-13 41.51723826069713
    vertex 143.61518163590077 -1.999999999999887 41.51723826069713
  endloop
endfacet
facet normal 0.41379551647411 1.3688368014169075e-16 0.9103698537110755
  outer loop
    vertex 143.61518163590077 1.127986593019159e-13 41.51723826069713
    vertex 147.00357708898494 -1.999999999999887 39.97709186765489
    vertex 147.00357708898494 1.127986593019159e-13 39.97709186765489
  endloop
endfacet
facet normal 0.2523666181092304 1.9587677461363003e-16 0.9676316913289424
  outer loop
    vertex 143.61518163590077 -1.999999999999887 41.51723826069713
    vertex 139.99634534537066 1.127986593019159e-13 42.46106170541889
    vertex 139.99634534537066 -1.999999999999887 42.46106170541889
  endloop
endfacet
facet normal 0.2523666181092304 1.9587677461363003e-16 0.9676316913289424
  outer loop
    vertex 139.99634534537066 1.127986593019159e-13 42.46106170541889
    vertex 143.61518163590077 -1.999999999999887 41.51723826069713
    vertex 143.61518163590077 1.127986593019159e-13 41.51723826069713
  endloop
endfacet
facet normal -0.41379551647410207 3.593175603237624e-16 0.9103698537110789
  outer loop
    vertex 128.90572805343365 -1.999999999999887 41.51723826069713
    vertex 127.5452881246672 1.127986593019159e-13 40.89886986826728
    vertex 127.5452881246672 -1.999999999999887 40.89886986826728
  endloop
endfacet
facet normal -0.41379551647410207 3.593175603237624e-16 0.9103698537110789
  outer loop
    vertex 127.5452881246672 1.127986593019159e-13 40.89886986826728
    vertex 128.90572805343365 -1.999999999999887 41.51723826069713
    vertex 128.90572805343365 1.127986593019159e-13 41.51723826069713
  endloop
endfacet
facet normal -0.879516499554945 3.6607714703942094e-16 0.4758683925316078
  outer loop
    vertex 113.83447101742816 1.127986593019159e-13 22.819573118075333
    vertex 112.60408702067865 -1.999999999999887 20.54553465930613
    vertex 113.83447101742816 -1.999999999999887 22.819573118075333
  endloop
endfacet
facet normal -0.879516499554945 3.6607714703942094e-16 0.4758683925316078
  outer loop
    vertex 112.60408702067865 -1.999999999999887 20.54553465930613
    vertex 113.83447101742816 1.127986593019159e-13 22.819573118075333
    vertex 112.60408702067865 1.127986593019159e-13 20.54553465930613
  endloop
endfacet
facet normal -0.41379551647411134 3.593175603237637e-16 0.9103698537110746
  outer loop
    vertex 127.5452881246672 -1.999999999999887 40.89886986826728
    vertex 125.51733260034945 1.127986593019159e-13 39.97709186765489
    vertex 125.51733260034945 -1.999999999999887 39.97709186765489
  endloop
endfacet
facet normal -0.41379551647411134 3.593175603237637e-16 0.9103698537110746
  outer loop
    vertex 125.51733260034945 1.127986593019159e-13 39.97709186765489
    vertex 127.5452881246672 -1.999999999999887 40.89886986826728
    vertex 127.5452881246672 1.127986593019159e-13 40.89886986826728
  endloop
endfacet
facet normal 0.8121127414768192 -5.925391925286039e-17 0.5835005528112248
  outer loop
    vertex 164.1838983459561 -1.9999999999999096 14.044075362507673
    vertex 162.66792593657559 6.767919558114953e-14 16.15399711571554
    vertex 162.66792593657559 -1.9999999999999323 16.15399711571554
  endloop
endfacet
facet normal 0.8121127414768192 -5.925391925286039e-17 0.5835005528112248
  outer loop
    vertex 162.66792593657559 6.767919558114953e-14 16.15399711571554
    vertex 164.1838983459561 -1.9999999999999096 14.044075362507673
    vertex 164.1838983459561 9.023892744153272e-14 14.044075362507673
  endloop
endfacet
facet normal 0.7004399522573099 6.246669338247532e-18 0.7137113375040203
  outer loop
    vertex 152.6749266743741 -1.999999999999887 35.31802803961095
    vertex 150.05536532917912 1.127986593019159e-13 37.888878924480245
    vertex 150.05536532917912 -1.999999999999887 37.888878924480245
  endloop
endfacet
facet normal 0.7004399522573099 6.246669338247532e-18 0.7137113375040203
  outer loop
    vertex 150.05536532917912 1.127986593019159e-13 37.888878924480245
    vertex 152.6749266743741 -1.999999999999887 35.31802803961095
    vertex 152.6749266743741 1.127986593019159e-13 35.31802803961095
  endloop
endfacet
facet normal 0.9168881958662269 -1.3765685607941559e-16 0.3991441297090256
  outer loop
    vertex 157.55571980492473 9.023892744153272e-14 25.14058902324497
    vertex 156.5266170545197 -1.9999999999999096 27.504577602677905
    vertex 157.55571980492473 -1.9999999999999096 25.14058902324497
  endloop
endfacet
facet normal 0.9168881958662269 -1.3765685607941559e-16 0.3991441297090256
  outer loop
    vertex 156.5266170545197 -1.9999999999999096 27.504577602677905
    vertex 157.55571980492473 9.023892744153272e-14 25.14058902324497
    vertex 156.5266170545197 9.023892744153272e-14 27.504577602677905
  endloop
endfacet
endsolid pir_cases
