solid power_box
facet normal -0.0 -0.0 1.0
  outer loop
    vertex 143.0 60.000000000000014 9.5
    vertex 140.0 82.00000000000001 9.5
    vertex 140.0 60.000000000000014 9.5
  endloop
endfacet
facet normal -0.0 -0.0 1.0
  outer loop
    vertex 140.0 82.00000000000001 9.5
    vertex 143.0 60.000000000000014 9.5
    vertex 143.0 82.00000000000001 9.5
  endloop
endfacet
facet normal 0.0 -1.0 0.0
  outer loop
    vertex 143.0 82.00000000000001 40.5
    vertex 140.0 82.00000000000001 9.5
    vertex 143.0 82.00000000000001 9.5
  endloop
endfacet
facet normal 0.0 -1.0 0.0
  outer loop
    vertex 140.0 82.00000000000001 9.5
    vertex 143.0 82.00000000000001 40.5
    vertex 140.0 82.00000000000001 40.5
  endloop
endfacet
facet normal -0.0 1.0 -0.0
  outer loop
    vertex 140.0 60.000000000000014 40.5
    vertex 143.0 60.000000000000014 9.5
    vertex 140.0 60.000000000000014 9.5
  endloop
endfacet
facet normal -0.0 1.0 -0.0
  outer loop
    vertex 143.0 60.000000000000014 9.5
    vertex 140.0 60.000000000000014 40.5
    vertex 143.0 60.000000000000014 40.5
  endloop
endfacet
facet normal 0.0 0.0 -1.0
  outer loop
    vertex 143.0 82.00000000000001 40.5
    vertex 140.0 60.000000000000014 40.5
    vertex 140.0 82.00000000000001 40.5
  endloop
endfacet
facet normal 0.0 0.0 -1.0
  outer loop
    vertex 140.0 60.000000000000014 40.5
    vertex 143.0 82.00000000000001 40.5
    vertex 143.0 60.000000000000014 40.5
  endloop
endfacet
facet normal 0.0 0.0 -1.0
  outer loop
    vertex 143.0 104.99999999999999 0.9999999999999999
    vertex -3.0000000000000004 -3.0 0.9999999999999999
    vertex -3.0000000000000004 104.99999999999999 0.9999999999999999
  endloop
endfacet
facet normal 0.0 0.0 -1.0
  outer loop
    vertex -3.0000000000000004 -3.0 0.9999999999999999
    vertex 143.0 104.99999999999999 0.9999999999999999
    vertex 143.0 -3.0 0.9999999999999999
  endloop
endfacet
facet normal -0.0 -0.0 1.0
  outer loop
    vertex 140.0 0.0 3.9999999999999996
    vertex -3.0000000000000004 104.99999999999999 3.9999999999999996
    vertex -3.0000000000000004 0.0 3.9999999999999996
  endloop
endfacet
facet normal -0.0 -0.0 1.0
  outer loop
    vertex -3.0000000000000004 104.99999999999999 3.9999999999999996
    vertex 140.0 0.0 3.9999999999999996
    vertex 140.0 105.00000000000001 3.9999999999999996
  endloop
endfacet
facet normal -0.0 -0.0 1.0
  outer loop
    vertex 140.0 105.00000000000001 3.9999999999999996
    vertex 140.0 0.0 3.9999999999999996
    vertex 140.0 88.00000000000001 3.9999999999999996
  endloop
endfacet
facet normal -1.0 0.0 0.0
  outer loop
    vertex 140.0 0.0 46.0
    vertex 140.0 23.836661463712353 22.135399527084996
    vertex 140.0 0.0 3.9999999999999996
  endloop
endfacet
facet normal -1.0 0.0 0.0
  outer loop
    vertex 140.0 23.836661463712353 22.135399527084996
    vertex 140.0 0.0 46.0
    vertex 140.0 24.942143836206622 22.82938613333256
  endloop
endfacet
facet normal -1.0 0.0 0.0
  outer loop
    vertex 140.0 24.942143836206622 22.82938613333256
    vertex 140.0 0.0 46.0
    vertex 140.0 60.000000000000014 40.5
  endloop
endfacet
facet normal -1.0 0.0 0.0
  outer loop
    vertex 140.0 60.000000000000014 40.5
    vertex 140.0 0.0 46.0
    vertex 140.0 88.00000000000001 46.0
  endloop
endfacet
facet normal -1.0 0.0 0.0
  outer loop
    vertex 140.0 0.0 3.9999999999999996
    vertex 140.0 23.836661463712353 22.135399527084996
    vertex 140.0 22.948464440355757 21.178940048985066
  endloop
endfacet
facet normal -1.0 0.0 0.0
  outer loop
    vertex 140.0 0.0 3.9999999999999996
    vertex 140.0 22.948464440355757 21.178940048985066
    vertex 140.0 22.338081925463623 20.02518883184145
  endloop
endfacet
facet normal -1.0 0.0 0.0
  outer loop
    vertex 140.0 0.0 3.9999999999999996
    vertex 140.0 22.338081925463623 20.02518883184145
    vertex 140.0 22.047110478721024 18.75277211443825
  endloop
endfacet
facet normal -1.0 0.0 0.0
  outer loop
    vertex 140.0 24.942143836206622 22.82938613333256
    vertex 140.0 60.000000000000014 40.5
    vertex 140.0 26.18957476104909 23.213605827379144
  endloop
endfacet
facet normal -1.0 0.0 0.0
  outer loop
    vertex 140.0 26.18957476104909 23.213605827379144
    vertex 140.0 60.000000000000014 40.5
    vertex 140.0 27.493943882188812 23.261874672028544
  endloop
endfacet
facet normal -1.0 0.0 0.0
  outer loop
    vertex 140.0 27.493943882188812 23.261874672028544
    vertex 140.0 60.000000000000014 40.5
    vertex 140.0 28.766360599591998 22.97090322528599
  endloop
endfacet
facet normal -1.0 0.0 0.0
  outer loop
    vertex 140.0 28.766360599591998 22.97090322528599
    vertex 140.0 60.000000000000014 40.5
    vertex 140.0 29.920111816735677 22.360520710393835
  endloop
endfacet
facet normal -1.0 0.0 0.0
  outer loop
    vertex 140.0 29.920111816735677 22.360520710393835
    vertex 140.0 60.000000000000014 40.5
    vertex 140.0 30.87657129483554 21.472323687037253
  endloop
endfacet
facet normal -1.0 0.0 0.0
  outer loop
    vertex 140.0 30.87657129483554 21.472323687037253
    vertex 140.0 60.000000000000014 40.5
    vertex 140.0 31.570557901083117 20.36684131454295
  endloop
endfacet
facet normal -1.0 0.0 0.0
  outer loop
    vertex 140.0 31.570557901083117 20.36684131454295
    vertex 140.0 60.000000000000014 40.5
    vertex 140.0 31.954777595129706 19.11941038970052
  endloop
endfacet
facet normal -1.0 0.0 0.0
  outer loop
    vertex 140.0 31.954777595129706 19.11941038970052
    vertex 140.0 60.000000000000014 40.5
    vertex 140.0 32.00304643977912 17.8150412685608
  endloop
endfacet
facet normal -1.0 0.0 0.0
  outer loop
    vertex 140.0 60.000000000000014 40.5
    vertex 140.0 88.00000000000001 46.0
    vertex 140.0 82.00000000000001 40.5
  endloop
endfacet
facet normal -1.0 0.0 0.0
  outer loop
    vertex 140.0 82.00000000000001 40.5
    vertex 140.0 88.00000000000001 46.0
    vertex 140.0 82.00000000000001 9.5
  endloop
endfacet
facet normal -1.0 0.0 0.0
  outer loop
    vertex 140.0 0.0 3.9999999999999996
    vertex 140.0 26.556213036311348 13.305938710970477
    vertex 140.0 88.00000000000001 3.9999999999999996
  endloop
endfacet
facet normal -1.0 0.0 0.0
  outer loop
    vertex 140.0 26.556213036311348 13.305938710970477
    vertex 140.0 0.0 3.9999999999999996
    vertex 139.99999999999997 25.283796318908173 13.596910157713038
  endloop
endfacet
facet normal -1.0 0.0 0.0
  outer loop
    vertex 139.99999999999997 25.283796318908173 13.596910157713038
    vertex 140.0 0.0 3.9999999999999996
    vertex 139.99999999999997 24.130045101764487 14.207292672605195
  endloop
endfacet
facet normal -1.0 0.0 0.0
  outer loop
    vertex 139.99999999999997 24.130045101764487 14.207292672605195
    vertex 140.0 0.0 3.9999999999999996
    vertex 140.0 23.173585623664604 15.09548969596178
  endloop
endfacet
facet normal -1.0 0.0 0.0
  outer loop
    vertex 140.0 23.173585623664604 15.09548969596178
    vertex 140.0 0.0 3.9999999999999996
    vertex 139.99999999999997 22.479599017417037 16.200972068456025
  endloop
endfacet
facet normal -1.0 0.0 0.0
  outer loop
    vertex 139.99999999999997 22.479599017417037 16.200972068456025
    vertex 140.0 0.0 3.9999999999999996
    vertex 140.0 22.09537932337044 17.44840299329851
  endloop
endfacet
facet normal -1.0 0.0 0.0
  outer loop
    vertex 140.0 22.09537932337044 17.44840299329851
    vertex 140.0 0.0 3.9999999999999996
    vertex 140.0 22.047110478721024 18.75277211443825
  endloop
endfacet
facet normal -1.0 0.0 0.0
  outer loop
    vertex 140.0 88.00000000000001 3.9999999999999996
    vertex 140.0 26.556213036311348 13.305938710970477
    vertex 140.0 27.860582157451077 13.354207555619857
  endloop
endfacet
facet normal -1.0 0.0 0.0
  outer loop
    vertex 140.0 88.00000000000001 3.9999999999999996
    vertex 140.0 27.860582157451077 13.354207555619857
    vertex 140.0 29.10801308229354 13.738427249666485
  endloop
endfacet
facet normal -1.0 0.0 0.0
  outer loop
    vertex 140.0 88.00000000000001 3.9999999999999996
    vertex 140.0 29.10801308229354 13.738427249666485
    vertex 140.0 30.213495454787807 14.432413855914007
  endloop
endfacet
facet normal -1.0 0.0 0.0
  outer loop
    vertex 140.0 88.00000000000001 3.9999999999999996
    vertex 140.0 30.213495454787807 14.432413855914007
    vertex 140.0 60.000000000000014 9.5
  endloop
endfacet
facet normal -1.0 0.0 0.0
  outer loop
    vertex 140.0 60.000000000000014 9.5
    vertex 140.0 30.213495454787807 14.432413855914007
    vertex 140.0 31.101692478144386 15.388873334013924
  endloop
endfacet
facet normal -1.0 0.0 0.0
  outer loop
    vertex 140.0 60.000000000000014 9.5
    vertex 140.0 31.101692478144386 15.388873334013924
    vertex 140.0 31.712074993036527 16.542624551157605
  endloop
endfacet
facet normal -1.0 0.0 0.0
  outer loop
    vertex 140.0 60.000000000000014 9.5
    vertex 140.0 31.712074993036527 16.542624551157605
    vertex 140.0 32.00304643977912 17.8150412685608
  endloop
endfacet
facet normal -1.0 0.0 0.0
  outer loop
    vertex 140.0 60.000000000000014 9.5
    vertex 140.0 32.00304643977912 17.8150412685608
    vertex 140.0 60.000000000000014 40.5
  endloop
endfacet
facet normal -1.0 0.0 0.0
  outer loop
    vertex 140.0 88.00000000000001 3.9999999999999996
    vertex 140.0 60.000000000000014 9.5
    vertex 140.0 82.00000000000001 9.5
  endloop
endfacet
facet normal -1.0 0.0 0.0
  outer loop
    vertex 140.0 88.00000000000001 3.9999999999999996
    vertex 140.0 82.00000000000001 9.5
    vertex 140.0 88.00000000000001 46.0
  endloop
endfacet
facet normal 4.43039000611003e-16 0.9556939520149698 0.2943621410473992
  outer loop
    vertex 140.0 22.09537932337044 17.44840299329851
    vertex 143.0 22.479599017417033 16.20097206845603
    vertex 139.99999999999997 22.479599017417037 16.200972068456025
  endloop
endfacet
facet normal 4.43039000611003e-16 0.9556939520149698 0.2943621410473992
  outer loop
    vertex 143.0 22.479599017417033 16.20097206845603
    vertex 140.0 22.09537932337044 17.44840299329851
    vertex 143.0 22.09537932337044 17.448402993298505
  endloop
endfacet
facet normal -1.7956197316933956e-17 -0.4676322081495514 -0.8839231402679617
  outer loop
    vertex 143.0 29.920111816735677 22.360520710393835
    vertex 140.0 28.766360599591998 22.97090322528599
    vertex 140.0 29.920111816735677 22.360520710393835
  endloop
endfacet
facet normal -1.7956197316933956e-17 -0.4676322081495514 -0.8839231402679617
  outer loop
    vertex 140.0 28.766360599591998 22.97090322528599
    vertex 143.0 29.920111816735677 22.360520710393835
    vertex 143.0 28.76636059959199 22.970903225285994
  endloop
endfacet
facet normal 1.8595211861643102e-16 -0.8469429420193056 -0.5316837903901935
  outer loop
    vertex 143.0 31.570557901083117 20.366841314542953
    vertex 140.0 30.87657129483554 21.472323687037253
    vertex 140.0 31.570557901083117 20.36684131454295
  endloop
endfacet
facet normal 1.8595211861643102e-16 -0.8469429420193056 -0.5316837903901935
  outer loop
    vertex 140.0 30.87657129483554 21.472323687037253
    vertex 143.0 31.570557901083117 20.366841314542953
    vertex 143.0 30.87657129483554 21.472323687037253
  endloop
endfacet
facet normal 6.75938777585285e-16 -0.2943621410474278 0.955693952014961
  outer loop
    vertex 143.0 27.860582157451077 13.354207555619855
    vertex 140.0 29.10801308229354 13.738427249666485
    vertex 140.0 27.860582157451077 13.354207555619857
  endloop
endfacet
facet normal 6.75938777585285e-16 -0.2943621410474278 0.955693952014961
  outer loop
    vertex 140.0 29.10801308229354 13.738427249666485
    vertex 143.0 27.860582157451077 13.354207555619855
    vertex 142.99999999999997 29.10801308229354 13.738427249666481
  endloop
endfacet
facet normal -3.2983830648626503e-16 0.8469429420192947 0.5316837903902109
  outer loop
    vertex 140.0 23.173585623664604 15.09548969596178
    vertex 143.0 22.479599017417033 16.20097206845603
    vertex 143.0 23.173585623664614 15.095489695961767
  endloop
endfacet
facet normal -3.2983830648626503e-16 0.8469429420192947 0.5316837903902109
  outer loop
    vertex 143.0 22.479599017417033 16.20097206845603
    vertex 140.0 23.173585623664604 15.09548969596178
    vertex 139.99999999999997 22.479599017417037 16.200972068456025
  endloop
endfacet
facet normal 9.08759062236194e-16 -0.222921883948023 -0.974836311211818
  outer loop
    vertex 143.0 28.76636059959199 22.970903225285994
    vertex 140.0 27.493943882188812 23.261874672028544
    vertex 140.0 28.766360599591998 22.97090322528599
  endloop
endfacet
facet normal 9.08759062236194e-16 -0.222921883948023 -0.974836311211818
  outer loop
    vertex 140.0 27.493943882188812 23.261874672028544
    vertex 143.0 28.76636059959199 22.970903225285994
    vertex 143.0 27.493943882188802 23.26187467202855
  endloop
endfacet
facet normal -8.287988527281818e-16 0.5316837903901994 -0.846942942019302
  outer loop
    vertex 143.0 24.94214383620663 22.829386133332562
    vertex 140.0 23.836661463712353 22.135399527084996
    vertex 140.0 24.942143836206622 22.82938613333256
  endloop
endfacet
facet normal -8.287988527281818e-16 0.5316837903901994 -0.846942942019302
  outer loop
    vertex 140.0 23.836661463712353 22.135399527084996
    vertex 143.0 24.94214383620663 22.829386133332562
    vertex 143.0 23.83666146371236 22.135399527084996
  endloop
endfacet
facet normal 1.248172901404703e-15 -0.8839231402679661 0.467632208149543
  outer loop
    vertex 143.0 31.101692478144393 15.388873334013926
    vertex 140.0 31.712074993036527 16.542624551157605
    vertex 140.0 31.101692478144386 15.388873334013924
  endloop
endfacet
facet normal 1.248172901404703e-15 -0.8839231402679661 0.467632208149543
  outer loop
    vertex 140.0 31.712074993036527 16.542624551157605
    vertex 143.0 31.101692478144393 15.388873334013926
    vertex 143.0 31.712074993036534 16.5426245511576
  endloop
endfacet
facet normal -6.915328793386085e-16 0.9993159985397457 0.03698019824866875
  outer loop
    vertex 140.0 22.09537932337044 17.44840299329851
    vertex 143.0 22.04711047872103 18.75277211443825
    vertex 143.0 22.09537932337044 17.448402993298505
  endloop
endfacet
facet normal -6.915328793386085e-16 0.9993159985397457 0.03698019824866875
  outer loop
    vertex 143.0 22.04711047872103 18.75277211443825
    vertex 140.0 22.09537932337044 17.44840299329851
    vertex 140.0 22.047110478721024 18.75277211443825
  endloop
endfacet
facet normal 1.999118937552456e-16 0.4676322081495501 0.8839231402679626
  outer loop
    vertex 143.0 24.130045101764484 14.207292672605199
    vertex 139.99999999999997 25.283796318908173 13.596910157713038
    vertex 139.99999999999997 24.130045101764487 14.207292672605195
  endloop
endfacet
facet normal 1.999118937552456e-16 0.4676322081495501 0.8839231402679626
  outer loop
    vertex 139.99999999999997 25.283796318908173 13.596910157713038
    vertex 143.0 24.130045101764484 14.207292672605199
    vertex 143.0 25.283796318908163 13.596910157713042
  endloop
endfacet
facet normal 0.0 -0.6804741701644031 -0.7327720680669174
  outer loop
    vertex 143.0 30.87657129483554 21.472323687037253
    vertex 140.0 29.920111816735677 22.360520710393835
    vertex 140.0 30.87657129483554 21.472323687037253
  endloop
endfacet
facet normal 0.0 -0.6804741701644031 -0.7327720680669174
  outer loop
    vertex 140.0 29.920111816735677 22.360520710393835
    vertex 143.0 30.87657129483554 21.472323687037253
    vertex 143.0 29.920111816735677 22.360520710393835
  endloop
endfacet
facet normal -1.1348579434329474e-15 0.9748363112118115 -0.22292188394805112
  outer loop
    vertex 140.0 22.338081925463623 20.02518883184145
    vertex 143.0 22.04711047872103 18.75277211443825
    vertex 140.0 22.047110478721024 18.75277211443825
  endloop
endfacet
facet normal -1.1348579434329474e-15 0.9748363112118115 -0.22292188394805112
  outer loop
    vertex 143.0 22.04711047872103 18.75277211443825
    vertex 140.0 22.338081925463623 20.02518883184145
    vertex 143.0 22.338081925463626 20.025188831841458
  endloop
endfacet
facet normal 2.960950982745078e-16 0.6804741701643958 0.7327720680669241
  outer loop
    vertex 140.0 23.173585623664604 15.09548969596178
    vertex 143.0 24.130045101764484 14.207292672605199
    vertex 139.99999999999997 24.130045101764487 14.207292672605195
  endloop
endfacet
facet normal 2.960950982745078e-16 0.6804741701643958 0.7327720680669241
  outer loop
    vertex 143.0 24.130045101764484 14.207292672605199
    vertex 140.0 23.173585623664604 15.09548969596178
    vertex 143.0 23.173585623664614 15.095489695961767
  endloop
endfacet
facet normal 6.726705857043149e-16 -0.9556939520149661 -0.29436214104741076
  outer loop
    vertex 143.0 31.570557901083117 20.366841314542953
    vertex 140.0 31.954777595129706 19.11941038970052
    vertex 143.0 31.954777595129713 19.11941038970052
  endloop
endfacet
facet normal 6.726705857043149e-16 -0.9556939520149661 -0.29436214104741076
  outer loop
    vertex 140.0 31.954777595129706 19.11941038970052
    vertex 143.0 31.570557901083117 20.366841314542953
    vertex 140.0 31.570557901083117 20.36684131454295
  endloop
endfacet
facet normal 5.998282164250217e-16 -0.5316837903901769 0.8469429420193162
  outer loop
    vertex 142.99999999999997 29.10801308229354 13.738427249666481
    vertex 140.0 30.213495454787807 14.432413855914007
    vertex 140.0 29.10801308229354 13.738427249666485
  endloop
endfacet
facet normal 5.998282164250217e-16 -0.5316837903901769 0.8469429420193162
  outer loop
    vertex 140.0 30.213495454787807 14.432413855914007
    vertex 142.99999999999997 29.10801308229354 13.738427249666481
    vertex 142.99999999999997 30.213495454787807 14.432413855914005
  endloop
endfacet
facet normal -1.0602655500960225e-15 0.8839231402679565 -0.4676322081495614
  outer loop
    vertex 140.0 22.948464440355757 21.178940048985066
    vertex 143.0 22.338081925463626 20.025188831841458
    vertex 140.0 22.338081925463623 20.02518883184145
  endloop
endfacet
facet normal -1.0602655500960225e-15 0.8839231402679565 -0.4676322081495614
  outer loop
    vertex 143.0 22.338081925463626 20.025188831841458
    vertex 140.0 22.948464440355757 21.178940048985066
    vertex 142.99999999999997 22.948464440355767 21.178940048985066
  endloop
endfacet
facet normal 1.0019028256985096e-15 -0.9748363112118125 0.22292188394804663
  outer loop
    vertex 143.0 32.00304643977912 17.815041268560794
    vertex 140.0 31.712074993036527 16.542624551157605
    vertex 143.0 31.712074993036534 16.5426245511576
  endloop
endfacet
facet normal 1.0019028256985096e-15 -0.9748363112118125 0.22292188394804663
  outer loop
    vertex 140.0 31.712074993036527 16.542624551157605
    vertex 143.0 32.00304643977912 17.815041268560794
    vertex 140.0 32.00304643977912 17.8150412685608
  endloop
endfacet
facet normal 6.527323008623571e-16 -0.999315998539746 -0.0369801982486672
  outer loop
    vertex 143.0 31.954777595129713 19.11941038970052
    vertex 140.0 32.00304643977912 17.8150412685608
    vertex 143.0 32.00304643977912 17.815041268560794
  endloop
endfacet
facet normal 6.527323008623571e-16 -0.999315998539746 -0.0369801982486672
  outer loop
    vertex 140.0 32.00304643977912 17.8150412685608
    vertex 143.0 31.954777595129713 19.11941038970052
    vertex 140.0 31.954777595129706 19.11941038970052
  endloop
endfacet
facet normal -1.303328237208811e-15 0.7327720680669355 -0.6804741701643835
  outer loop
    vertex 140.0 23.836661463712353 22.135399527084996
    vertex 142.99999999999997 22.948464440355767 21.178940048985066
    vertex 140.0 22.948464440355757 21.178940048985066
  endloop
endfacet
facet normal -1.303328237208811e-15 0.7327720680669355 -0.6804741701643835
  outer loop
    vertex 142.99999999999997 22.948464440355767 21.178940048985066
    vertex 140.0 23.836661463712353 22.135399527084996
    vertex 143.0 23.83666146371236 22.135399527084996
  endloop
endfacet
facet normal -1.0552455496388723e-16 0.29436214104739655 -0.9556939520149705
  outer loop
    vertex 143.0 26.189574761049084 23.21360582737914
    vertex 140.0 24.942143836206622 22.82938613333256
    vertex 140.0 26.18957476104909 23.213605827379144
  endloop
endfacet
facet normal -1.0552455496388723e-16 0.29436214104739655 -0.9556939520149705
  outer loop
    vertex 140.0 24.942143836206622 22.82938613333256
    vertex 143.0 26.189574761049084 23.21360582737914
    vertex 143.0 24.94214383620663 22.829386133332562
  endloop
endfacet
facet normal 7.833609150657302e-16 0.036980198248662936 -0.999315998539746
  outer loop
    vertex 143.0 27.493943882188802 23.26187467202855
    vertex 140.0 26.18957476104909 23.213605827379144
    vertex 140.0 27.493943882188812 23.261874672028544
  endloop
endfacet
facet normal 7.833609150657302e-16 0.036980198248662936 -0.999315998539746
  outer loop
    vertex 140.0 26.18957476104909 23.213605827379144
    vertex 143.0 27.493943882188802 23.26187467202855
    vertex 143.0 26.189574761049084 23.21360582737914
  endloop
endfacet
facet normal 7.309801341227824e-16 -0.03698019824864339 0.9993159985397468
  outer loop
    vertex 143.0 26.556213036311355 13.305938710970473
    vertex 140.0 27.860582157451077 13.354207555619857
    vertex 140.0 26.556213036311348 13.305938710970477
  endloop
endfacet
facet normal 7.309801341227824e-16 -0.03698019824864339 0.9993159985397468
  outer loop
    vertex 140.0 27.860582157451077 13.354207555619857
    vertex 143.0 26.556213036311355 13.305938710970473
    vertex 143.0 27.860582157451077 13.354207555619855
  endloop
endfacet
facet normal 7.555870916812363e-17 0.22292188394803183 0.9748363112118159
  outer loop
    vertex 143.0 25.283796318908163 13.596910157713042
    vertex 140.0 26.556213036311348 13.305938710970477
    vertex 139.99999999999997 25.283796318908173 13.596910157713038
  endloop
endfacet
facet normal 7.555870916812363e-17 0.22292188394803183 0.9748363112118159
  outer loop
    vertex 140.0 26.556213036311348 13.305938710970477
    vertex 143.0 25.283796318908163 13.596910157713042
    vertex 143.0 26.556213036311355 13.305938710970473
  endloop
endfacet
facet normal 5.157368329463599e-16 -0.7327720680669375 0.6804741701643815
  outer loop
    vertex 143.0 31.101692478144393 15.388873334013926
    vertex 140.0 30.213495454787807 14.432413855914007
    vertex 142.99999999999997 30.213495454787807 14.432413855914005
  endloop
endfacet
facet normal 5.157368329463599e-16 -0.7327720680669375 0.6804741701643815
  outer loop
    vertex 140.0 30.213495454787807 14.432413855914007
    vertex 143.0 31.101692478144393 15.388873334013926
    vertex 140.0 31.101692478144386 15.388873334013924
  endloop
endfacet
facet normal 0.9914448613738112 -1.3923397397416195e-16 -0.13052619222004666
  outer loop
    vertex 62.314666796480175 -0.0 22.943310075942506
    vertex 62.41688931761296 -3.0 23.719767211250062
    vertex 62.314666796480175 -3.0 22.94331007594251
  endloop
endfacet
facet normal 0.9914448613738112 -1.3923397397416195e-16 -0.13052619222004666
  outer loop
    vertex 62.41688931761296 -3.0 23.719767211250062
    vertex 62.314666796480175 -0.0 22.943310075942506
    vertex 62.41688931761296 -0.0 23.719767211250055
  endloop
endfacet
facet normal -0.9914448613738134 4.565048327021129e-17 0.13052619222003023
  outer loop
    vertex 68.31466679648017 0.0 22.9433100759425
    vertex 68.21244427534738 -3.0 22.166852940634936
    vertex 68.31466679648017 -3.0 22.943310075942502
  endloop
endfacet
facet normal -0.9914448613738134 4.565048327021129e-17 0.13052619222003023
  outer loop
    vertex 68.21244427534738 -3.0 22.166852940634936
    vertex 68.31466679648017 0.0 22.9433100759425
    vertex 68.21244427534738 -0.0 22.166852940634936
  endloop
endfacet
facet normal 0.1305261922200418 0.0 -0.9914448613738118
  outer loop
    vertex 65.31466679648018 0.0 25.94331007594249
    vertex 64.53820966117262 -3.0 25.841087554809704
    vertex 64.53820966117262 0.0 25.841087554809704
  endloop
endfacet
facet normal 0.1305261922200418 0.0 -0.9914448613738118
  outer loop
    vertex 64.53820966117262 -3.0 25.841087554809704
    vertex 65.31466679648018 0.0 25.94331007594249
    vertex 65.31466679648018 -3.0 25.94331007594249
  endloop
endfacet
facet normal -0.9238795325112817 -1.0315482493123485e-15 0.38268343236510177
  outer loop
    vertex 68.21244427534738 -0.0 22.166852940634936
    vertex 67.91274300783348 -3.0 21.443310075942502
    vertex 68.21244427534738 -3.0 22.166852940634936
  endloop
endfacet
facet normal -0.9238795325112817 -1.0315482493123485e-15 0.38268343236510177
  outer loop
    vertex 67.91274300783348 -3.0 21.443310075942502
    vertex 68.21244427534738 -0.0 22.166852940634936
    vertex 67.91274300783348 -0.0 21.4433100759425
  endloop
endfacet
facet normal -0.38268343236508817 0.0 -0.9238795325112875
  outer loop
    vertex 66.8146667964802 -0.0 25.5413862872958
    vertex 66.09112393178775 -3.0 25.841087554809693
    vertex 66.09112393178775 -0.0 25.841087554809693
  endloop
endfacet
facet normal -0.38268343236508817 0.0 -0.9238795325112875
  outer loop
    vertex 66.09112393178775 -3.0 25.841087554809693
    vertex 66.8146667964802 -0.0 25.5413862872958
    vertex 66.8146667964802 -3.0 25.5413862872958
  endloop
endfacet
facet normal -0.608761429008729 0.0 -0.7933533402912287
  outer loop
    vertex 67.43598714003981 -0.0 25.064630419502134
    vertex 66.8146667964802 -3.0 25.5413862872958
    vertex 66.8146667964802 -0.0 25.5413862872958
  endloop
endfacet
facet normal -0.608761429008729 0.0 -0.7933533402912287
  outer loop
    vertex 66.8146667964802 -3.0 25.5413862872958
    vertex 67.43598714003981 -0.0 25.064630419502134
    vertex 67.43598714003981 -3.0 25.064630419502134
  endloop
endfacet
facet normal -0.7933533402912303 0.0 -0.6087614290087273
  outer loop
    vertex 67.43598714003981 -0.0 25.064630419502134
    vertex 67.91274300783348 -3.0 24.443310075942517
    vertex 67.43598714003981 -3.0 25.064630419502134
  endloop
endfacet
facet normal -0.7933533402912303 0.0 -0.6087614290087273
  outer loop
    vertex 67.91274300783348 -3.0 24.443310075942517
    vertex 67.43598714003981 -0.0 25.064630419502134
    vertex 67.91274300783348 0.0 24.443310075942517
  endloop
endfacet
facet normal -0.1305261922200597 0.0 -0.9914448613738094
  outer loop
    vertex 66.09112393178775 -0.0 25.841087554809693
    vertex 65.31466679648018 -3.0 25.94331007594249
    vertex 65.31466679648018 0.0 25.94331007594249
  endloop
endfacet
facet normal -0.1305261922200597 0.0 -0.9914448613738094
  outer loop
    vertex 65.31466679648018 -3.0 25.94331007594249
    vertex 66.09112393178775 -0.0 25.841087554809693
    vertex 66.09112393178775 -3.0 25.841087554809693
  endloop
endfacet
facet normal 0.793353340291238 4.311415374925159e-16 0.6087614290087169
  outer loop
    vertex 63.193346452920515 -0.0 20.82198973238286
    vertex 62.71659058512685 -3.0 21.443310075942502
    vertex 63.193346452920515 -3.0 20.821989732382868
  endloop
endfacet
facet normal 0.793353340291238 4.311415374925159e-16 0.6087614290087169
  outer loop
    vertex 62.71659058512685 -3.0 21.443310075942502
    vertex 63.193346452920515 -0.0 20.82198973238286
    vertex 62.71659058512685 -0.0 21.443310075942502
  endloop
endfacet
facet normal 0.9238795325112875 -2.710269007539812e-16 -0.38268343236508806
  outer loop
    vertex 62.41688931761296 -0.0 23.719767211250055
    vertex 62.71659058512685 -3.0 24.44331007594251
    vertex 62.41688931761296 -3.0 23.719767211250062
  endloop
endfacet
facet normal 0.9238795325112875 -2.710269007539812e-16 -0.38268343236508806
  outer loop
    vertex 62.71659058512685 -3.0 24.44331007594251
    vertex 62.41688931761296 -0.0 23.719767211250055
    vertex 62.71659058512685 -0.0 24.44331007594251
  endloop
endfacet
facet normal 0.38268343236509517 -6.502778268548256e-16 -0.9238795325112846
  outer loop
    vertex 64.53820966117262 0.0 25.841087554809704
    vertex 63.81466679648018 -3.0 25.541386287295815
    vertex 63.81466679648018 0.0 25.54138628729581
  endloop
endfacet
facet normal 0.38268343236509517 -6.502778268548256e-16 -0.9238795325112846
  outer loop
    vertex 63.81466679648018 -3.0 25.541386287295815
    vertex 64.53820966117262 0.0 25.841087554809704
    vertex 64.53820966117262 -3.0 25.841087554809704
  endloop
endfacet
facet normal 0.793353340291238 -0.0 -0.6087614290087169
  outer loop
    vertex 62.71659058512685 -0.0 24.44331007594251
    vertex 63.193346452920515 -3.0 25.064630419502148
    vertex 62.71659058512685 -3.0 24.44331007594251
  endloop
endfacet
facet normal 0.793353340291238 -0.0 -0.6087614290087169
  outer loop
    vertex 63.193346452920515 -3.0 25.064630419502148
    vertex 62.71659058512685 -0.0 24.44331007594251
    vertex 63.193346452920515 -0.0 25.064630419502148
  endloop
endfacet
facet normal 0.6087614290087034 -5.618745909460275e-16 -0.7933533402912484
  outer loop
    vertex 63.81466679648018 0.0 25.54138628729581
    vertex 63.193346452920515 -3.0 25.064630419502148
    vertex 63.193346452920515 -0.0 25.064630419502148
  endloop
endfacet
facet normal 0.6087614290087034 -5.618745909460275e-16 -0.7933533402912484
  outer loop
    vertex 63.193346452920515 -3.0 25.064630419502148
    vertex 63.81466679648018 0.0 25.54138628729581
    vertex 63.81466679648018 -3.0 25.541386287295815
  endloop
endfacet
facet normal 0.38268343236508706 -0.0 0.9238795325112881
  outer loop
    vertex 64.53820966117262 -3.0 20.0455325970753
    vertex 63.81466679648017 0.0 20.345233864589186
    vertex 63.81466679648017 -3.0 20.345233864589186
  endloop
endfacet
facet normal 0.38268343236508706 -0.0 0.9238795325112881
  outer loop
    vertex 63.81466679648017 0.0 20.345233864589186
    vertex 64.53820966117262 -3.0 20.0455325970753
    vertex 64.53820966117262 0.0 20.0455325970753
  endloop
endfacet
facet normal -0.9914448613738098 -9.13009665404409e-17 -0.13052619222005643
  outer loop
    vertex 68.21244427534737 0.0 23.719767211250076
    vertex 68.31466679648017 -3.0 22.943310075942502
    vertex 68.21244427534737 -3.0 23.71976721125008
  endloop
endfacet
facet normal -0.9914448613738098 -9.13009665404409e-17 -0.13052619222005643
  outer loop
    vertex 68.31466679648017 -3.0 22.943310075942502
    vertex 68.21244427534737 0.0 23.719767211250076
    vertex 68.31466679648017 0.0 22.9433100759425
  endloop
endfacet
facet normal 0.130526192220065 3.500006258543509e-16 0.9914448613738086
  outer loop
    vertex 65.31466679648017 -3.0 19.943310075942495
    vertex 64.53820966117262 0.0 20.0455325970753
    vertex 64.53820966117262 -3.0 20.0455325970753
  endloop
endfacet
facet normal 0.130526192220065 3.500006258543509e-16 0.9914448613738086
  outer loop
    vertex 64.53820966117262 0.0 20.0455325970753
    vertex 65.31466679648017 -3.0 19.943310075942495
    vertex 65.31466679648017 0.0 19.94331007594249
  endloop
endfacet
facet normal -0.9238795325112903 -1.3384044481677854e-16 -0.3826834323650815
  outer loop
    vertex 67.91274300783348 0.0 24.443310075942517
    vertex 68.21244427534737 -3.0 23.71976721125008
    vertex 67.91274300783348 -3.0 24.443310075942517
  endloop
endfacet
facet normal -0.9238795325112903 -1.3384044481677854e-16 -0.3826834323650815
  outer loop
    vertex 68.21244427534737 -3.0 23.71976721125008
    vertex 67.91274300783348 0.0 24.443310075942517
    vertex 68.21244427534737 0.0 23.719767211250076
  endloop
endfacet
facet normal -0.13052619222006148 3.489170325854522e-16 0.9914448613738092
  outer loop
    vertex 66.09112393178772 -3.0 20.045532597075297
    vertex 65.31466679648017 0.0 19.94331007594249
    vertex 65.31466679648017 -3.0 19.943310075942495
  endloop
endfacet
facet normal -0.13052619222006148 3.489170325854522e-16 0.9914448613738092
  outer loop
    vertex 65.31466679648017 0.0 19.94331007594249
    vertex 66.09112393178772 -3.0 20.045532597075297
    vertex 66.09112393178772 0.0 20.045532597075297
  endloop
endfacet
facet normal -0.3826834323650839 -0.0 0.9238795325112892
  outer loop
    vertex 66.81466679648017 -3.0 20.34523386458918
    vertex 66.09112393178772 0.0 20.045532597075297
    vertex 66.09112393178772 -3.0 20.045532597075297
  endloop
endfacet
facet normal -0.3826834323650839 -0.0 0.9238795325112892
  outer loop
    vertex 66.09112393178772 0.0 20.045532597075297
    vertex 66.81466679648017 -3.0 20.34523386458918
    vertex 66.81466679648017 0.0 20.34523386458918
  endloop
endfacet
facet normal -0.6087614290087172 -0.0 0.7933533402912377
  outer loop
    vertex 67.43598714003981 -3.0 20.821989732382857
    vertex 66.81466679648017 0.0 20.34523386458918
    vertex 66.81466679648017 -3.0 20.34523386458918
  endloop
endfacet
facet normal -0.6087614290087172 -0.0 0.7933533402912377
  outer loop
    vertex 66.81466679648017 0.0 20.34523386458918
    vertex 67.43598714003981 -3.0 20.821989732382857
    vertex 67.43598714003981 0.0 20.821989732382857
  endloop
endfacet
facet normal 0.9238795325112849 -0.0 0.3826834323650944
  outer loop
    vertex 62.71659058512685 -0.0 21.443310075942502
    vertex 62.41688931761296 -3.0 22.16685294063494
    vertex 62.71659058512685 -3.0 21.443310075942502
  endloop
endfacet
facet normal 0.9238795325112849 -0.0 0.3826834323650944
  outer loop
    vertex 62.41688931761296 -3.0 22.16685294063494
    vertex 62.71659058512685 -0.0 21.443310075942502
    vertex 62.41688931761296 -0.0 22.16685294063494
  endloop
endfacet
facet normal 0.9914448613738116 4.5650483270215893e-17 0.1305261922200434
  outer loop
    vertex 62.41688931761296 -0.0 22.16685294063494
    vertex 62.314666796480175 -3.0 22.94331007594251
    vertex 62.41688931761296 -3.0 22.16685294063494
  endloop
endfacet
facet normal 0.9914448613738116 4.5650483270215893e-17 0.1305261922200434
  outer loop
    vertex 62.314666796480175 -3.0 22.94331007594251
    vertex 62.41688931761296 -0.0 22.16685294063494
    vertex 62.314666796480175 -0.0 22.943310075942506
  endloop
endfacet
facet normal 0.6087614290087195 5.584062292735125e-16 0.793353340291236
  outer loop
    vertex 63.81466679648017 -3.0 20.345233864589186
    vertex 63.193346452920515 -0.0 20.82198973238286
    vertex 63.193346452920515 -3.0 20.821989732382868
  endloop
endfacet
facet normal 0.6087614290087195 5.584062292735125e-16 0.793353340291236
  outer loop
    vertex 63.193346452920515 -0.0 20.82198973238286
    vertex 63.81466679648017 -3.0 20.345233864589186
    vertex 63.81466679648017 0.0 20.345233864589186
  endloop
endfacet
facet normal -0.0 1.0 -0.0
  outer loop
    vertex -3.0000000000000004 0.0 3.9999999999999996
    vertex 64.53820966117262 0.0 20.0455325970753
    vertex 140.0 0.0 3.9999999999999996
  endloop
endfacet
facet normal -0.0 1.0 -0.0
  outer loop
    vertex 64.53820966117262 0.0 20.0455325970753
    vertex -3.0000000000000004 0.0 3.9999999999999996
    vertex -3.0000000000000004 0.0 46.0
  endloop
endfacet
facet normal -0.0 1.0 -0.0
  outer loop
    vertex 140.0 0.0 3.9999999999999996
    vertex 64.53820966117262 0.0 20.0455325970753
    vertex 65.31466679648017 0.0 19.94331007594249
  endloop
endfacet
facet normal -0.0 1.0 -0.0
  outer loop
    vertex 64.53820966117262 0.0 20.0455325970753
    vertex -3.0000000000000004 0.0 46.0
    vertex 63.81466679648017 0.0 20.345233864589186
  endloop
endfacet
facet normal -0.0 1.0 -0.0
  outer loop
    vertex 63.81466679648017 0.0 20.345233864589186
    vertex -3.0000000000000004 0.0 46.0
    vertex 63.193346452920515 -0.0 20.82198973238286
  endloop
endfacet
facet normal -0.0 1.0 -0.0
  outer loop
    vertex 63.193346452920515 -0.0 20.82198973238286
    vertex -3.0000000000000004 0.0 46.0
    vertex 62.71659058512685 -0.0 21.443310075942502
  endloop
endfacet
facet normal -0.0 1.0 -0.0
  outer loop
    vertex 62.71659058512685 -0.0 21.443310075942502
    vertex -3.0000000000000004 0.0 46.0
    vertex 62.41688931761296 -0.0 22.16685294063494
  endloop
endfacet
facet normal -0.0 1.0 -0.0
  outer loop
    vertex 62.41688931761296 -0.0 22.16685294063494
    vertex -3.0000000000000004 0.0 46.0
    vertex 62.314666796480175 -0.0 22.943310075942506
  endloop
endfacet
facet normal -0.0 1.0 -0.0
  outer loop
    vertex 62.314666796480175 -0.0 22.943310075942506
    vertex -3.0000000000000004 0.0 46.0
    vertex 62.41688931761296 -0.0 23.719767211250055
  endloop
endfacet
facet normal -0.0 1.0 -0.0
  outer loop
    vertex 62.41688931761296 -0.0 23.719767211250055
    vertex -3.0000000000000004 0.0 46.0
    vertex 62.71659058512685 -0.0 24.44331007594251
  endloop
endfacet
facet normal -0.0 1.0 -0.0
  outer loop
    vertex 62.71659058512685 -0.0 24.44331007594251
    vertex -3.0000000000000004 0.0 46.0
    vertex 63.193346452920515 -0.0 25.064630419502148
  endloop
endfacet
facet normal -0.0 1.0 -0.0
  outer loop
    vertex 63.193346452920515 -0.0 25.064630419502148
    vertex -3.0000000000000004 0.0 46.0
    vertex 63.81466679648018 0.0 25.54138628729581
  endloop
endfacet
facet normal -0.0 1.0 -0.0
  outer loop
    vertex 63.81466679648018 0.0 25.54138628729581
    vertex -3.0000000000000004 0.0 46.0
    vertex 64.53820966117262 0.0 25.841087554809704
  endloop
endfacet
facet normal -0.0 1.0 -0.0
  outer loop
    vertex 64.53820966117262 0.0 25.841087554809704
    vertex -3.0000000000000004 0.0 46.0
    vertex 65.31466679648018 0.0 25.94331007594249
  endloop
endfacet
facet normal -0.0 1.0 -0.0
  outer loop
    vertex 140.0 0.0 3.9999999999999996
    vertex 66.09112393178772 0.0 20.045532597075297
    vertex 140.0 0.0 46.0
  endloop
endfacet
facet normal -0.0 1.0 -0.0
  outer loop
    vertex 66.09112393178772 0.0 20.045532597075297
    vertex 140.0 0.0 3.9999999999999996
    vertex 65.31466679648017 0.0 19.94331007594249
  endloop
endfacet
facet normal -0.0 1.0 -0.0
  outer loop
    vertex 140.0 0.0 46.0
    vertex 66.09112393178772 0.0 20.045532597075297
    vertex 66.81466679648017 0.0 20.34523386458918
  endloop
endfacet
facet normal -0.0 1.0 -0.0
  outer loop
    vertex 140.0 0.0 46.0
    vertex 66.81466679648017 0.0 20.34523386458918
    vertex 67.43598714003981 0.0 20.821989732382857
  endloop
endfacet
facet normal -0.0 1.0 -0.0
  outer loop
    vertex 140.0 0.0 46.0
    vertex 67.43598714003981 0.0 20.821989732382857
    vertex 67.91274300783348 -0.0 21.4433100759425
  endloop
endfacet
facet normal -0.0 1.0 -0.0
  outer loop
    vertex 140.0 0.0 46.0
    vertex 67.91274300783348 -0.0 21.4433100759425
    vertex 68.21244427534738 -0.0 22.166852940634936
  endloop
endfacet
facet normal -0.0 1.0 -0.0
  outer loop
    vertex 140.0 0.0 46.0
    vertex 68.21244427534738 -0.0 22.166852940634936
    vertex 68.31466679648017 0.0 22.9433100759425
  endloop
endfacet
facet normal -0.0 1.0 -0.0
  outer loop
    vertex 140.0 0.0 46.0
    vertex 68.31466679648017 0.0 22.9433100759425
    vertex 68.21244427534737 0.0 23.719767211250076
  endloop
endfacet
facet normal -0.0 1.0 -0.0
  outer loop
    vertex 140.0 0.0 46.0
    vertex 68.21244427534737 0.0 23.719767211250076
    vertex 67.91274300783348 0.0 24.443310075942517
  endloop
endfacet
facet normal -0.0 1.0 -0.0
  outer loop
    vertex 140.0 0.0 46.0
    vertex 67.91274300783348 0.0 24.443310075942517
    vertex 67.43598714003981 -0.0 25.064630419502134
  endloop
endfacet
facet normal -0.0 1.0 -0.0
  outer loop
    vertex 140.0 0.0 46.0
    vertex 67.43598714003981 -0.0 25.064630419502134
    vertex 66.8146667964802 -0.0 25.5413862872958
  endloop
endfacet
facet normal -0.0 1.0 -0.0
  outer loop
    vertex 140.0 0.0 46.0
    vertex 66.8146667964802 -0.0 25.5413862872958
    vertex 66.09112393178775 -0.0 25.841087554809693
  endloop
endfacet
facet normal -0.0 1.0 -0.0
  outer loop
    vertex 140.0 0.0 46.0
    vertex 66.09112393178775 -0.0 25.841087554809693
    vertex 65.31466679648018 0.0 25.94331007594249
  endloop
endfacet
facet normal -0.0 1.0 -0.0
  outer loop
    vertex 140.0 0.0 46.0
    vertex 65.31466679648018 0.0 25.94331007594249
    vertex -3.0000000000000004 0.0 46.0
  endloop
endfacet
facet normal -0.7933533402912386 -6.88332288569899e-16 0.6087614290087162
  outer loop
    vertex 67.91274300783348 -0.0 21.4433100759425
    vertex 67.43598714003981 -3.0 20.821989732382857
    vertex 67.91274300783348 -3.0 21.443310075942502
  endloop
endfacet
facet normal -0.7933533402912386 -6.88332288569899e-16 0.6087614290087162
  outer loop
    vertex 67.43598714003981 -3.0 20.821989732382857
    vertex 67.91274300783348 -0.0 21.4433100759425
    vertex 67.43598714003981 0.0 20.821989732382857
  endloop
endfacet
facet normal 0.0 -1.0 0.0
  outer loop
    vertex 143.0 -3.0 3.9999999999999996
    vertex 66.09112393178772 -3.0 20.045532597075297
    vertex -3.0000000000000004 -3.0 3.9999999999999996
  endloop
endfacet
facet normal 0.0 -1.0 0.0
  outer loop
    vertex 66.09112393178772 -3.0 20.045532597075297
    vertex 143.0 -3.0 3.9999999999999996
    vertex 143.0 -3.0 46.0
  endloop
endfacet
facet normal 0.0 -1.0 0.0
  outer loop
    vertex -3.0000000000000004 -3.0 3.9999999999999996
    vertex 66.09112393178772 -3.0 20.045532597075297
    vertex 65.31466679648017 -3.0 19.943310075942495
  endloop
endfacet
facet normal 0.0 -1.0 0.0
  outer loop
    vertex 66.09112393178772 -3.0 20.045532597075297
    vertex 143.0 -3.0 46.0
    vertex 66.81466679648017 -3.0 20.34523386458918
  endloop
endfacet
facet normal 0.0 -1.0 0.0
  outer loop
    vertex 66.81466679648017 -3.0 20.34523386458918
    vertex 143.0 -3.0 46.0
    vertex 67.43598714003981 -3.0 20.821989732382857
  endloop
endfacet
facet normal 0.0 -1.0 0.0
  outer loop
    vertex 67.43598714003981 -3.0 20.821989732382857
    vertex 143.0 -3.0 46.0
    vertex 67.91274300783348 -3.0 21.443310075942502
  endloop
endfacet
facet normal 0.0 -1.0 0.0
  outer loop
    vertex 67.91274300783348 -3.0 21.443310075942502
    vertex 143.0 -3.0 46.0
    vertex 68.21244427534738 -3.0 22.166852940634936
  endloop
endfacet
facet normal 0.0 -1.0 0.0
  outer loop
    vertex 68.21244427534738 -3.0 22.166852940634936
    vertex 143.0 -3.0 46.0
    vertex 68.31466679648017 -3.0 22.943310075942502
  endloop
endfacet
facet normal 0.0 -1.0 0.0
  outer loop
    vertex 68.31466679648017 -3.0 22.943310075942502
    vertex 143.0 -3.0 46.0
    vertex 68.21244427534737 -3.0 23.71976721125008
  endloop
endfacet
facet normal 0.0 -1.0 0.0
  outer loop
    vertex 68.21244427534737 -3.0 23.71976721125008
    vertex 143.0 -3.0 46.0
    vertex 67.91274300783348 -3.0 24.443310075942517
  endloop
endfacet
facet normal 0.0 -1.0 0.0
  outer loop
    vertex 67.91274300783348 -3.0 24.443310075942517
    vertex 143.0 -3.0 46.0
    vertex 67.43598714003981 -3.0 25.064630419502134
  endloop
endfacet
facet normal 0.0 -1.0 0.0
  outer loop
    vertex 67.43598714003981 -3.0 25.064630419502134
    vertex 143.0 -3.0 46.0
    vertex 66.8146667964802 -3.0 25.5413862872958
  endloop
endfacet
facet normal 0.0 -1.0 0.0
  outer loop
    vertex 66.8146667964802 -3.0 25.5413862872958
    vertex 143.0 -3.0 46.0
    vertex 66.09112393178775 -3.0 25.841087554809693
  endloop
endfacet
facet normal 0.0 -1.0 0.0
  outer loop
    vertex 66.09112393178775 -3.0 25.841087554809693
    vertex 143.0 -3.0 46.0
    vertex 65.31466679648018 -3.0 25.94331007594249
  endloop
endfacet
facet normal 0.0 -1.0 0.0
  outer loop
    vertex -3.0000000000000004 -3.0 3.9999999999999996
    vertex 64.53820966117262 -3.0 20.0455325970753
    vertex -3.0000000000000004 -3.0 46.0
  endloop
endfacet
facet normal 0.0 -1.0 0.0
  outer loop
    vertex 64.53820966117262 -3.0 20.0455325970753
    vertex -3.0000000000000004 -3.0 3.9999999999999996
    vertex 65.31466679648017 -3.0 19.943310075942495
  endloop
endfacet
facet normal 0.0 -1.0 0.0
  outer loop
    vertex -3.0000000000000004 -3.0 46.0
    vertex 64.53820966117262 -3.0 20.0455325970753
    vertex 63.81466679648017 -3.0 20.345233864589186
  endloop
endfacet
facet normal 0.0 -1.0 0.0
  outer loop
    vertex -3.0000000000000004 -3.0 46.0
    vertex 63.81466679648017 -3.0 20.345233864589186
    vertex 63.193346452920515 -3.0 20.821989732382868
  endloop
endfacet
facet normal 0.0 -1.0 0.0
  outer loop
    vertex -3.0000000000000004 -3.0 46.0
    vertex 63.193346452920515 -3.0 20.821989732382868
    vertex 62.71659058512685 -3.0 21.443310075942502
  endloop
endfacet
facet normal 0.0 -1.0 0.0
  outer loop
    vertex -3.0000000000000004 -3.0 46.0
    vertex 62.71659058512685 -3.0 21.443310075942502
    vertex 62.41688931761296 -3.0 22.16685294063494
  endloop
endfacet
facet normal 0.0 -1.0 0.0
  outer loop
    vertex -3.0000000000000004 -3.0 46.0
    vertex 62.41688931761296 -3.0 22.16685294063494
    vertex 62.314666796480175 -3.0 22.94331007594251
  endloop
endfacet
facet normal 0.0 -1.0 0.0
  outer loop
    vertex -3.0000000000000004 -3.0 46.0
    vertex 62.314666796480175 -3.0 22.94331007594251
    vertex 62.41688931761296 -3.0 23.719767211250062
  endloop
endfacet
facet normal 0.0 -1.0 0.0
  outer loop
    vertex -3.0000000000000004 -3.0 46.0
    vertex 62.41688931761296 -3.0 23.719767211250062
    vertex 62.71659058512685 -3.0 24.44331007594251
  endloop
endfacet
facet normal 0.0 -1.0 0.0
  outer loop
    vertex -3.0000000000000004 -3.0 46.0
    vertex 62.71659058512685 -3.0 24.44331007594251
    vertex 63.193346452920515 -3.0 25.064630419502148
  endloop
endfacet
facet normal 0.0 -1.0 0.0
  outer loop
    vertex -3.0000000000000004 -3.0 46.0
    vertex 63.193346452920515 -3.0 25.064630419502148
    vertex 63.81466679648018 -3.0 25.541386287295815
  endloop
endfacet
facet normal 0.0 -1.0 0.0
  outer loop
    vertex -3.0000000000000004 -3.0 46.0
    vertex 63.81466679648018 -3.0 25.541386287295815
    vertex 64.53820966117262 -3.0 25.841087554809704
  endloop
endfacet
facet normal 0.0 -1.0 0.0
  outer loop
    vertex -3.0000000000000004 -3.0 46.0
    vertex 64.53820966117262 -3.0 25.841087554809704
    vertex 65.31466679648018 -3.0 25.94331007594249
  endloop
endfacet
facet normal 0.0 -1.0 0.0
  outer loop
    vertex -3.0000000000000004 -3.0 46.0
    vertex 65.31466679648018 -3.0 25.94331007594249
    vertex 143.0 -3.0 46.0
  endloop
endfacet
facet normal 1.0 -0.0 -0.0
  outer loop
    vertex 143.0 -3.0 3.9999999999999996
    vertex 143.0 23.173585623664614 15.095489695961767
    vertex 143.0 -3.0 46.0
  endloop
endfacet
facet normal 1.0 -0.0 -0.0
  outer loop
    vertex 143.0 23.173585623664614 15.095489695961767
    vertex 143.0 -3.0 3.9999999999999996
    vertex 143.0 24.130045101764484 14.207292672605199
  endloop
endfacet
facet normal 1.0 -0.0 -0.0
  outer loop
    vertex 143.0 24.130045101764484 14.207292672605199
    vertex 143.0 -3.0 3.9999999999999996
    vertex 143.0 25.283796318908163 13.596910157713042
  endloop
endfacet
facet normal 1.0 -0.0 -0.0
  outer loop
    vertex 143.0 25.283796318908163 13.596910157713042
    vertex 143.0 -3.0 3.9999999999999996
    vertex 143.0 26.556213036311355 13.305938710970473
  endloop
endfacet
facet normal 1.0 -0.0 -0.0
  outer loop
    vertex 143.0 26.556213036311355 13.305938710970473
    vertex 143.0 -3.0 3.9999999999999996
    vertex 143.0 88.00000000000001 3.9999999999999996
  endloop
endfacet
facet normal 1.0 -0.0 -0.0
  outer loop
    vertex 143.0 -3.0 46.0
    vertex 143.0 23.173585623664614 15.095489695961767
    vertex 143.0 22.479599017417033 16.20097206845603
  endloop
endfacet
facet normal 1.0 -0.0 -0.0
  outer loop
    vertex 143.0 -3.0 46.0
    vertex 143.0 22.479599017417033 16.20097206845603
    vertex 143.0 22.09537932337044 17.448402993298505
  endloop
endfacet
facet normal 1.0 -0.0 -0.0
  outer loop
    vertex 143.0 -3.0 46.0
    vertex 143.0 22.09537932337044 17.448402993298505
    vertex 143.0 22.04711047872103 18.75277211443825
  endloop
endfacet
facet normal 1.0 -0.0 -0.0
  outer loop
    vertex 143.0 26.556213036311355 13.305938710970473
    vertex 143.0 88.00000000000001 3.9999999999999996
    vertex 143.0 27.860582157451077 13.354207555619855
  endloop
endfacet
facet normal 1.0 -0.0 -0.0
  outer loop
    vertex 143.0 27.860582157451077 13.354207555619855
    vertex 143.0 88.00000000000001 3.9999999999999996
    vertex 142.99999999999997 29.10801308229354 13.738427249666481
  endloop
endfacet
facet normal 1.0 -0.0 -0.0
  outer loop
    vertex 142.99999999999997 29.10801308229354 13.738427249666481
    vertex 143.0 88.00000000000001 3.9999999999999996
    vertex 142.99999999999997 30.213495454787807 14.432413855914005
  endloop
endfacet
facet normal 1.0 -0.0 -0.0
  outer loop
    vertex 142.99999999999997 30.213495454787807 14.432413855914005
    vertex 143.0 88.00000000000001 3.9999999999999996
    vertex 143.0 60.000000000000014 9.5
  endloop
endfacet
facet normal 1.0 -0.0 -0.0
  outer loop
    vertex 142.99999999999997 30.213495454787807 14.432413855914005
    vertex 143.0 60.000000000000014 9.5
    vertex 143.0 31.101692478144393 15.388873334013926
  endloop
endfacet
facet normal 1.0 -0.0 -0.0
  outer loop
    vertex 143.0 31.101692478144393 15.388873334013926
    vertex 143.0 60.000000000000014 9.5
    vertex 143.0 31.712074993036534 16.5426245511576
  endloop
endfacet
facet normal 1.0 -0.0 -0.0
  outer loop
    vertex 143.0 31.712074993036534 16.5426245511576
    vertex 143.0 60.000000000000014 9.5
    vertex 143.0 32.00304643977912 17.815041268560794
  endloop
endfacet
facet normal 1.0 -0.0 -0.0
  outer loop
    vertex 143.0 60.000000000000014 9.5
    vertex 143.0 88.00000000000001 3.9999999999999996
    vertex 143.0 82.00000000000001 9.5
  endloop
endfacet
facet normal 1.0 -0.0 -0.0
  outer loop
    vertex 143.0 82.00000000000001 9.5
    vertex 143.0 88.00000000000001 3.9999999999999996
    vertex 143.0 82.00000000000001 40.5
  endloop
endfacet
facet normal 1.0 -0.0 -0.0
  outer loop
    vertex 143.0 -3.0 46.0
    vertex 143.0 60.000000000000014 40.5
    vertex 143.0 88.00000000000001 46.0
  endloop
endfacet
facet normal 1.0 -0.0 -0.0
  outer loop
    vertex 143.0 60.000000000000014 40.5
    vertex 143.0 -3.0 46.0
    vertex 143.0 24.94214383620663 22.829386133332562
  endloop
endfacet
facet normal 1.0 -0.0 -0.0
  outer loop
    vertex 143.0 24.94214383620663 22.829386133332562
    vertex 143.0 -3.0 46.0
    vertex 143.0 23.83666146371236 22.135399527084996
  endloop
endfacet
facet normal 1.0 -0.0 -0.0
  outer loop
    vertex 143.0 23.83666146371236 22.135399527084996
    vertex 143.0 -3.0 46.0
    vertex 142.99999999999997 22.948464440355767 21.178940048985066
  endloop
endfacet
facet normal 1.0 -0.0 -0.0
  outer loop
    vertex 142.99999999999997 22.948464440355767 21.178940048985066
    vertex 143.0 -3.0 46.0
    vertex 143.0 22.338081925463626 20.025188831841458
  endloop
endfacet
facet normal 1.0 -0.0 -0.0
  outer loop
    vertex 143.0 22.338081925463626 20.025188831841458
    vertex 143.0 -3.0 46.0
    vertex 143.0 22.04711047872103 18.75277211443825
  endloop
endfacet
facet normal 1.0 -0.0 -0.0
  outer loop
    vertex 143.0 60.000000000000014 40.5
    vertex 143.0 24.94214383620663 22.829386133332562
    vertex 143.0 26.189574761049084 23.21360582737914
  endloop
endfacet
facet normal 1.0 -0.0 -0.0
  outer loop
    vertex 143.0 60.000000000000014 40.5
    vertex 143.0 26.189574761049084 23.21360582737914
    vertex 143.0 27.493943882188802 23.26187467202855
  endloop
endfacet
facet normal 1.0 -0.0 -0.0
  outer loop
    vertex 143.0 60.000000000000014 40.5
    vertex 143.0 27.493943882188802 23.26187467202855
    vertex 143.0 28.76636059959199 22.970903225285994
  endloop
endfacet
facet normal 1.0 -0.0 -0.0
  outer loop
    vertex 143.0 60.000000000000014 40.5
    vertex 143.0 28.76636059959199 22.970903225285994
    vertex 143.0 29.920111816735677 22.360520710393835
  endloop
endfacet
facet normal 1.0 -0.0 -0.0
  outer loop
    vertex 143.0 60.000000000000014 40.5
    vertex 143.0 29.920111816735677 22.360520710393835
    vertex 143.0 30.87657129483554 21.472323687037253
  endloop
endfacet
facet normal 1.0 -0.0 -0.0
  outer loop
    vertex 143.0 60.000000000000014 40.5
    vertex 143.0 30.87657129483554 21.472323687037253
    vertex 143.0 31.570557901083117 20.366841314542953
  endloop
endfacet
facet normal 1.0 -0.0 -0.0
  outer loop
    vertex 143.0 60.000000000000014 40.5
    vertex 143.0 31.570557901083117 20.366841314542953
    vertex 143.0 31.954777595129713 19.11941038970052
  endloop
endfacet
facet normal 1.0 -0.0 -0.0
  outer loop
    vertex 143.0 60.000000000000014 40.5
    vertex 143.0 31.954777595129713 19.11941038970052
    vertex 143.0 32.00304643977912 17.815041268560794
  endloop
endfacet
facet normal 1.0 -0.0 -0.0
  outer loop
    vertex 143.0 60.000000000000014 40.5
    vertex 143.0 32.00304643977912 17.815041268560794
    vertex 143.0 60.000000000000014 9.5
  endloop
endfacet
facet normal 1.0 -0.0 -0.0
  outer loop
    vertex 143.0 88.00000000000001 46.0
    vertex 143.0 60.000000000000014 40.5
    vertex 143.0 82.00000000000001 40.5
  endloop
endfacet
facet normal 1.0 -0.0 -0.0
  outer loop
    vertex 143.0 88.00000000000001 46.0
    vertex 143.0 82.00000000000001 40.5
    vertex 143.0 88.00000000000001 3.9999999999999996
  endloop
endfacet
facet normal 1.0 -0.0 -0.0
  outer loop
    vertex 143.0 104.99999999999999 0.9999999999999999
    vertex 143.0 -3.0 3.9999999999999996
    vertex 143.0 -3.0 0.9999999999999999
  endloop
endfacet
facet normal 1.0 -0.0 -0.0
  outer loop
    vertex 143.0 -3.0 3.9999999999999996
    vertex 143.0 104.99999999999999 0.9999999999999999
    vertex 143.0 88.00000000000001 3.9999999999999996
  endloop
endfacet
facet normal 1.0 -0.0 -0.0
  outer loop
    vertex 143.0 88.00000000000001 3.9999999999999996
    vertex 143.0 104.99999999999999 0.9999999999999999
    vertex 143.0 104.99999999999999 3.9999999999999996
  endloop
endfacet
facet normal 0.0 -1.0 0.0
  outer loop
    vertex 143.0 -3.0 3.9999999999999996
    vertex -3.0000000000000004 -3.0 0.9999999999999999
    vertex 143.0 -3.0 0.9999999999999999
  endloop
endfacet
facet normal 0.0 -1.0 0.0
  outer loop
    vertex -3.0000000000000004 -3.0 0.9999999999999999
    vertex 143.0 -3.0 3.9999999999999996
    vertex -3.0000000000000004 -3.0 3.9999999999999996
  endloop
endfacet
facet normal -0.0 1.0 -0.0
  outer loop
    vertex -3.0000000000000004 108.0 46.0
    vertex 143.0 108.0 3.9999999999999996
    vertex -3.0000000000000004 108.0 3.9999999999999996
  endloop
endfacet
facet normal -0.0 1.0 -0.0
  outer loop
    vertex 143.0 108.0 3.9999999999999996
    vertex -3.0000000000000004 108.0 46.0
    vertex 143.0 108.0 46.0
  endloop
endfacet
facet normal 1.0 -0.0 -0.0
  outer loop
    vertex 143.0 104.99999999999999 3.9999999999999996
    vertex 143.0 88.00000000000001 46.0
    vertex 143.0 88.00000000000001 3.9999999999999996
  endloop
endfacet
facet normal 1.0 -0.0 -0.0
  outer loop
    vertex 143.0 88.00000000000001 46.0
    vertex 143.0 104.99999999999999 3.9999999999999996
    vertex 143.0 108.0 46.0
  endloop
endfacet
facet normal 1.0 -0.0 -0.0
  outer loop
    vertex 143.0 108.0 46.0
    vertex 143.0 104.99999999999999 3.9999999999999996
    vertex 143.0 108.0 3.9999999999999996
  endloop
endfacet
facet normal 7.888018133001112e-17 -1.0 2.6856823643313304e-16
  outer loop
    vertex 140.0 105.00000000000001 46.0
    vertex -3.0000000000000004 104.99999999999999 3.9999999999999996
    vertex 140.0 105.00000000000001 3.9999999999999996
  endloop
endfacet
facet normal 7.888018133001112e-17 -1.0 2.6856823643313304e-16
  outer loop
    vertex -3.0000000000000004 104.99999999999999 3.9999999999999996
    vertex 140.0 105.00000000000001 46.0
    vertex -3.0000000000000004 105.00000000000001 46.0
  endloop
endfacet
facet normal -1.0 0.0 0.0
  outer loop
    vertex 140.0 105.00000000000001 46.0
    vertex 140.0 88.00000000000001 3.9999999999999996
    vertex 140.0 88.00000000000001 46.0
  endloop
endfacet
facet normal -1.0 0.0 0.0
  outer loop
    vertex 140.0 88.00000000000001 3.9999999999999996
    vertex 140.0 105.00000000000001 46.0
    vertex 140.0 105.00000000000001 3.9999999999999996
  endloop
endfacet
facet normal 1.4027002174858165e-48 1.0 -7.519910620127713e-15
  outer loop
    vertex -3.0000000000000004 108.0 3.9999999999999996
    vertex 143.0 107.99999999999999 0.9999999999999943
    vertex -3.0000000000000004 107.99999999999999 0.9999999999999943
  endloop
endfacet
facet normal 1.4027002174858165e-48 1.0 -7.519910620127713e-15
  outer loop
    vertex 143.0 107.99999999999999 0.9999999999999943
    vertex -3.0000000000000004 108.0 3.9999999999999996
    vertex 143.0 108.0 3.9999999999999996
  endloop
endfacet
facet normal 0.0 -1.879977655031935e-15 -1.0
  outer loop
    vertex 143.0 107.99999999999999 0.9999999999999943
    vertex -3.0000000000000004 104.99999999999999 0.9999999999999999
    vertex -3.0000000000000004 107.99999999999999 0.9999999999999943
  endloop
endfacet
facet normal 0.0 -1.879977655031935e-15 -1.0
  outer loop
    vertex -3.0000000000000004 104.99999999999999 0.9999999999999999
    vertex 143.0 107.99999999999999 0.9999999999999943
    vertex 143.0 104.99999999999999 0.9999999999999999
  endloop
endfacet
facet normal 1.0 -0.0 -0.0
  outer loop
    vertex 143.0 107.99999999999999 0.9999999999999943
    vertex 143.0 104.99999999999999 3.9999999999999996
    vertex 143.0 104.99999999999999 0.9999999999999999
  endloop
endfacet
facet normal 1.0 -0.0 -0.0
  outer loop
    vertex 143.0 104.99999999999999 3.9999999999999996
    vertex 143.0 107.99999999999999 0.9999999999999943
    vertex 143.0 108.0 3.9999999999999996
  endloop
endfacet
facet normal 1.0 -0.0 -0.0
  outer loop
    vertex -3.0000000000000004 104.99999999999999 3.9999999999999996
    vertex -3.0000000000000004 0.0 46.0
    vertex -3.0000000000000004 0.0 3.9999999999999996
  endloop
endfacet
facet normal 1.0 -0.0 -0.0
  outer loop
    vertex -3.0000000000000004 0.0 46.0
    vertex -3.0000000000000004 104.99999999999999 3.9999999999999996
    vertex -3.0000000000000004 105.00000000000001 46.0
  endloop
endfacet
facet normal -1.0 0.0 0.0
  outer loop
    vertex -6.0 105.00000000000001 46.0
    vertex -6.0 0.0 3.9999999999999996
    vertex -6.0 0.0 46.0
  endloop
endfacet
facet normal -1.0 0.0 0.0
  outer loop
    vertex -6.0 0.0 3.9999999999999996
    vertex -6.0 105.00000000000001 46.0
    vertex -6.0 104.99999999999999 3.9999999999999996
  endloop
endfacet
facet normal -1.0 0.0 0.0
  outer loop
    vertex -6.0 0.0 46.0
    vertex -6.0 -3.0 3.9999999999999996
    vertex -6.0 -3.0 46.0
  endloop
endfacet
facet normal -1.0 0.0 0.0
  outer loop
    vertex -6.0 -3.0 3.9999999999999996
    vertex -6.0 0.0 46.0
    vertex -6.0 -3.0 0.9999999999999999
  endloop
endfacet
facet normal -1.0 0.0 0.0
  outer loop
    vertex -6.0 -3.0 0.9999999999999999
    vertex -6.0 0.0 46.0
    vertex -6.0 0.0 3.9999999999999996
  endloop
endfacet
facet normal -1.0 0.0 0.0
  outer loop
    vertex -6.0 -3.0 0.9999999999999999
    vertex -6.0 0.0 3.9999999999999996
    vertex -6.0 104.99999999999999 0.9999999999999999
  endloop
endfacet
facet normal -1.0 0.0 0.0
  outer loop
    vertex -6.0 104.99999999999999 0.9999999999999999
    vertex -6.0 0.0 3.9999999999999996
    vertex -6.0 104.99999999999999 3.9999999999999996
  endloop
endfacet
facet normal -1.0 0.0 0.0
  outer loop
    vertex -6.0 104.99999999999999 0.9999999999999999
    vertex -6.0 104.99999999999999 3.9999999999999996
    vertex -6.0 105.00000000000001 46.0
  endloop
endfacet
facet normal -1.0 0.0 0.0
  outer loop
    vertex -6.0 104.99999999999999 0.9999999999999999
    vertex -6.0 105.00000000000001 46.0
    vertex -6.0 107.99999999999999 0.9999999999999943
  endloop
endfacet
facet normal -1.0 0.0 0.0
  outer loop
    vertex -6.0 107.99999999999999 0.9999999999999943
    vertex -6.0 105.00000000000001 46.0
    vertex -6.0 108.0 46.0
  endloop
endfacet
facet normal -1.0 0.0 0.0
  outer loop
    vertex -6.0 107.99999999999999 0.9999999999999943
    vertex -6.0 108.0 46.0
    vertex -6.0 108.0 3.9999999999999996
  endloop
endfacet
facet normal 0.0 -1.0 0.0
  outer loop
    vertex -3.0000000000000004 -3.0 3.9999999999999996
    vertex -6.0 -3.0 0.9999999999999999
    vertex -3.0000000000000004 -3.0 0.9999999999999999
  endloop
endfacet
facet normal 0.0 -1.0 0.0
  outer loop
    vertex -6.0 -3.0 0.9999999999999999
    vertex -3.0000000000000004 -3.0 3.9999999999999996
    vertex -6.0 -3.0 3.9999999999999996
  endloop
endfacet
facet normal 0.0 -1.0 0.0
  outer loop
    vertex -3.0000000000000004 -3.0 46.0
    vertex -6.0 -3.0 3.9999999999999996
    vertex -3.0000000000000004 -3.0 3.9999999999999996
  endloop
endfacet
facet normal 0.0 -1.0 0.0
  outer loop
    vertex -6.0 -3.0 3.9999999999999996
    vertex -3.0000000000000004 -3.0 46.0
    vertex -6.0 -3.0 46.0
  endloop
endfacet
facet normal 0.0 1.0 0.0
  outer loop
    vertex -6.0 108.0 46.0
    vertex -3.0000000000000004 108.0 3.9999999999999996
    vertex -6.0 108.0 3.9999999999999996
  endloop
endfacet
facet normal 0.0 1.0 0.0
  outer loop
    vertex -3.0000000000000004 108.0 3.9999999999999996
    vertex -6.0 108.0 46.0
    vertex -3.0000000000000004 108.0 46.0
  endloop
endfacet
facet normal 0.0 1.0 -7.519910620127713e-15
  outer loop
    vertex -6.0 108.0 3.9999999999999996
    vertex -3.0000000000000004 107.99999999999999 0.9999999999999943
    vertex -6.0 107.99999999999999 0.9999999999999943
  endloop
endfacet
facet normal 0.0 1.0 -7.519910620127713e-15
  outer loop
    vertex -3.0000000000000004 107.99999999999999 0.9999999999999943
    vertex -6.0 108.0 3.9999999999999996
    vertex -3.0000000000000004 108.0 3.9999999999999996
  endloop
endfacet
facet normal -0.0 -1.8799776550319353e-15 -1.0
  outer loop
    vertex -3.0000000000000004 107.99999999999999 0.9999999999999943
    vertex -6.0 104.99999999999999 0.9999999999999999
    vertex -6.0 107.99999999999999 0.9999999999999943
  endloop
endfacet
facet normal -0.0 -1.8799776550319353e-15 -1.0
  outer loop
    vertex -6.0 104.99999999999999 0.9999999999999999
    vertex -3.0000000000000004 107.99999999999999 0.9999999999999943
    vertex -3.0000000000000004 104.99999999999999 0.9999999999999999
  endloop
endfacet
facet normal -0.0 -0.0 -1.0
  outer loop
    vertex -3.0000000000000004 104.99999999999999 0.9999999999999999
    vertex -6.0 -3.0 0.9999999999999999
    vertex -6.0 104.99999999999999 0.9999999999999999
  endloop
endfacet
facet normal -0.0 -0.0 -1.0
  outer loop
    vertex -6.0 -3.0 0.9999999999999999
    vertex -3.0000000000000004 104.99999999999999 0.9999999999999999
    vertex -3.0000000000000004 -3.0 0.9999999999999999
  endloop
endfacet
facet normal 0.0 0.0 1.0
  outer loop
    vertex 143.0 -3.0 50.0
    vertex -3.0000000000000004 0.0 50.0
    vertex -3.0000000000000004 -3.0 50.0
  endloop
endfacet
facet normal 0.0 0.0 1.0
  outer loop
    vertex -3.0000000000000004 0.0 50.0
    vertex 143.0 -3.0 50.0
    vertex 140.0 0.0 50.0
  endloop
endfacet
facet normal 0.0 0.0 1.0
  outer loop
    vertex 140.0 0.0 50.0
    vertex 143.0 -3.0 50.0
    vertex 140.0 88.00000000000001 50.0
  endloop
endfacet
facet normal 0.0 0.0 1.0
  outer loop
    vertex 140.0 88.00000000000001 50.0
    vertex 143.0 -3.0 50.0
    vertex 140.0 105.00000000000001 50.0
  endloop
endfacet
facet normal 0.0 0.0 1.0
  outer loop
    vertex -3.0000000000000004 -3.0 50.0
    vertex -6.0 0.0 50.0
    vertex -6.0 -3.0 50.0
  endloop
endfacet
facet normal 0.0 0.0 1.0
  outer loop
    vertex -6.0 0.0 50.0
    vertex -3.0000000000000004 -3.0 50.0
    vertex -6.0 105.00000000000001 50.0
  endloop
endfacet
facet normal 0.0 0.0 1.0
  outer loop
    vertex -6.0 105.00000000000001 50.0
    vertex -3.0000000000000004 -3.0 50.0
    vertex -6.0 108.0 50.0
  endloop
endfacet
facet normal 0.0 0.0 1.0
  outer loop
    vertex -6.0 108.0 50.0
    vertex -3.0000000000000004 -3.0 50.0
    vertex -3.0000000000000004 108.0 50.0
  endloop
endfacet
facet normal 0.0 0.0 1.0
  outer loop
    vertex -3.0000000000000004 108.0 50.0
    vertex -3.0000000000000004 -3.0 50.0
    vertex -3.0000000000000004 0.0 50.0
  endloop
endfacet
facet normal 0.0 0.0 1.0
  outer loop
    vertex -3.0000000000000004 108.0 50.0
    vertex -3.0000000000000004 0.0 50.0
    vertex -3.0000000000000004 105.00000000000001 50.0
  endloop
endfacet
facet normal 0.0 0.0 1.0
  outer loop
    vertex -3.0000000000000004 108.0 50.0
    vertex -3.0000000000000004 105.00000000000001 50.0
    vertex 140.0 105.00000000000001 50.0
  endloop
endfacet
facet normal 0.0 0.0 1.0
  outer loop
    vertex -3.0000000000000004 108.0 50.0
    vertex 140.0 105.00000000000001 50.0
    vertex 143.0 108.0 50.0
  endloop
endfacet
facet normal 0.0 0.0 1.0
  outer loop
    vertex 143.0 108.0 50.0
    vertex 140.0 105.00000000000001 50.0
    vertex 143.0 -3.0 50.0
  endloop
endfacet
facet normal 0.0 0.0 1.0
  outer loop
    vertex 143.0 108.0 50.0
    vertex 143.0 -3.0 50.0
    vertex 143.0 88.00000000000001 50.0
  endloop
endfacet
facet normal 0.0 -1.0 0.0
  outer loop
    vertex -3.0000000000000004 -3.0 50.0
    vertex -6.0 -3.0 46.0
    vertex -3.0000000000000004 -3.0 46.0
  endloop
endfacet
facet normal 0.0 -1.0 0.0
  outer loop
    vertex -6.0 -3.0 46.0
    vertex -3.0000000000000004 -3.0 50.0
    vertex -6.0 -3.0 50.0
  endloop
endfacet
facet normal 0.0 -1.0 0.0
  outer loop
    vertex 143.0 -3.0 50.0
    vertex -3.0000000000000004 -3.0 46.0
    vertex 143.0 -3.0 46.0
  endloop
endfacet
facet normal 0.0 -1.0 0.0
  outer loop
    vertex -3.0000000000000004 -3.0 46.0
    vertex 143.0 -3.0 50.0
    vertex -3.0000000000000004 -3.0 50.0
  endloop
endfacet
facet normal 1.0 -0.0 0.0
  outer loop
    vertex 143.0 88.00000000000001 46.0
    vertex 143.0 -3.0 50.0
    vertex 143.0 -3.0 46.0
  endloop
endfacet
facet normal 1.0 -0.0 0.0
  outer loop
    vertex 143.0 -3.0 50.0
    vertex 143.0 88.00000000000001 46.0
    vertex 143.0 88.00000000000001 50.0
  endloop
endfacet
facet normal 1.0 -0.0 0.0
  outer loop
    vertex 143.0 108.0 46.0
    vertex 143.0 88.00000000000001 50.0
    vertex 143.0 88.00000000000001 46.0
  endloop
endfacet
facet normal 1.0 -0.0 0.0
  outer loop
    vertex 143.0 88.00000000000001 50.0
    vertex 143.0 108.0 46.0
    vertex 143.0 108.0 50.0
  endloop
endfacet
facet normal 0.0 1.0 0.0
  outer loop
    vertex -3.0000000000000004 108.0 50.0
    vertex 143.0 108.0 46.0
    vertex -3.0000000000000004 108.0 46.0
  endloop
endfacet
facet normal 0.0 1.0 0.0
  outer loop
    vertex 143.0 108.0 46.0
    vertex -3.0000000000000004 108.0 50.0
    vertex 143.0 108.0 50.0
  endloop
endfacet
facet normal 0.0 1.0 0.0
  outer loop
    vertex -6.0 108.0 50.0
    vertex -3.0000000000000004 108.0 46.0
    vertex -6.0 108.0 46.0
  endloop
endfacet
facet normal 0.0 1.0 0.0
  outer loop
    vertex -3.0000000000000004 108.0 46.0
    vertex -6.0 108.0 50.0
    vertex -3.0000000000000004 108.0 50.0
  endloop
endfacet
facet normal -1.0 -0.0 -0.0
  outer loop
    vertex -6.0 108.0 50.0
    vertex -6.0 105.00000000000001 46.0
    vertex -6.0 105.00000000000001 50.0
  endloop
endfacet
facet normal -1.0 -0.0 -0.0
  outer loop
    vertex -6.0 105.00000000000001 46.0
    vertex -6.0 108.0 50.0
    vertex -6.0 108.0 46.0
  endloop
endfacet
facet normal -1.0 -0.0 -0.0
  outer loop
    vertex -6.0 105.00000000000001 50.0
    vertex -6.0 0.0 46.0
    vertex -6.0 0.0 50.0
  endloop
endfacet
facet normal -1.0 -0.0 -0.0
  outer loop
    vertex -6.0 0.0 46.0
    vertex -6.0 105.00000000000001 50.0
    vertex -6.0 105.00000000000001 46.0
  endloop
endfacet
facet normal -1.0 -0.0 -0.0
  outer loop
    vertex -6.0 0.0 50.0
    vertex -6.0 -3.0 46.0
    vertex -6.0 -3.0 50.0
  endloop
endfacet
facet normal -1.0 -0.0 -0.0
  outer loop
    vertex -6.0 -3.0 46.0
    vertex -6.0 0.0 50.0
    vertex -6.0 0.0 46.0
  endloop
endfacet
facet normal 0.0 1.0 0.0
  outer loop
    vertex -3.0000000000000004 0.0 50.0
    vertex 140.0 0.0 46.0
    vertex -3.0000000000000004 0.0 46.0
  endloop
endfacet
facet normal 0.0 1.0 0.0
  outer loop
    vertex 140.0 0.0 46.0
    vertex -3.0000000000000004 0.0 50.0
    vertex 140.0 0.0 50.0
  endloop
endfacet
facet normal 1.0 -0.0 0.0
  outer loop
    vertex -3.0000000000000004 105.00000000000001 46.0
    vertex -3.0000000000000004 0.0 50.0
    vertex -3.0000000000000004 0.0 46.0
  endloop
endfacet
facet normal 1.0 -0.0 0.0
  outer loop
    vertex -3.0000000000000004 0.0 50.0
    vertex -3.0000000000000004 105.00000000000001 46.0
    vertex -3.0000000000000004 105.00000000000001 50.0
  endloop
endfacet
facet normal 0.0 -1.0 0.0
  outer loop
    vertex 140.0 105.00000000000001 50.0
    vertex -3.0000000000000004 105.00000000000001 46.0
    vertex 140.0 105.00000000000001 46.0
  endloop
endfacet
facet normal 0.0 -1.0 0.0
  outer loop
    vertex -3.0000000000000004 105.00000000000001 46.0
    vertex 140.0 105.00000000000001 50.0
    vertex -3.0000000000000004 105.00000000000001 50.0
  endloop
endfacet
facet normal -1.0 -0.0 -0.0
  outer loop
    vertex 140.0 105.00000000000001 50.0
    vertex 140.0 88.00000000000001 46.0
    vertex 140.0 88.00000000000001 50.0
  endloop
endfacet
facet normal -1.0 -0.0 -0.0
  outer loop
    vertex 140.0 88.00000000000001 46.0
    vertex 140.0 105.00000000000001 50.0
    vertex 140.0 105.00000000000001 46.0
  endloop
endfacet
facet normal -1.0 -0.0 -0.0
  outer loop
    vertex 140.0 88.00000000000001 50.0
    vertex 140.0 0.0 46.0
    vertex 140.0 0.0 50.0
  endloop
endfacet
facet normal -1.0 -0.0 -0.0
  outer loop
    vertex 140.0 0.0 46.0
    vertex 140.0 88.00000000000001 50.0
    vertex 140.0 88.00000000000001 46.0
  endloop
endfacet
facet normal 0.0 0.0 -1.0
  outer loop
    vertex 143.98781665929695 230.1489501068689 9.023892744153272e-14
    vertex -5.012183340703105 119.14895010686901 9.023892744153272e-14
    vertex -5.012183340703105 230.1489501068689 9.023892744153272e-14
  endloop
endfacet
facet normal 0.0 0.0 -1.0
  outer loop
    vertex -5.012183340703105 119.14895010686901 9.023892744153272e-14
    vertex 143.98781665929695 230.1489501068689 9.023892744153272e-14
    vertex 143.98781665929695 119.14895010686901 9.023892744153272e-14
  endloop
endfacet
facet normal -0.0 -0.0 1.0
  outer loop
    vertex -5.012183340703105 119.14895010686901 2.00000000000009
    vertex -1.9621833407031055 122.19895010686902 2.00000000000009
    vertex -5.012183340703105 230.1489501068689 2.00000000000009
  endloop
endfacet
facet normal -0.0 -0.0 1.0
  outer loop
    vertex -1.9621833407031055 122.19895010686902 2.00000000000009
    vertex -5.012183340703105 119.14895010686901 2.00000000000009
    vertex 143.98781665929695 119.14895010686901 2.00000000000009
  endloop
endfacet
facet normal -0.0 -0.0 1.0
  outer loop
    vertex -1.9621833407031055 122.19895010686902 2.00000000000009
    vertex 143.98781665929695 119.14895010686901 2.00000000000009
    vertex 140.9378166592969 122.19895010686902 2.00000000000009
  endloop
endfacet
facet normal -0.0 -0.0 1.0
  outer loop
    vertex 140.9378166592969 122.19895010686902 2.00000000000009
    vertex 143.98781665929695 119.14895010686901 2.00000000000009
    vertex 140.9378166592969 227.09895010686895 2.00000000000009
  endloop
endfacet
facet normal -0.0 -0.0 1.0
  outer loop
    vertex -5.012183340703105 230.1489501068689 2.00000000000009
    vertex -1.9621833407031055 227.09895010686895 2.00000000000009
    vertex 143.98781665929695 230.1489501068689 2.00000000000009
  endloop
endfacet
facet normal -0.0 -0.0 1.0
  outer loop
    vertex -1.9621833407031055 227.09895010686895 2.00000000000009
    vertex -5.012183340703105 230.1489501068689 2.00000000000009
    vertex -1.9621833407031055 122.19895010686902 2.00000000000009
  endloop
endfacet
facet normal -0.0 -0.0 1.0
  outer loop
    vertex 143.98781665929695 230.1489501068689 2.00000000000009
    vertex -1.9621833407031055 227.09895010686895 2.00000000000009
    vertex 140.9378166592969 227.09895010686895 2.00000000000009
  endloop
endfacet
facet normal -0.0 -0.0 1.0
  outer loop
    vertex 143.98781665929695 230.1489501068689 2.00000000000009
    vertex 140.9378166592969 227.09895010686895 2.00000000000009
    vertex 143.98781665929695 119.14895010686901 2.00000000000009
  endloop
endfacet
facet normal 0.0 -1.0 0.0
  outer loop
    vertex 143.98781665929695 119.14895010686901 2.00000000000009
    vertex -5.012183340703105 119.14895010686901 9.023892744153272e-14
    vertex 143.98781665929695 119.14895010686901 9.023892744153272e-14
  endloop
endfacet
facet normal 0.0 -1.0 0.0
  outer loop
    vertex -5.012183340703105 119.14895010686901 9.023892744153272e-14
    vertex 143.98781665929695 119.14895010686901 2.00000000000009
    vertex -5.012183340703105 119.14895010686901 2.00000000000009
  endloop
endfacet
facet normal -1.0 0.0 0.0
  outer loop
    vertex -5.012183340703105 230.1489501068689 2.00000000000009
    vertex -5.012183340703105 119.14895010686901 9.023892744153272e-14
    vertex -5.012183340703105 119.14895010686901 2.00000000000009
  endloop
endfacet
facet normal -1.0 0.0 0.0
  outer loop
    vertex -5.012183340703105 119.14895010686901 9.023892744153272e-14
    vertex -5.012183340703105 230.1489501068689 2.00000000000009
    vertex -5.012183340703105 230.1489501068689 9.023892744153272e-14
  endloop
endfacet
facet normal -0.0 1.0 -0.0
  outer loop
    vertex -5.012183340703105 230.1489501068689 2.00000000000009
    vertex 143.98781665929695 230.1489501068689 9.023892744153272e-14
    vertex -5.012183340703105 230.1489501068689 9.023892744153272e-14
  endloop
endfacet
facet normal -0.0 1.0 -0.0
  outer loop
    vertex 143.98781665929695 230.1489501068689 9.023892744153272e-14
    vertex -5.012183340703105 230.1489501068689 2.00000000000009
    vertex 143.98781665929695 230.1489501068689 2.00000000000009
  endloop
endfacet
facet normal 1.0 -0.0 -0.0
  outer loop
    vertex 143.98781665929695 230.1489501068689 9.023892744153272e-14
    vertex 143.98781665929695 119.14895010686901 2.00000000000009
    vertex 143.98781665929695 119.14895010686901 9.023892744153272e-14
  endloop
endfacet
facet normal 1.0 -0.0 -0.0
  outer loop
    vertex 143.98781665929695 119.14895010686901 2.00000000000009
    vertex 143.98781665929695 230.1489501068689 9.023892744153272e-14
    vertex 143.98781665929695 230.1489501068689 2.00000000000009
  endloop
endfacet
facet normal -0.0 -0.0 1.0
  outer loop
    vertex 137.9378166592969 125.19895010686902 2.00000000000009
    vertex 1.0378166592968947 224.09895010686893 2.00000000000009
    vertex 1.0378166592968947 125.19895010686902 2.00000000000009
  endloop
endfacet
facet normal -0.0 -0.0 1.0
  outer loop
    vertex 1.0378166592968947 224.09895010686893 2.00000000000009
    vertex 137.9378166592969 125.19895010686902 2.00000000000009
    vertex 137.9378166592969 224.09895010686893 2.00000000000009
  endloop
endfacet
facet normal -0.0 -0.0 1.0
  outer loop
    vertex -1.9621833407031055 122.19895010686902 7.00000000000009
    vertex 1.0378166592968947 125.19895010686902 7.00000000000009
    vertex -1.9621833407031055 227.09895010686895 7.00000000000009
  endloop
endfacet
facet normal -0.0 -0.0 1.0
  outer loop
    vertex 1.0378166592968947 125.19895010686902 7.00000000000009
    vertex -1.9621833407031055 122.19895010686902 7.00000000000009
    vertex 140.9378166592969 122.19895010686902 7.00000000000009
  endloop
endfacet
facet normal -0.0 -0.0 1.0
  outer loop
    vertex 1.0378166592968947 125.19895010686902 7.00000000000009
    vertex 140.9378166592969 122.19895010686902 7.00000000000009
    vertex 137.9378166592969 125.19895010686902 7.00000000000009
  endloop
endfacet
facet normal -0.0 -0.0 1.0
  outer loop
    vertex 137.9378166592969 125.19895010686902 7.00000000000009
    vertex 140.9378166592969 122.19895010686902 7.00000000000009
    vertex 137.9378166592969 224.09895010686893 7.00000000000009
  endloop
endfacet
facet normal -0.0 -0.0 1.0
  outer loop
    vertex -1.9621833407031055 227.09895010686895 7.00000000000009
    vertex 1.0378166592968947 224.09895010686893 7.00000000000009
    vertex 140.9378166592969 227.09895010686895 7.00000000000009
  endloop
endfacet
facet normal -0.0 -0.0 1.0
  outer loop
    vertex 1.0378166592968947 224.09895010686893 7.00000000000009
    vertex -1.9621833407031055 227.09895010686895 7.00000000000009
    vertex 1.0378166592968947 125.19895010686902 7.00000000000009
  endloop
endfacet
facet normal -0.0 -0.0 1.0
  outer loop
    vertex 140.9378166592969 227.09895010686895 7.00000000000009
    vertex 1.0378166592968947 224.09895010686893 7.00000000000009
    vertex 137.9378166592969 224.09895010686893 7.00000000000009
  endloop
endfacet
facet normal -0.0 -0.0 1.0
  outer loop
    vertex 140.9378166592969 227.09895010686895 7.00000000000009
    vertex 137.9378166592969 224.09895010686893 7.00000000000009
    vertex 140.9378166592969 122.19895010686902 7.00000000000009
  endloop
endfacet
facet normal -1.0 0.0 0.0
  outer loop
    vertex -1.9621833407031055 227.09895010686895 7.00000000000009
    vertex -1.9621833407031055 122.19895010686902 2.00000000000009
    vertex -1.9621833407031055 122.19895010686902 7.00000000000009
  endloop
endfacet
facet normal -1.0 0.0 0.0
  outer loop
    vertex -1.9621833407031055 122.19895010686902 2.00000000000009
    vertex -1.9621833407031055 227.09895010686895 7.00000000000009
    vertex -1.9621833407031055 227.09895010686895 2.00000000000009
  endloop
endfacet
facet normal 0.0 -1.0 0.0
  outer loop
    vertex 140.9378166592969 122.19895010686902 7.00000000000009
    vertex -1.9621833407031055 122.19895010686902 2.00000000000009
    vertex 140.9378166592969 122.19895010686902 2.00000000000009
  endloop
endfacet
facet normal 0.0 -1.0 0.0
  outer loop
    vertex -1.9621833407031055 122.19895010686902 2.00000000000009
    vertex 140.9378166592969 122.19895010686902 7.00000000000009
    vertex -1.9621833407031055 122.19895010686902 7.00000000000009
  endloop
endfacet
facet normal 1.0 -0.0 -0.0
  outer loop
    vertex 140.9378166592969 227.09895010686895 2.00000000000009
    vertex 140.9378166592969 122.19895010686902 7.00000000000009
    vertex 140.9378166592969 122.19895010686902 2.00000000000009
  endloop
endfacet
facet normal 1.0 -0.0 -0.0
  outer loop
    vertex 140.9378166592969 122.19895010686902 7.00000000000009
    vertex 140.9378166592969 227.09895010686895 2.00000000000009
    vertex 140.9378166592969 227.09895010686895 7.00000000000009
  endloop
endfacet
facet normal -0.0 1.0 -0.0
  outer loop
    vertex -1.9621833407031055 227.09895010686895 7.00000000000009
    vertex 140.9378166592969 227.09895010686895 2.00000000000009
    vertex -1.9621833407031055 227.09895010686895 2.00000000000009
  endloop
endfacet
facet normal -0.0 1.0 -0.0
  outer loop
    vertex 140.9378166592969 227.09895010686895 2.00000000000009
    vertex -1.9621833407031055 227.09895010686895 7.00000000000009
    vertex 140.9378166592969 227.09895010686895 7.00000000000009
  endloop
endfacet
facet normal 0.0 -1.0 0.0
  outer loop
    vertex 137.9378166592969 224.09895010686893 7.00000000000009
    vertex 1.0378166592968947 224.09895010686893 2.00000000000009
    vertex 137.9378166592969 224.09895010686893 2.00000000000009
  endloop
endfacet
facet normal 0.0 -1.0 0.0
  outer loop
    vertex 1.0378166592968947 224.09895010686893 2.00000000000009
    vertex 137.9378166592969 224.09895010686893 7.00000000000009
    vertex 1.0378166592968947 224.09895010686893 7.00000000000009
  endloop
endfacet
facet normal -1.0 0.0 0.0
  outer loop
    vertex 137.9378166592969 224.09895010686893 7.00000000000009
    vertex 137.9378166592969 125.19895010686902 2.00000000000009
    vertex 137.9378166592969 125.19895010686902 7.00000000000009
  endloop
endfacet
facet normal -1.0 0.0 0.0
  outer loop
    vertex 137.9378166592969 125.19895010686902 2.00000000000009
    vertex 137.9378166592969 224.09895010686893 7.00000000000009
    vertex 137.9378166592969 224.09895010686893 2.00000000000009
  endloop
endfacet
facet normal -0.0 1.0 -0.0
  outer loop
    vertex 1.0378166592968947 125.19895010686902 7.00000000000009
    vertex 137.9378166592969 125.19895010686902 2.00000000000009
    vertex 1.0378166592968947 125.19895010686902 2.00000000000009
  endloop
endfacet
facet normal -0.0 1.0 -0.0
  outer loop
    vertex 137.9378166592969 125.19895010686902 2.00000000000009
    vertex 1.0378166592968947 125.19895010686902 7.00000000000009
    vertex 137.9378166592969 125.19895010686902 7.00000000000009
  endloop
endfacet
facet normal 1.0 -0.0 -0.0
  outer loop
    vertex 1.0378166592968947 224.09895010686893 2.00000000000009
    vertex 1.0378166592968947 125.19895010686902 7.00000000000009
    vertex 1.0378166592968947 125.19895010686902 2.00000000000009
  endloop
endfacet
facet normal 1.0 -0.0 -0.0
  outer loop
    vertex 1.0378166592968947 125.19895010686902 7.00000000000009
    vertex 1.0378166592968947 224.09895010686893 2.00000000000009
    vertex 1.0378166592968947 224.09895010686893 7.00000000000009
  endloop
endfacet
endsolid power_box
